<?xml version="1.0" encoding="utf-8"?><svg xmlns="http://www.w3.org/2000/svg" xmlns:xlink="http://www.w3.org/1999/xlink"><symbol viewBox="0 0 35 35" id="bus" xmlns="http://www.w3.org/2000/svg"><path d="M18.091.2a.689.689 0 0 0-.483-.2.688.688 0 0 0-.483.2.689.689 0 0 0-.2.484.688.688 0 0 0 .683.683.69.69 0 0 0 .483-.2.689.689 0 0 0 .2-.483.689.689 0 0 0-.2-.484z"/><path d="M33.633 6.606V4.682c0-1.037-.844-1.88-1.88-1.88h-1.188A3.423 3.423 0 0 0 27.206 0H20.53a.684.684 0 0 0 0 1.367h6.673c1.131 0 2.051.92 2.051 2.051v2.05h-6.56v-2.05a.684.684 0 0 0-.683-.684h-9.024a.684.684 0 0 0-.683.684v2.05H5.75v-2.05c0-1.13.92-2.05 2.05-2.05h6.862a.684.684 0 0 0 0-1.368h-6.86A3.423 3.423 0 0 0 4.44 2.802H3.248c-1.037 0-1.88.843-1.88 1.88v1.924A2.054 2.054 0 0 0 0 8.54v2.554c0 1.13.92 2.05 2.05 2.05 1.132 0 2.052-.92 2.052-2.05V8.54c0-.892-.572-1.651-1.368-1.934V4.682c0-.283.23-.513.514-.513h1.136v22.696a3.42 3.42 0 0 0 1.985 3.102v2.435A2.6 2.6 0 0 0 8.967 35a2.6 2.6 0 0 0 2.597-2.598v-2.119h11.89v2.12A2.6 2.6 0 0 0 26.05 35a2.6 2.6 0 0 0 2.598-2.598v-2.44a3.422 3.422 0 0 0 1.973-3.097V4.17h1.13c.283 0 .514.23.514.513v1.924a2.054 2.054 0 0 0-1.368 1.934v2.554c0 1.13.92 2.05 2.051 2.05 1.131 0 2.051-.92 2.051-2.05V8.54c0-.892-.572-1.651-1.367-1.934zM2.734 11.094a.684.684 0 0 1-1.367 0V8.54a.684.684 0 0 1 1.367 0v2.554zM22.33 6.836l-2.13 2.13a.684.684 0 1 0 .967.966l3.097-3.096h4.022L18.184 16.937V6.836h4.145zm-8.657-2.734h7.656v1.367h-7.656V4.102zm.224 11.935a.684.684 0 0 0-.967 0l-4.249 4.25h-.438l-2.114-2.115L16.817 7.483v12.803h-6.203l3.282-3.282a.684.684 0 0 0 0-.967zM5.751 6.836h9.78l-9.78 9.78v-9.78zm4.446 25.566a1.231 1.231 0 0 1-2.46 0v-2.119h2.46v2.12zm17.084 0a1.231 1.231 0 0 1-2.46 0v-2.119h2.46v2.12zm1.974-5.537c0 1.131-.92 2.051-2.05 2.051H7.801c-1.13 0-2.05-.92-2.05-2.05v-7.137l1.724 1.724c.128.128.302.2.483.2H27.04a.684.684 0 0 0 .483-.2l1.731-1.73v7.142zm0-9.076l-2.497 2.497h-8.574V18.87L29.255 7.8v9.989zm4.378-6.695a.684.684 0 0 1-1.367 0V8.54a.684.684 0 0 1 1.367 0v2.554z"/><path d="M9.573 23.234c-1.13 0-2.05.92-2.05 2.05 0 1.132.92 2.051 2.05 2.051 1.131 0 2.051-.92 2.051-2.05 0-1.131-.92-2.051-2.05-2.051zm0 2.734a.684.684 0 1 1 .002-1.368.684.684 0 0 1-.002 1.368zm15.854-2.734c-1.131 0-2.051.92-2.051 2.05 0 1.132.92 2.051 2.05 2.051 1.131 0 2.051-.92 2.051-2.05 0-1.131-.92-2.051-2.05-2.051zm0 2.734a.684.684 0 1 1 .001-1.369.684.684 0 0 1-.001 1.37zm-4.367-2.734h-7.11a.684.684 0 0 0-.683.683v2.735c0 .377.306.683.684.683h7.11a.684.684 0 0 0 .683-.683v-2.735a.684.684 0 0 0-.684-.683zm-.683 2.734h-5.742v-1.367h5.742v1.367z"/></symbol><symbol viewBox="0 0 30 24" id="car" xmlns="http://www.w3.org/2000/svg"><path d="M28.77 8.543l-.569-.53c0-.008-.007-.016-.015-.024l-2.29-6.184A2.785 2.785 0 0 0 23.293 0H7.083c-1.16 0-2.197.722-2.604 1.805L2.212 7.92l-.86.715A3.787 3.787 0 0 0 0 11.515v8.912C0 21.956 1.275 23.2 2.804 23.2h1.675a2.746 2.746 0 0 0 2.742-2.75v-1.168H22.74v1.145a2.748 2.748 0 0 0 2.727 2.773h1.691c1.528 0 2.803-1.244 2.803-2.773v-9.134c0-1.045-.43-2.036-1.19-2.75zM5.923 2.328a1.22 1.22 0 0 1 1.16-.792h16.202a1.22 1.22 0 0 1 1.16.792l1.913 5.124h-1.176c-.368-2.074-2.205-3.71-4.417-3.71-2.213 0-4.04 1.636-4.402 3.71H4.018l1.905-5.124zm17.692 5.124H17.93a2.948 2.948 0 0 1 3.61-2.074 2.932 2.932 0 0 1 2.075 2.074zM5.693 20.427a1.21 1.21 0 0 1-1.184 1.237H2.812c-.684 0-1.268-.553-1.268-1.237v-1.429c.4.192.83.284 1.268.284h2.88v1.145zm22.739 0c0 .684-.584 1.237-1.268 1.237H25.49a1.21 1.21 0 0 1-1.206-1.214v-1.168h2.881c.438 0 .876-.092 1.268-.284v1.429zm-1.268-2.681H2.812c-.684 0-1.268-.546-1.268-1.23v-4.993c.008-.668.3-1.298.807-1.728l.945-.807h23.73l.691.653c.454.43.715 1.022.715 1.644v5.232c0 .683-.584 1.229-1.268 1.229z"/><path d="M8.535 11.293H3.772a.77.77 0 0 0-.768.768v3.303a.77.77 0 0 0 .768.769h4.763a.77.77 0 0 0 .768-.768V12.06a.77.77 0 0 0-.768-.768zm-.768 3.303H4.54V12.83h3.227v1.767zm18.437-3.303H21.44a.77.77 0 0 0-.768.768v3.303a.77.77 0 0 0 .768.769h4.763a.77.77 0 0 0 .768-.768V12.06a.77.77 0 0 0-.768-.768zm-.768 3.303h-3.227V12.83h3.227v1.767zm-7.39-.691h-6.123a.77.77 0 0 0-.768.768.77.77 0 0 0 .768.768h6.123a.77.77 0 0 0 .768-.768.766.766 0 0 0-.768-.768zm0-1.921h-6.123a.77.77 0 0 0-.768.769.77.77 0 0 0 .768.768h6.123a.77.77 0 0 0 .768-.768.766.766 0 0 0-.768-.769z"/></symbol><symbol viewBox="0 0 344.96 344.96" id="check" xmlns="http://www.w3.org/2000/svg"><g data-name="Слой 2"><path d="M321.85 86.24l-40-23.11-23.1-40H212.5L172.48 0l-40 23.11H86.24l-23.11 40-40 23.1v46.21L0 172.48l23.11 40v46.21l40 23.11 23.11 40h46.21l40 23.1 40-23.11h46.21l23.11-40 40-23.11V212.5l23.11-40-23.11-40V86.24zM156.91 243.07a16.79 16.79 0 0 1-23.34 0l-50.45-50.44a16.19 16.19 0 0 1 0-22.89l13.35-13.35a16.19 16.19 0 0 1 22.89 0l25.87 25.87 80.34-80.35a16.19 16.19 0 0 1 22.89 0l13.35 13.35a16.19 16.19 0 0 1 0 22.89z" data-name="Capa 1"/></g></symbol><symbol viewBox="0 0 8 16" id="fb" xmlns="http://www.w3.org/2000/svg"><path d="M4.514 15.895V7.989h2.582l.408-2.62h-2.99V4.057c0-.683.221-1.336 1.193-1.336h1.942V.105H4.892c-2.318 0-2.95 1.542-2.95 3.678v1.585H.352V7.99h1.59v7.906h2.572z"/></symbol><symbol viewBox="0 0 14 16" id="instagram" xmlns="http://www.w3.org/2000/svg"><g clip-path="url(#eclip0)"><path d="M10.168.895H3.832C1.78.895.108 2.617.108 4.735v6.53c0 2.118 1.67 3.84 3.724 3.84h6.335c2.054 0 3.725-1.722 3.725-3.84v-6.53c0-2.118-1.67-3.84-3.724-3.84zm2.61 10.37c0 1.485-1.17 2.692-2.61 2.692H3.832c-1.44 0-2.61-1.207-2.61-2.691V4.734c0-1.484 1.17-2.691 2.61-2.691h6.335c1.44 0 2.611 1.207 2.611 2.691v6.532z"/><path d="M10.085 7.504a3.2 3.2 0 0 0-.872-1.785 3.037 3.037 0 0 0-2.639-.9 3.056 3.056 0 0 0-2.03 1.254A3.24 3.24 0 0 0 3.97 8.44a3.184 3.184 0 0 0 1.216 2.092 3.007 3.007 0 0 0 2.295.593A3.056 3.056 0 0 0 9.51 9.87a3.24 3.24 0 0 0 .575-2.366zM7.317 9.988A1.92 1.92 0 0 1 5.85 9.61c-.424-.324-.7-.8-.777-1.338a2.073 2.073 0 0 1 .367-1.514 1.955 1.955 0 0 1 1.878-.802c.868.133 1.538.823 1.666 1.718.16 1.112-.587 2.15-1.666 2.315zm3.561-5.986a.552.552 0 0 0-.394-.168.552.552 0 0 0-.393.168.587.587 0 0 0 0 .812.552.552 0 0 0 .393.168c.147 0 .29-.061.394-.168a.587.587 0 0 0 0-.812z"/></g><defs><clipPath id="eclip0"><path transform="translate(.108 .895)" d="M0 0h13.784v14.21H0z"/></clipPath></defs></symbol><symbol viewBox="0 0 42 42" id="taxi" xmlns="http://www.w3.org/2000/svg"><path d="M10.88 35.948a1.068 1.068 0 0 1-1.068-1.067v-7.018h21.749v7.018a1.07 1.07 0 0 1-1.068 1.067h-6.81c-.99 0-.992 1.544 0 1.544h1.127v1.63c0 .852.693 1.545 1.544 1.545h2.534c.851 0 1.544-.693 1.544-1.544v-1.631h.061a2.614 2.614 0 0 0 2.612-2.611v-7.79c0-.182-.252-1.973-.288-1.973h1.07c.851 0 1.544-.693 1.544-1.544v-4.3c0-.851-.693-1.543-1.544-1.543h-2.179l-.391-2.608a3.9 3.9 0 0 0-3.895-3.817h-.48c.038-.1.075-.2.11-.301.972-2.858.013-6.402-2.231-8.243a6.52 6.52 0 0 0-8.248 0c-2.192 1.798-3.174 5.113-2.334 7.883.068.224.146.444.233.66h-.522a3.9 3.9 0 0 0-3.895 3.867l-.386 2.559H7.527c-.851 0-1.544.692-1.544 1.543v4.3c0 .851.693 1.544 1.544 1.544h1.03c-.042 0-.29 1.796-.29 1.973v7.79a2.615 2.615 0 0 0 2.612 2.61h.082v1.632c0 .851.693 1.544 1.544 1.544h2.534c.851 0 1.544-.693 1.544-1.544v-1.631h.808c.991 0 .993-1.544 0-1.544h-6.512zm4.16 1.544v1.63h-2.534v-1.63h2.533zm13.849 1.63h-2.535v-1.63h2.534v1.63zM27.422 12.85c1.031 0 1.91.667 2.227 1.593h-4.66c.432-.5.833-1.03 1.18-1.593h1.253zm-9.87-8.894a4.95 4.95 0 0 1 3.145-1.121 4.95 4.95 0 0 1 3.144 1.121c1.744 1.43 2.512 4.308 1.749 6.552-.81 2.381-2.931 4.223-4.893 5.845-2.075-1.729-4.254-3.76-4.98-6.156-.656-2.162.133-4.845 1.835-6.241zM13.95 12.85h1.314c.35.555.751 1.086 1.188 1.593h-4.73a2.356 2.356 0 0 1 2.227-1.593zM8.788 23.574H7.527v-4.3h1.91l-.648 4.3zm1.148 2.745l.28-1.858.625-4.152.651-4.322h6.45c.689.65 1.409 1.26 2.108 1.836.445.365.842.37 1.291 0 .683-.564 1.42-1.172 2.139-1.836h6.404l.395 2.63.877 5.844.279 1.858H9.937zm23.95-2.745h-1.302l-.645-4.3h1.947l.001 4.3h-.001z"/><path d="M20.697 11.865a3.835 3.835 0 0 0 3.83-3.831 3.835 3.835 0 0 0-3.83-3.831 3.835 3.835 0 0 0-3.832 3.83 3.836 3.836 0 0 0 3.832 3.832zm0-6.118a2.29 2.29 0 0 1 2.287 2.287 2.29 2.29 0 0 1-2.287 2.287 2.29 2.29 0 0 1-2.287-2.287 2.29 2.29 0 0 1 2.287-2.287zm-.162 14.338a.771.771 0 0 0-1.092 0L16.42 23.11c-.694.694.393 1.79 1.092 1.092l3.024-3.024a.772.772 0 0 0 0-1.092c.301.302-.302-.302 0 0zm3.194 0l-3.024 3.024c-.694.694.393 1.79 1.092 1.092l3.024-3.024c.704-.704-.388-1.796-1.092-1.092zM11.15 31.909a2.625 2.625 0 0 0 2.622 2.622 2.625 2.625 0 0 0 2.623-2.622 2.625 2.625 0 0 0-2.623-2.623 2.625 2.625 0 0 0-2.622 2.623zm3.7 0a1.08 1.08 0 0 1-1.078 1.077 1.08 1.08 0 0 1 0-2.156 1.08 1.08 0 0 1 1.079 1.079zm12.77 2.621a2.625 2.625 0 0 0 2.623-2.621 2.625 2.625 0 0 0-2.622-2.623 2.625 2.625 0 0 0-2.622 2.623 2.625 2.625 0 0 0 2.622 2.622zm0-3.7a1.08 1.08 0 0 1 0 2.156 1.08 1.08 0 0 1 0-2.156zm-9.476-.973a.772.772 0 0 0-.772.772v2.558c0 .992 1.544.993 1.544 0V30.63a.772.772 0 0 0-.772-.772zm2.566 0a.772.772 0 0 0-.771.772v2.558c0 .992 1.544.993 1.544 0V30.63a.772.772 0 0 0-.772-.772zm3.34 3.33v-2.558c0-.991-1.544-.992-1.544 0v2.558c0 .991 1.544.993 1.544 0zm-3.532 2.721a.78.78 0 0 0-.772.772c0 .419.352.772.772.772a.78.78 0 0 0 .77-.739.779.779 0 0 0-.77-.805z"/></symbol><symbol viewBox="0 0 34 34" id="train" xmlns="http://www.w3.org/2000/svg"><g clip-path="url(#gclip0)"><path d="M33.925 33.03l-5.554-10.693 1.009-.843a.664.664 0 0 0 .238-.51V4.947A4.953 4.953 0 0 0 24.67 0H9.33a4.953 4.953 0 0 0-4.947 4.947v2.291a.664.664 0 0 0 1.328 0v-2.29a3.623 3.623 0 0 1 3.62-3.62h15.34a3.623 3.623 0 0 1 3.619 3.62v15.726l-5.212 4.36h-1.894v-.962a.664.664 0 0 0-1.328 0v.963h-2.017v-.963a.664.664 0 0 0-1.328 0v.963h-2.017v-.963a.664.664 0 0 0-1.328 0v.963h-2.243l-5.212-4.361V13.48a.664.664 0 1 0-1.328 0v7.504c0 .197.087.383.238.51l1.009.843L.075 33.03a.664.664 0 0 0 1.179.612L6.673 23.21l.918.768-3.496 9.12a.664.664 0 0 0 1.24.475l.702-1.831h16.874a.664.664 0 0 0 0-1.328H6.546l.512-1.335a.675.675 0 0 0 .086.007h19.69a.67.67 0 0 0 .108-.01l1.723 4.497a.664.664 0 1 0 1.24-.475l-3.495-9.12.918-.768 5.419 10.432a.664.664 0 1 0 1.178-.612zm-7.489-5.272H7.565l1.103-2.879 1.588 1.33c.12.1.27.154.426.154H23.32a.663.663 0 0 0 .426-.155l1.588-1.329 1.103 2.879z"/><path d="M25.633 30.414a.669.669 0 0 0-.47.194.668.668 0 0 0 .47 1.134.669.669 0 0 0 .664-.664.669.669 0 0 0-.664-.664zm.797-23.641a1.994 1.994 0 0 0-1.992-1.992H9.563A1.995 1.995 0 0 0 7.57 6.773v5.844c0 1.099.894 1.992 1.992 1.992h14.876a1.994 1.994 0 0 0 1.992-1.992V6.773zM8.898 12.617V6.773c0-.366.298-.664.665-.664h6.773v7.172H9.563a.665.665 0 0 1-.665-.664zm16.204 0a.665.665 0 0 1-.665.664h-6.773V6.11h6.773c.366 0 .665.298.665.664v5.844zM9.806 20.852a2.26 2.26 0 0 0 2.258-2.258 2.26 2.26 0 0 0-2.258-2.258 2.26 2.26 0 0 0-2.258 2.258 2.26 2.26 0 0 0 2.258 2.258zm0-3.188a.93.93 0 0 1 0 1.86.93.93 0 0 1 0-1.86zm14.366-1.328a2.26 2.26 0 0 0-2.258 2.258 2.26 2.26 0 0 0 2.258 2.258 2.26 2.26 0 0 0 2.258-2.258 2.26 2.26 0 0 0-2.258-2.258zm0 3.187a.93.93 0 0 1 0-1.859.93.93 0 0 1 0 1.86zm-3.652-3.179h-6.69a.664.664 0 0 0 0 1.328h6.69a.664.664 0 1 0 0-1.328zm0 3.179h-6.69a.664.664 0 0 0 0 1.329h6.69a.664.664 0 0 0 0-1.329zm-15.473-8.61a.665.665 0 0 0 .47-1.134.668.668 0 0 0-.47-.195.669.669 0 0 0-.664.664.668.668 0 0 0 .664.665z"/></g><defs><clipPath id="gclip0"><path d="M0 0h34v34H0z"/></clipPath></defs></symbol><symbol viewBox="0 0 16 9" id="vk" xmlns="http://www.w3.org/2000/svg"><path d="M15.621 8.055a1.04 1.04 0 0 0-.052-.097c-.268-.47-.778-1.044-1.532-1.727l-.016-.015-.008-.008-.008-.008h-.008a9.118 9.118 0 0 1-.65-.64c-.166-.208-.203-.42-.112-.633.064-.161.305-.502.722-1.023.219-.276.393-.497.52-.664.926-1.197 1.327-1.963 1.204-2.296l-.048-.078c-.032-.047-.115-.09-.248-.129a1.296 1.296 0 0 0-.514-.019l-2.31.015a.307.307 0 0 0-.16.004l-.104.024-.04.02-.033.023a.353.353 0 0 0-.088.082.53.53 0 0 0-.08.137 12.61 12.61 0 0 1-.858 1.757c-.198.323-.38.602-.546.84a4.056 4.056 0 0 1-.417.523 2.89 2.89 0 0 1-.305.269c-.09.068-.16.096-.208.086a6.007 6.007 0 0 1-.137-.031.525.525 0 0 1-.18-.192.84.84 0 0 1-.092-.304 3.275 3.275 0 0 1-.024-.692c.005-.161.008-.27.008-.328 0-.197.004-.412.012-.644.008-.232.014-.415.02-.55.005-.136.008-.279.008-.43 0-.151-.01-.27-.028-.355a1.193 1.193 0 0 0-.084-.25.424.424 0 0 0-.165-.188.941.941 0 0 0-.268-.105A5.477 5.477 0 0 0 7.709.327C6.714.317 6.075.38 5.792.515a1.077 1.077 0 0 0-.305.234c-.096.115-.11.177-.04.187.32.047.548.16.681.336l.049.094c.037.068.075.188.112.36.037.171.062.361.072.57.027.38.027.705 0 .976-.027.27-.052.481-.076.632a1.242 1.242 0 0 1-.205.539.137.137 0 0 1-.04.039.615.615 0 0 1-.216.04.516.516 0 0 1-.273-.11 1.906 1.906 0 0 1-.333-.301 4.023 4.023 0 0 1-.389-.535 9.26 9.26 0 0 1-.45-.812l-.127-.227a19.27 19.27 0 0 1-.33-.636 12.11 12.11 0 0 1-.368-.809.517.517 0 0 0-.193-.25L3.321.82a.87.87 0 0 0-.313-.117L.811.718c-.225 0-.377.05-.458.148L.321.913a.247.247 0 0 0-.024.125c0 .057.016.127.048.21.321.735.67 1.443 1.047 2.125.377.682.705 1.231.983 1.648.278.416.561.81.85 1.179.289.37.48.607.573.71.094.105.167.183.22.235l.201.187c.129.125.317.275.566.45.249.174.524.346.826.515.302.17.654.307 1.055.414.4.107.791.15 1.171.129h.922c.187-.016.33-.073.426-.172l.031-.04a.51.51 0 0 0 .06-.143.774.774 0 0 0 .029-.215 2.508 2.508 0 0 1 .052-.605c.04-.18.085-.315.136-.407a1 1 0 0 1 .31-.343.532.532 0 0 1 .063-.027c.128-.042.28-.002.453.12.174.123.337.274.49.454.152.18.335.381.55.605.213.224.4.39.56.5l.16.093c.108.063.247.12.418.172a.94.94 0 0 0 .45.04L15 8.84c.203 0 .36-.033.473-.098.112-.065.179-.136.2-.214a.59.59 0 0 0 .004-.266.962.962 0 0 0-.056-.207z"/></symbol></svg>