<svg width="35" height="35" viewBox="0 0 35 35" fill="none" xmlns="http://www.w3.org/2000/svg">
<path d="M18.0913 0.200293C17.9641 0.0731444 17.7877 0 17.608 0C17.4282 0 17.2518 0.073076 17.1247 0.200293C16.9975 0.327509 16.9244 0.503808 16.9244 0.683592C16.9244 0.863377 16.9975 1.03974 17.1247 1.16682C17.2518 1.29404 17.4282 1.36718 17.608 1.36718C17.7877 1.36718 17.9634 1.29404 18.0913 1.16682C18.2184 1.03974 18.2915 0.863377 18.2915 0.683592C18.2915 0.503808 18.2184 0.327441 18.0913 0.200293Z" fill="#00834E"/>
<path d="M33.6328 6.60637V4.68206C33.6328 3.64519 32.7892 2.80164 31.7523 2.80164H30.5655C30.2743 1.21037 28.8784 0 27.2042 0H20.5306C20.1531 0 19.847 0.306113 19.847 0.683592C19.847 1.06107 20.1531 1.36718 20.5306 1.36718H27.2042C28.335 1.36718 29.255 2.28716 29.255 3.41796V5.46874H22.6953V3.41796C22.6953 3.04048 22.3892 2.73437 22.0117 2.73437H12.9883C12.6107 2.73437 12.3047 3.04048 12.3047 3.41796V5.46874H5.75113V3.41796C5.75113 2.28716 6.67111 1.36718 7.80191 1.36718H14.6631C15.0406 1.36718 15.3467 1.06107 15.3467 0.683592C15.3467 0.306113 15.0406 0 14.6631 0H7.80191C6.12779 0 4.73183 1.2103 4.44068 2.80164H3.24761C2.21074 2.80164 1.36718 3.64519 1.36718 4.68206V6.60637C0.571552 6.88856 0 7.64837 0 8.53957V11.0941C0 12.2249 0.919979 13.1449 2.05078 13.1449C3.18158 13.1449 4.10155 12.2249 4.10155 11.0941V8.53957C4.10155 7.64844 3.53 6.88856 2.73437 6.60637V4.68206C2.73437 4.39905 2.9646 4.16882 3.24761 4.16882H4.38402V26.8652C4.38402 28.2382 5.19831 29.4241 6.36896 29.9671V32.4023C6.36896 33.8346 7.53428 34.9999 8.96661 34.9999C10.3989 34.9999 11.5643 33.8346 11.5643 32.4023V30.2831H23.4532V32.4023C23.4532 33.8346 24.6185 34.9999 26.0508 34.9999C27.4832 34.9999 28.6485 33.8346 28.6485 32.4023V29.9621C29.8132 29.4167 30.6223 28.2339 30.6223 26.8652V4.16882H31.7524C32.0354 4.16882 32.2656 4.39905 32.2656 4.68206V6.60637C31.47 6.88856 30.8984 7.64837 30.8984 8.53957V11.0941C30.8984 12.2249 31.8184 13.1449 32.9492 13.1449C34.08 13.1449 35 12.2249 35 11.0941V8.53957C34.9999 7.64837 34.4284 6.88863 33.6328 6.60637ZM2.73437 11.0942C2.73437 11.4711 2.42771 11.7778 2.05078 11.7778C1.67384 11.7778 1.36718 11.4711 1.36718 11.0942V8.53964C1.36718 8.16271 1.67384 7.85605 2.05078 7.85605C2.42771 7.85605 2.73437 8.16271 2.73437 8.53964V11.0942ZM22.3291 6.83592L20.1997 8.96538C19.9327 9.23233 19.9327 9.66518 20.1997 9.93219C20.3332 10.0656 20.5081 10.1324 20.683 10.1324C20.858 10.1324 21.033 10.0656 21.1664 9.93219L24.2627 6.83592H28.2849L18.1838 16.937V6.83592H22.3291ZM13.6718 4.10155H21.3281V5.46874H13.6718V4.10155ZM13.8962 16.0371C13.6293 15.7703 13.1965 15.7702 12.9294 16.0371L8.68026 20.2862H8.24214L6.128 18.1721L16.8166 7.48342V20.2862H10.6138L13.8962 17.0038C14.1631 16.7369 14.1632 16.304 13.8962 16.0371ZM5.75113 6.83592H15.5306L5.75113 16.6154V6.83592ZM10.197 32.4023C10.197 33.0807 9.64501 33.6327 8.96655 33.6327C8.28808 33.6327 7.73608 33.0807 7.73608 32.4023V30.2831H7.80191H10.197V32.4023ZM27.2812 32.4023C27.2812 33.0807 26.7292 33.6327 26.0508 33.6327C25.3723 33.6327 24.8203 33.0807 24.8203 32.4023V30.2831H27.2042H27.2812V32.4023ZM29.255 26.8652C29.255 27.996 28.335 28.916 27.2042 28.916H7.80191C6.67111 28.916 5.75113 27.996 5.75113 26.8652V19.7288L7.47563 21.4532C7.6038 21.5814 7.77771 21.6535 7.959 21.6535H27.0409C27.2222 21.6535 27.3961 21.5814 27.5243 21.4532L29.255 19.7225V26.8652ZM29.255 17.789L26.7578 20.2862H18.1838V18.8705L29.255 7.79938V17.789ZM33.6328 11.0942C33.6328 11.4711 33.3261 11.7778 32.9492 11.7778C32.5722 11.7778 32.2656 11.4711 32.2656 11.0942V8.53964C32.2656 8.16271 32.5722 7.85605 32.9492 7.85605C33.3261 7.85605 33.6328 8.16271 33.6328 8.53964V11.0942Z" fill="#00834E"/>
<path d="M9.5733 23.2339C8.4425 23.2339 7.52252 24.1539 7.52252 25.2847C7.52252 26.4155 8.4425 27.3354 9.5733 27.3354C10.7041 27.3354 11.6241 26.4155 11.6241 25.2847C11.6241 24.1539 10.7041 23.2339 9.5733 23.2339ZM9.5733 25.9683C9.19637 25.9683 8.88971 25.6616 8.88971 25.2847C8.88971 24.9077 9.19637 24.6011 9.5733 24.6011C9.95024 24.6011 10.2569 24.9077 10.2569 25.2847C10.2569 25.6616 9.95024 25.9683 9.5733 25.9683Z" fill="#00834E"/>
<path d="M25.4266 23.2339C24.2958 23.2339 23.3759 24.1539 23.3759 25.2847C23.3759 26.4155 24.2958 27.3354 25.4266 27.3354C26.5574 27.3354 27.4774 26.4155 27.4774 25.2847C27.4774 24.1539 26.5574 23.2339 25.4266 23.2339ZM25.4266 25.9683C25.0497 25.9683 24.743 25.6616 24.743 25.2847C24.743 24.9077 25.0497 24.6011 25.4266 24.6011C25.8036 24.6011 26.1102 24.9077 26.1102 25.2847C26.1102 25.6616 25.8036 25.9683 25.4266 25.9683Z" fill="#00834E"/>
<path d="M21.0603 23.2339H13.9509C13.5734 23.2339 13.2674 23.54 13.2674 23.9175V26.6518C13.2674 27.0293 13.5734 27.3354 13.9509 27.3354H21.0603C21.4378 27.3354 21.7439 27.0293 21.7439 26.6518V23.9175C21.7439 23.5399 21.4378 23.2339 21.0603 23.2339ZM20.3767 25.9683H14.6345V24.6011H20.3767V25.9683Z" fill="#00834E"/>
</svg>
