<svg width="30" height="24" viewBox="0 0 30 24" fill="none" xmlns="http://www.w3.org/2000/svg">
<path d="M28.7698 8.54259L28.2013 8.01252C28.2013 8.00484 28.1936 7.99715 28.1859 7.98947L25.8966 1.80531C25.4895 0.722125 24.4524 0 23.2924 0H7.08297C5.92296 0 4.88587 0.722125 4.47871 1.80531L2.21247 7.92033L1.35206 8.63478C0.499342 9.34922 0.00768218 10.4017 0 11.5156V20.4269C0 21.9557 1.27524 23.2002 2.804 23.2002H4.47871C5.99979 23.2002 7.22125 21.9634 7.22125 20.45C7.22125 20.4423 7.22125 20.4346 7.22125 20.4346V19.2823H22.7393V20.4269C22.7239 21.948 23.9454 23.1848 25.4664 23.2002C25.4741 23.2002 25.4818 23.2002 25.4818 23.2002H27.1565C28.6853 23.2002 29.9605 21.9557 29.9605 20.4269V11.2928C29.9605 10.248 29.5303 9.25703 28.7698 8.54259ZM5.92296 2.3277C6.10734 1.84372 6.56827 1.52875 7.08297 1.53644H23.2847C23.7994 1.52875 24.2603 1.84372 24.4447 2.3277L26.3576 7.45172H25.1822C24.8135 5.37753 22.9774 3.74122 20.7649 3.74122C18.5525 3.74122 16.7241 5.37753 16.3631 7.45172H4.01778L5.92296 2.3277ZM23.615 7.45172H17.9302C18.3527 5.88455 19.9737 4.95501 21.5408 5.37753C22.5549 5.65409 23.3462 6.43767 23.615 7.45172ZM5.6925 20.4269C5.70786 21.0953 5.17779 21.6484 4.50944 21.6638C4.50176 21.6638 4.49408 21.6638 4.4864 21.6638H2.81168C2.12796 21.6638 1.54412 21.1106 1.54412 20.4269V18.998C1.94359 19.1901 2.37379 19.2823 2.81168 19.2823H5.6925V20.4269ZM28.4318 20.4269C28.4318 21.1106 27.8479 21.6638 27.1642 21.6638H25.4895C24.8211 21.6638 24.2834 21.1183 24.2834 20.45C24.2834 20.4423 24.2834 20.4346 24.2834 20.4269V19.2823H27.1642C27.6021 19.2823 28.04 19.1901 28.4318 18.998V20.4269ZM27.1642 17.7458H2.81168C2.12796 17.7458 1.54412 17.2004 1.54412 16.5167V11.5233C1.5518 10.8549 1.84372 10.225 2.35075 9.79479L3.29566 8.98816H27.0259L27.7173 9.64114C28.1706 10.0713 28.4318 10.6629 28.4318 11.2851V16.5167C28.4318 17.2004 27.8479 17.7458 27.1642 17.7458Z" fill="#00834E"/>
<path d="M8.5349 11.293H3.77194C3.34942 11.293 3.00372 11.6387 3.00372 12.0612V15.3645C3.00372 15.787 3.34942 16.1327 3.77194 16.1327H8.5349C8.95742 16.1327 9.30311 15.787 9.30311 15.3645V12.0612C9.30311 11.6387 8.95742 11.293 8.5349 11.293ZM7.76668 14.5963H4.54016V12.8294H7.76668V14.5963Z" fill="#00834E"/>
<path d="M26.2039 11.293H21.441C21.0185 11.293 20.6728 11.6387 20.6728 12.0612V15.3645C20.6728 15.787 21.0185 16.1327 21.441 16.1327H26.2039C26.6265 16.1327 26.9722 15.787 26.9722 15.3645V12.0612C26.9722 11.6387 26.6265 11.293 26.2039 11.293ZM25.4357 14.5963H22.2092V12.8294H25.4357V14.5963Z" fill="#00834E"/>
<path d="M18.0455 13.9048H11.9228C11.5002 13.9048 11.1545 14.2505 11.1545 14.673C11.1545 15.0955 11.5002 15.4412 11.9228 15.4412H18.0455C18.468 15.4412 18.8137 15.0955 18.8137 14.673C18.8137 14.2505 18.4757 13.9048 18.0455 13.9048Z" fill="#00834E"/>
<path d="M18.0455 11.9844H11.9228C11.5002 11.9844 11.1545 12.3301 11.1545 12.7526C11.1545 13.1751 11.5002 13.5208 11.9228 13.5208H18.0455C18.468 13.5208 18.8137 13.1751 18.8137 12.7526C18.8137 12.3301 18.4757 11.9844 18.0455 11.9844Z" fill="#00834E"/>
</svg>
