<svg width="14" height="16" viewBox="0 0 14 16" fill="none" xmlns="http://www.w3.org/2000/svg">
<g clip-path="url(#clip0)">
<path d="M10.1675 0.894737H3.83243C1.77884 0.894737 0.108093 2.61721 0.108093 4.73438V11.2656C0.108093 13.3828 1.77884 15.1053 3.83243 15.1053H10.1675C12.2211 15.1053 13.8919 13.3828 13.8919 11.2656V4.73438C13.8919 2.61721 12.2211 0.894737 10.1675 0.894737ZM12.7783 11.2656C12.7783 12.7498 11.6071 13.9572 10.1675 13.9572H3.83243C2.39286 13.9572 1.22167 12.7498 1.22167 11.2656V4.73438C1.22167 3.25024 2.39284 2.04279 3.83243 2.04279H10.1675C11.6071 2.04279 12.7783 3.25022 12.7783 4.73438V11.2656Z" fill="white"/>
<path d="M10.0848 7.50432C9.98682 6.82302 9.68533 6.20553 9.21293 5.71851C8.74054 5.23153 8.1416 4.92067 7.48078 4.81967C7.17991 4.77368 6.87486 4.77368 6.57401 4.81967C5.75732 4.94454 5.03672 5.38979 4.54489 6.07342C4.05306 6.75705 3.84886 7.59725 3.96998 8.43916C4.0911 9.28111 4.52297 10.024 5.18608 10.5311C5.7244 10.9427 6.36271 11.1589 7.02085 11.1589C7.17342 11.1589 7.32709 11.1473 7.48075 11.1238C8.29744 10.9989 9.01805 10.5537 9.50988 9.87004C10.0017 9.18644 10.2059 8.34627 10.0848 7.50432ZM7.31742 9.98814C6.79501 10.0681 6.27368 9.93338 5.84948 9.60901C5.42527 9.28464 5.14901 8.80936 5.07155 8.27078C4.99407 7.73219 5.12467 7.19472 5.4393 6.75738C5.75396 6.32005 6.21493 6.03523 6.73737 5.95535C6.83359 5.94064 6.93048 5.93328 7.02737 5.93328C7.12426 5.93328 7.22118 5.94064 7.31739 5.95538C8.1851 6.08802 8.85456 6.77817 8.98324 7.67277C9.14315 8.78458 8.39589 9.82328 7.31742 9.98814Z" fill="white"/>
<path d="M10.878 4.00192C10.7743 3.89503 10.6308 3.83378 10.4843 3.83378C10.3378 3.83378 10.1943 3.89501 10.0906 4.00192C9.98691 4.10883 9.92749 4.25654 9.92749 4.40783C9.92749 4.55913 9.98691 4.70684 10.0906 4.81375C10.1943 4.92063 10.3378 4.98189 10.4843 4.98189C10.6308 4.98189 10.7743 4.92066 10.878 4.81375C10.9817 4.70684 11.0411 4.55888 11.0411 4.40783C11.0411 4.25676 10.9817 4.1088 10.878 4.00192Z" fill="white"/>
</g>
<defs>
<clipPath id="clip0">
<rect width="13.7838" height="14.2105" fill="white" transform="translate(0.108093 0.894737)"/>
</clipPath>
</defs>
</svg>
