<svg width="42" height="42" viewBox="0 0 42 42" fill="none" xmlns="http://www.w3.org/2000/svg">
<path d="M10.8791 35.9478C10.2906 35.9478 9.81207 35.4691 9.81207 34.8808V27.8628H31.5607V34.8808C31.5607 35.4691 31.0817 35.9478 30.4934 35.9478H23.6835C22.6921 35.9478 22.6905 37.4919 23.6835 37.4919H24.8101V39.1228C24.8101 39.9743 25.503 40.6669 26.3542 40.6669H28.8875C29.739 40.6669 30.4316 39.9743 30.4316 39.1228V37.4919H30.4934C31.9332 37.4919 33.1048 36.3206 33.1048 34.8808V27.0906C33.1048 26.9091 32.8529 25.1182 32.8173 25.1182H33.887C34.7383 25.1182 35.4311 24.4254 35.4311 23.5741V19.2744C35.4311 18.423 34.7383 17.7306 33.887 17.7306H31.7082L31.3167 15.1235C31.2744 13.0115 29.5443 11.3057 27.4222 11.3057H26.9421C26.9803 11.2062 27.0171 11.1062 27.0514 11.005C28.024 8.14659 27.0646 4.60297 24.8207 2.76207C22.4309 0.801966 18.9623 0.801966 16.5725 2.76207C14.3809 4.55995 13.3994 7.87502 14.2389 10.6448C14.3067 10.869 14.3855 11.0889 14.4722 11.3057H13.9503C11.8118 11.3057 10.0709 13.0372 10.0546 15.1716L9.66907 17.7306H7.52704C6.6758 17.7306 5.98294 18.423 5.98294 19.2744V23.5741C5.98294 24.4254 6.6758 25.1182 7.52704 25.1182H8.55636C8.51526 25.1182 8.26773 26.9137 8.26773 27.0906V34.8805C8.26773 36.3203 9.43932 37.4919 10.8791 37.4919H10.9613V39.1228C10.9613 39.9743 11.6542 40.6669 12.5054 40.6669H15.0389C15.8902 40.6669 16.583 39.9743 16.583 39.1228V37.4919H17.391C18.3821 37.4919 18.3836 35.9478 17.391 35.9478H10.8791ZM15.0394 37.4919L15.0401 39.1228C15.0401 39.1228 15.0397 39.1228 15.0392 39.1228H12.5059V37.4919H15.0394ZM28.8885 39.1228C28.8885 39.1228 28.8882 39.1228 28.8873 39.1228H26.3542V37.4919H28.8875L28.8885 39.1228ZM27.4222 12.8498C28.4535 12.8498 29.3321 13.5169 29.6489 14.4427H24.9887C25.4213 13.9421 25.8219 13.4121 26.1694 12.8498H27.4222ZM17.5518 3.95601C18.4629 3.2086 19.5799 2.83489 20.6965 2.83489C21.8133 2.83489 22.9303 3.2086 23.8414 3.95601C25.585 5.3862 26.3528 8.26411 25.5898 10.5076C24.7796 12.8894 22.6585 14.7311 20.6974 16.3525C18.6222 14.6241 16.4429 12.5938 15.7167 10.1968C15.0613 8.03484 15.8503 5.35159 17.5518 3.95601ZM13.9505 12.8498H15.2653C15.6148 13.4052 16.0161 13.9356 16.4528 14.4427H11.7239C12.0404 13.5169 12.9188 12.8498 13.9505 12.8498ZM8.78876 23.5741H7.52704V19.2747H9.43644L8.78876 23.5741ZM9.93704 26.3189L10.2168 24.4614V24.4612L10.8421 20.309L11.4932 15.9868H17.9421C18.6318 16.6364 19.3518 17.2466 20.0514 17.8229C20.4956 18.1882 20.8933 18.193 21.3422 17.8224C22.0252 17.2595 22.7623 16.6515 23.4806 15.9868H29.8849L30.2797 18.6167V18.6171L31.1572 24.4609L31.4359 26.3189H9.93704ZM33.887 23.5741H32.5854L31.9397 19.2747H33.887L33.888 23.5741C33.888 23.5741 33.8875 23.5741 33.887 23.5741Z" fill="#00834E"/>
<path d="M20.6967 11.8652C22.8092 11.8652 24.5277 10.1464 24.5277 8.03393C24.5277 5.92121 22.8092 4.20264 20.6967 4.20264C18.584 4.20264 16.8654 5.92121 16.8654 8.03393C16.8654 10.1464 18.584 11.8652 20.6967 11.8652ZM20.6967 5.74674C21.9579 5.74674 22.9836 6.77269 22.9836 8.03393C22.9836 9.29516 21.9579 10.3211 20.6967 10.3211C19.4357 10.3211 18.4095 9.29516 18.4095 8.03393C18.4095 6.77269 19.4352 5.74674 20.6967 5.74674Z" fill="#00834E"/>
<path d="M20.5347 20.0851C20.2336 19.7835 19.7445 19.7835 19.4432 20.0851L16.4189 23.1091C15.7251 23.803 16.8118 24.8998 17.5109 24.2012L20.5347 21.1769C20.8363 20.8755 20.8363 20.3865 20.5347 20.0851C20.8363 20.3865 20.2331 19.7835 20.5347 20.0851Z" fill="#00834E"/>
<path d="M23.7287 20.0849L20.7049 23.1089C20.0108 23.8027 21.0978 24.8996 21.7969 24.2009L24.8207 21.1767C25.5249 20.4725 24.4333 19.3807 23.7287 20.0849Z" fill="#00834E"/>
<path d="M11.1505 31.9086C11.1505 33.3544 12.3264 34.5305 13.7724 34.5305C15.2182 34.5305 16.3946 33.3544 16.3946 31.9086C16.3946 30.4625 15.2182 29.2861 13.7724 29.2861C12.3264 29.2861 11.1505 30.4625 11.1505 31.9086ZM14.8505 31.9086C14.8505 32.5026 14.3667 32.9864 13.7724 32.9864C13.1781 32.9864 12.6945 32.5026 12.6945 31.9086C12.6945 31.314 13.1781 30.8302 13.7724 30.8302C14.3667 30.8302 14.8505 31.314 14.8505 31.9086Z" fill="#00834E"/>
<path d="M27.6208 34.5305C29.0666 34.5305 30.2427 33.3544 30.2427 31.9086C30.2427 30.4625 29.0666 29.2861 27.6208 29.2861C26.175 29.2861 24.9986 30.4625 24.9986 31.9086C24.9986 33.3544 26.175 34.5305 27.6208 34.5305ZM27.6208 30.8302C28.2151 30.8302 28.6986 31.314 28.6986 31.9086C28.6986 32.5026 28.2151 32.9864 27.6208 32.9864C27.0262 32.9864 26.5427 32.5026 26.5427 31.9086C26.5427 31.314 27.0262 30.8302 27.6208 30.8302Z" fill="#00834E"/>
<path d="M18.144 29.8574C17.7174 29.8574 17.3718 30.203 17.3718 30.6294V33.1872C17.3718 34.1785 18.9159 34.1799 18.9159 33.1872V30.6294C18.9159 30.203 18.57 29.8574 18.144 29.8574Z" fill="#00834E"/>
<path d="M20.7109 29.8574C20.2845 29.8574 19.9387 30.203 19.9387 30.6294V33.1872C19.9387 34.1785 21.4828 34.1799 21.4828 33.1872V30.6294C21.4828 30.203 21.1372 29.8574 20.7109 29.8574Z" fill="#00834E"/>
<path d="M24.05 33.1869V30.6291C24.05 29.638 22.5059 29.6366 22.5059 30.6291V33.1869C22.5059 34.1782 24.05 34.1797 24.05 33.1869Z" fill="#00834E"/>
<path d="M20.5177 35.9077C20.0978 35.9077 19.7457 36.2593 19.7457 36.6797C19.746 37.099 20.0983 37.4519 20.5177 37.4519C20.9252 37.4519 21.2701 37.1195 21.2881 36.7133C21.3074 36.2807 20.9514 35.9077 20.5177 35.9077Z" fill="#00834E"/>
</svg>
