<svg width="34" height="34" viewBox="0 0 34 34" fill="none" xmlns="http://www.w3.org/2000/svg">
<g clip-path="url(#clip0)">
<path d="M33.9255 33.0296L28.3709 22.3374L29.3795 21.4936C29.5305 21.3672 29.6176 21.1807 29.6176 20.9841V4.94727C29.6176 2.21942 27.3982 0 24.6703 0H9.33051C6.60266 0 4.38324 2.21942 4.38324 4.94727V7.23828C4.38324 7.60481 4.68077 7.90234 5.0473 7.90234C5.41409 7.90234 5.71136 7.60481 5.71136 7.23828V4.94727C5.71136 2.95171 7.33495 1.32812 9.33051 1.32812H24.6703C26.6659 1.32812 28.2895 2.95171 28.2895 4.94727V20.6739L23.0776 25.0349H21.184V24.072C21.184 23.7055 20.8867 23.4079 20.52 23.4079C20.1532 23.4079 19.8559 23.7055 19.8559 24.072V25.0349H17.8388V24.072C17.8388 23.7055 17.5415 23.4079 17.175 23.4079C16.8082 23.4079 16.5109 23.7055 16.5109 24.072V25.0349H14.4939V24.072C14.4939 23.7055 14.1966 23.4079 13.8298 23.4079C13.4633 23.4079 13.1657 23.7055 13.1657 24.072V25.0349H10.9232L5.71136 20.6739V13.4805C5.71136 13.1137 5.41409 12.8164 5.0473 12.8164C4.68077 12.8164 4.38324 13.1137 4.38324 13.4805V20.9844C4.38324 21.181 4.4704 21.3675 4.62137 21.4936L5.62991 22.3374L0.0753939 33.0296C-0.0937345 33.3549 0.0331118 33.7559 0.358399 33.925C0.456452 33.9759 0.56099 33.9997 0.663971 33.9997C0.903916 33.9997 1.13582 33.8695 1.25385 33.6418L6.67296 23.2103L7.59071 23.9781L4.09531 33.0981C3.96405 33.4405 4.13525 33.8244 4.47766 33.9559C4.556 33.9857 4.63615 34 4.71527 34C4.98219 34 5.23407 33.8376 5.33549 33.5733L6.03743 31.7419H22.9106C23.2771 31.7419 23.5746 31.4447 23.5746 31.0779C23.5746 30.7111 23.2771 30.4138 22.9106 30.4138H6.54637L7.05791 29.0795C7.08618 29.0831 7.11446 29.0857 7.14377 29.0857H26.834C26.8708 29.0857 26.9066 29.082 26.9417 29.0763L28.6654 33.5733C28.7668 33.8376 29.0184 34 29.2856 34C29.3647 34 29.4449 33.9857 29.5232 33.9559C29.8656 33.8244 30.0368 33.4405 29.9055 33.0981L26.4101 23.9781L27.3279 23.2103L32.747 33.6418C32.8653 33.8695 33.0969 33.9997 33.3369 33.9997C33.4399 33.9997 33.5447 33.9759 33.6425 33.925C33.9677 33.7559 34.0946 33.3551 33.9255 33.0296ZM26.4363 27.7576H7.56451L8.66774 24.8793L10.256 26.2084C10.3754 26.3083 10.5263 26.363 10.6822 26.363H23.3189C23.4748 26.363 23.6255 26.3083 23.7448 26.2084L25.3331 24.8793L26.4363 27.7576Z" fill="#00834E"/>
<path d="M25.6328 30.4136C25.458 30.4136 25.2868 30.4846 25.1633 30.6081C25.0398 30.7319 24.9688 30.9031 24.9688 31.0776C24.9688 31.2525 25.0396 31.4237 25.1633 31.5471C25.2868 31.6706 25.458 31.7417 25.6328 31.7417C25.8074 31.7417 25.9786 31.6706 26.1021 31.5471C26.2258 31.4237 26.2969 31.2525 26.2969 31.0776C26.2969 30.9031 26.2258 30.7319 26.1021 30.6081C25.9786 30.4846 25.8074 30.4136 25.6328 30.4136Z" fill="#00834E"/>
<path d="M26.4297 6.77344C26.4297 5.67488 25.5361 4.78125 24.4375 4.78125H9.5625C8.4642 4.78125 7.57031 5.67488 7.57031 6.77344V12.6172C7.57031 13.7157 8.4642 14.6094 9.5625 14.6094H24.4375C25.5361 14.6094 26.4297 13.7157 26.4297 12.6172V6.77344ZM8.89844 12.6172V6.77344C8.89844 6.40717 9.19649 6.10938 9.5625 6.10938H16.3359V13.2812H9.5625C9.19649 13.2812 8.89844 12.9832 8.89844 12.6172ZM25.1016 12.6172C25.1016 12.9832 24.8035 13.2812 24.4375 13.2812H17.6641V6.10938H24.4375C24.8035 6.10938 25.1016 6.40717 25.1016 6.77344V12.6172Z" fill="#00834E"/>
<path d="M9.80608 20.8516C11.0509 20.8516 12.0639 19.8386 12.0639 18.5938C12.0639 17.3486 11.0509 16.3359 9.80608 16.3359C8.56122 16.3359 7.54826 17.3486 7.54826 18.5938C7.54826 19.8386 8.56122 20.8516 9.80608 20.8516ZM9.80608 17.6641C10.3186 17.6641 10.7358 18.0809 10.7358 18.5938C10.7358 19.1063 10.3186 19.5234 9.80608 19.5234C9.2935 19.5234 8.87639 19.1063 8.87639 18.5938C8.87639 18.0809 9.2935 17.6641 9.80608 17.6641Z" fill="#00834E"/>
<path d="M24.1719 16.3359C22.9268 16.3359 21.9141 17.3486 21.9141 18.5938C21.9141 19.8386 22.9268 20.8516 24.1719 20.8516C25.4167 20.8516 26.4297 19.8386 26.4297 18.5938C26.4297 17.3486 25.4167 16.3359 24.1719 16.3359ZM24.1719 19.5234C23.659 19.5234 23.2422 19.1063 23.2422 18.5938C23.2422 18.0809 23.659 17.6641 24.1719 17.6641C24.6844 17.6641 25.1016 18.0809 25.1016 18.5938C25.1016 19.1063 24.6844 19.5234 24.1719 19.5234Z" fill="#00834E"/>
<path d="M20.5195 16.3442H13.8294C13.4628 16.3442 13.1653 16.6415 13.1653 17.0083C13.1653 17.3751 13.4628 17.6724 13.8294 17.6724H20.5195C20.8863 17.6724 21.1836 17.3751 21.1836 17.0083C21.1836 16.6415 20.8863 16.3442 20.5195 16.3442Z" fill="#00834E"/>
<path d="M20.5195 19.5234H13.8294C13.4628 19.5234 13.1653 19.8207 13.1653 20.1875C13.1653 20.554 13.4628 20.8516 13.8294 20.8516H20.5195C20.8863 20.8516 21.1836 20.554 21.1836 20.1875C21.1836 19.8207 20.8863 19.5234 20.5195 19.5234Z" fill="#00834E"/>
<path d="M5.04688 10.9126C5.22171 10.9126 5.39291 10.8423 5.51639 10.718C5.63986 10.5946 5.71094 10.4239 5.71094 10.2485C5.71094 10.074 5.63986 9.90276 5.51639 9.77928C5.39291 9.65555 5.22171 9.58447 5.04688 9.58447C4.8723 9.58447 4.7011 9.65555 4.57736 9.77928C4.45389 9.90276 4.38281 10.074 4.38281 10.2485C4.38281 10.4239 4.45389 10.5946 4.57736 10.718C4.7011 10.8423 4.8723 10.9126 5.04688 10.9126Z" fill="#00834E"/>
</g>
<defs>
<clipPath id="clip0">
<rect width="34" height="34" fill="white"/>
</clipPath>
</defs>
</svg>
