<svg width="16" height="9" viewBox="0 0 16 9" fill="none" xmlns="http://www.w3.org/2000/svg">
<path d="M15.621 8.05518C15.6023 8.01603 15.5849 7.98356 15.5688 7.95755C15.3015 7.48883 14.7907 6.91351 14.0368 6.23143L14.0208 6.21581L14.0129 6.20815L14.0048 6.2003H13.9967C13.6545 5.88269 13.4378 5.66913 13.3471 5.5598C13.1811 5.35152 13.1439 5.1407 13.2346 4.92709C13.2987 4.7657 13.5395 4.42486 13.9565 3.90412C14.1758 3.62814 14.3495 3.40695 14.4778 3.24031C15.403 2.04273 15.8041 1.27746 15.681 0.944203L15.6332 0.866325C15.6011 0.81944 15.5182 0.776548 15.3847 0.737431C15.2509 0.698396 15.0798 0.691941 14.8712 0.717955L12.5612 0.733492C12.5238 0.720581 12.4704 0.721784 12.4008 0.737431C12.3312 0.753078 12.2965 0.760929 12.2965 0.760929L12.2563 0.780487L12.2243 0.803984C12.1976 0.819521 12.1682 0.846849 12.1361 0.885911C12.1041 0.924836 12.0774 0.970518 12.0561 1.02257C11.8046 1.65257 11.5186 2.23831 11.1977 2.77977C10.9998 3.10263 10.8181 3.38244 10.6522 3.61936C10.4865 3.85619 10.3474 4.03068 10.2352 4.14254C10.1228 4.2545 10.0214 4.34419 9.93035 4.41195C9.83941 4.47974 9.76999 4.50838 9.72192 4.4979C9.67374 4.48742 9.62837 4.47703 9.58541 4.46663C9.5106 4.41975 9.45042 4.35598 9.40505 4.27529C9.35948 4.19459 9.3288 4.09303 9.31276 3.97067C9.29681 3.84823 9.28737 3.74292 9.28467 3.65437C9.28217 3.56593 9.28332 3.44084 9.28874 3.27945C9.29431 3.11798 9.29681 3.00872 9.29681 2.95144C9.29681 2.75356 9.30077 2.5388 9.30872 2.30711C9.31681 2.07542 9.32335 1.89184 9.32883 1.7566C9.33428 1.62122 9.33681 1.478 9.33681 1.327C9.33681 1.176 9.32737 1.05759 9.30872 0.971639C9.29029 0.885801 9.262 0.80248 9.22472 0.721702C9.18721 0.641007 9.13232 0.578584 9.06029 0.53427C8.98811 0.49001 8.89838 0.454887 8.7916 0.428791C8.50816 0.366341 8.14724 0.332558 7.70867 0.327306C6.71412 0.316911 6.07508 0.379443 5.79167 0.51482C5.67938 0.572019 5.57776 0.65017 5.48691 0.749029C5.39063 0.863617 5.3772 0.926149 5.4467 0.936435C5.76759 0.983238 5.99476 1.0952 6.12846 1.27221L6.17664 1.36601C6.21411 1.43368 6.25153 1.5535 6.28898 1.72528C6.32638 1.89707 6.35051 2.0871 6.36113 2.29527C6.38782 2.67541 6.38782 3.00082 6.36113 3.27152C6.33435 3.54233 6.30907 3.75315 6.28494 3.90414C6.2608 4.05514 6.22473 4.1775 6.17664 4.27119C6.12845 4.3649 6.0964 4.42218 6.08033 4.44297C6.06429 4.46376 6.05092 4.47686 6.0403 4.48201C5.97079 4.50794 5.89851 4.52115 5.82369 4.52115C5.74877 4.52115 5.65791 4.48466 5.55099 4.41173C5.44409 4.33881 5.33315 4.23863 5.21816 4.11105C5.10318 3.98344 4.97349 3.80512 4.82906 3.57605C4.68475 3.34699 4.53501 3.07626 4.37993 2.76387L4.25163 2.53732C4.17142 2.39158 4.06185 2.17936 3.92282 1.90087C3.7837 1.62226 3.66073 1.35277 3.55384 1.09244C3.5111 0.983101 3.44691 0.899862 3.36137 0.842582L3.32122 0.819084C3.29453 0.798294 3.25169 0.776219 3.19292 0.752695C3.13406 0.729197 3.07265 0.712347 3.00842 0.701979L0.810682 0.717517C0.586101 0.717517 0.43372 0.767056 0.353485 0.865997L0.321374 0.9128C0.305332 0.938869 0.297241 0.980502 0.297241 1.03781C0.297241 1.09509 0.313283 1.16539 0.345394 1.24863C0.666224 1.98282 1.01512 2.69089 1.39208 3.37295C1.76904 4.055 2.09661 4.60442 2.3746 5.0207C2.65265 5.43728 2.93605 5.83044 3.22483 6.2C3.51361 6.5697 3.70475 6.80661 3.79828 6.9107C3.89192 7.01497 3.96546 7.09293 4.01893 7.14499L4.21949 7.33239C4.34782 7.45737 4.53627 7.60706 4.78493 7.78144C5.03364 7.95594 5.30899 8.12772 5.61111 8.29707C5.91329 8.46615 6.26482 8.60413 6.66592 8.71084C7.06695 8.81765 7.45729 8.86052 7.83697 8.83984H8.7594C8.94648 8.82411 9.08821 8.76683 9.18454 8.66797L9.21646 8.62883C9.23792 8.59775 9.25801 8.54947 9.27655 8.48451C9.29532 8.41943 9.30464 8.34773 9.30464 8.26975C9.29917 8.0459 9.31667 7.84417 9.35667 7.66456C9.39665 7.485 9.44222 7.34962 9.49318 7.25845C9.54412 7.16736 9.6016 7.0905 9.66557 7.02818C9.72968 6.96573 9.77536 6.9279 9.80216 6.91488C9.82879 6.90178 9.85006 6.89289 9.8661 6.88755C9.99443 6.84592 10.1455 6.88624 10.3194 7.00871C10.4932 7.13106 10.6563 7.28214 10.8088 7.4617C10.9612 7.64141 11.1443 7.84304 11.3581 8.06689C11.5721 8.29081 11.7592 8.45726 11.9196 8.56676L12.0799 8.66048C12.187 8.72301 12.3261 8.78029 12.4972 8.83235C12.6681 8.88437 12.8177 8.89739 12.9463 8.87138L14.9995 8.84019C15.2026 8.84019 15.3607 8.80745 15.4728 8.74249C15.5851 8.67741 15.6518 8.60571 15.6733 8.52773C15.6948 8.44966 15.6959 8.36108 15.6774 8.26206C15.6584 8.16328 15.6396 8.09421 15.621 8.05518Z" fill="white"/>
</svg>
