<svg width="800" height="434" viewBox="0 0 800 434" fill="none" xmlns="http://www.w3.org/2000/svg">
<mask id="mask0" mask-type="alpha" maskUnits="userSpaceOnUse" x="0" y="0" width="800" height="434">
<rect width="800" height="434" fill="#C4C4C4"/>
</mask>
<g mask="url(#mask0)">
<path d="M547.823 436.354H372.011V354.51H408.386L459.917 302.979L511.449 354.51H547.823V436.354Z" fill="#E6BE94"/>
<path d="M478.105 399.979H441.73V436.354H478.105V399.979Z" fill="#996459"/>
<path d="M477.347 387.854H442.487C442.069 387.854 441.73 388.193 441.73 388.611V399.979H478.105V388.611C478.105 388.193 477.765 387.854 477.347 387.854Z" fill="#4BB9EC"/>
<path d="M487.894 278.729L492.834 271.316C493.453 270.387 493.512 269.191 492.985 268.205C492.458 267.219 491.431 266.604 490.312 266.604H460C458.324 266.604 456.969 267.959 456.969 269.635V287.822C456.969 289.498 458.324 290.854 460 290.854H490.312C491.431 290.854 492.459 290.238 492.986 289.252C493.513 288.266 493.453 287.07 492.835 286.141L487.894 278.729Z" fill="#FF4F19"/>
<path d="M460 306.01C458.324 306.01 456.969 304.654 456.969 302.979V263.572C456.969 261.897 458.324 260.541 460 260.541C461.676 260.541 463.031 261.897 463.031 263.572V302.979C463.031 304.654 461.676 306.01 460 306.01Z" fill="#5C546A"/>
<path d="M472.273 316.975C472.741 315.841 473.848 315.104 475.074 315.104H532.667C533.703 315.104 534.668 315.633 535.225 316.507L556.444 349.85C557.039 350.786 557.074 351.967 556.545 352.938C556.012 353.906 554.993 354.509 553.886 354.509H508.417C507.612 354.509 506.843 354.19 506.274 353.621L472.931 320.277C472.063 319.411 471.802 318.108 472.273 316.975Z" fill="#FF4F19"/>
<path d="M447.644 316.975C447.176 315.84 446.069 315.104 444.844 315.104H387.25C386.214 315.104 385.249 315.633 384.692 316.507L363.474 349.85C362.879 350.786 362.843 351.967 363.373 352.938C363.906 353.906 364.924 354.51 366.031 354.51H411.5C412.305 354.51 413.075 354.19 413.643 353.622L446.987 320.278C447.854 319.411 448.115 318.108 447.644 316.975Z" fill="#FF4F19"/>
<path d="M511.49 357.5C510.714 357.5 509.939 357.204 509.347 356.612L460 307.265L410.654 356.612C409.469 357.796 407.551 357.796 406.367 356.612C405.183 355.428 405.183 353.509 406.367 352.325L457.857 300.835C459.041 299.651 460.959 299.651 462.144 300.835L513.633 352.325C514.818 353.509 514.818 355.428 513.633 356.612C513.041 357.203 512.266 357.5 511.49 357.5Z" fill="#E3001E"/>
<path d="M460 372.697C470.045 372.697 478.188 364.554 478.188 354.51C478.188 344.465 470.045 336.322 460 336.322C449.956 336.322 441.813 344.465 441.813 354.51C441.813 364.554 449.956 372.697 460 372.697Z" fill="#FFEBB7"/>
<path d="M460 342.385C458.324 342.385 456.969 343.74 456.969 345.416V351.479H450.906C449.231 351.479 447.875 352.834 447.875 354.51C447.875 356.185 449.231 357.541 450.906 357.541H460C461.676 357.541 463.031 356.185 463.031 354.51V345.416C463.031 343.74 461.676 342.385 460 342.385Z" fill="#5C546A"/>
<path d="M505.386 374.213C505.386 370.027 501.993 366.635 497.808 366.635C493.622 366.635 490.23 370.027 490.23 374.213C490.23 374.732 490.283 375.239 490.382 375.729H490.23V387.854H505.386V375.729H505.233C505.333 375.239 505.386 374.732 505.386 374.213Z" fill="#4BB9EC"/>
<path d="M497.891 363.604C492.041 363.604 487.281 368.363 487.281 374.213V387.854C487.281 389.529 488.637 390.885 490.312 390.885H505.469C507.144 390.885 508.5 389.529 508.5 387.854V374.213C508.5 368.363 503.74 363.604 497.891 363.604ZM497.891 369.666C500.398 369.666 502.438 371.706 502.438 374.213V375.729H493.344V374.213C493.344 371.706 495.383 369.666 497.891 369.666ZM493.344 384.822V381.791H502.438V384.822H493.344Z" fill="#7E5C62"/>
<path d="M429.688 403.01H414.532V421.197H429.688V403.01Z" fill="#4BB9EC"/>
<path d="M429.688 399.979H414.531C412.856 399.979 411.5 401.334 411.5 403.01V421.197C411.5 422.873 412.856 424.229 414.531 424.229H429.688C431.363 424.229 432.719 422.873 432.719 421.197V403.01C432.719 401.334 431.363 399.979 429.688 399.979ZM426.656 406.041V409.072H417.562V406.041H426.656ZM417.562 418.166V415.135H426.656V418.166H417.562Z" fill="#7E5C62"/>
<path d="M402.324 403.01H387.167V421.197H402.324V403.01Z" fill="#4BB9EC"/>
<path d="M402.323 399.979H387.167C385.492 399.979 384.136 401.334 384.136 403.01V421.197C384.136 422.873 385.492 424.229 387.167 424.229H402.323C403.999 424.229 405.355 422.873 405.355 421.197V403.01C405.355 401.334 403.999 399.979 402.323 399.979ZM399.292 406.041V409.072H390.198V406.041H399.292ZM390.198 418.166V415.135H399.292V418.166H390.198Z" fill="#7E5C62"/>
<path d="M532.75 403.01H517.594V421.197H532.75V403.01Z" fill="#4BB9EC"/>
<path d="M532.75 399.979H517.594C515.918 399.979 514.562 401.334 514.562 403.01V421.197C514.562 422.873 515.918 424.229 517.594 424.229H532.75C534.426 424.229 535.781 422.873 535.781 421.197V403.01C535.781 401.334 534.426 399.979 532.75 399.979ZM529.719 406.041V409.072H520.625V406.041H529.719ZM520.625 418.166V415.135H529.719V418.166H520.625Z" fill="#7E5C62"/>
<path d="M505.386 403.01H490.23V421.197H505.386V403.01Z" fill="#4BB9EC"/>
<path d="M505.386 399.979H490.23C488.554 399.979 487.198 401.334 487.198 403.01V421.197C487.198 422.873 488.554 424.229 490.23 424.229H505.386C507.061 424.229 508.417 422.873 508.417 421.197V403.01C508.417 401.334 507.061 399.979 505.386 399.979ZM502.355 406.041V409.072H493.261V406.041H502.355ZM493.261 418.166V415.135H502.355V418.166H493.261Z" fill="#7E5C62"/>
<path d="M532.584 374.213C532.584 370.027 529.192 366.635 525.006 366.635C520.821 366.635 517.428 370.027 517.428 374.213C517.428 374.732 517.482 375.239 517.581 375.729H517.428V387.854H532.584V375.729H532.432C532.531 375.239 532.584 374.732 532.584 374.213Z" fill="#4BB9EC"/>
<path d="M525.089 363.604C519.239 363.604 514.48 368.363 514.48 374.213V387.854C514.48 389.529 515.835 390.885 517.511 390.885H532.667C534.343 390.885 535.698 389.529 535.698 387.854V374.213C535.698 368.363 530.938 363.604 525.089 363.604ZM525.089 369.666C527.596 369.666 529.636 371.706 529.636 374.213V375.729H520.542V374.213C520.542 371.706 522.582 369.666 525.089 369.666ZM520.542 384.822V381.791H529.636V384.822H520.542Z" fill="#7E5C62"/>
<path d="M402.241 374.213C402.241 370.027 398.848 366.635 394.663 366.635C390.477 366.635 387.084 370.027 387.084 374.213C387.084 374.732 387.138 375.239 387.237 375.729H387.084V387.854H402.241V375.729H402.088C402.187 375.239 402.241 374.732 402.241 374.213Z" fill="#4BB9EC"/>
<path d="M394.745 363.604C388.896 363.604 384.136 368.363 384.136 374.213V387.854C384.136 389.529 385.492 390.885 387.167 390.885H402.323C403.999 390.885 405.355 389.529 405.355 387.854V374.213C405.355 368.363 400.595 363.604 394.745 363.604ZM394.745 369.666C397.252 369.666 399.292 371.706 399.292 374.213V375.729H390.198V374.213C390.198 371.706 392.238 369.666 394.745 369.666ZM390.198 384.822V381.791H399.292V384.822H390.198Z" fill="#7E5C62"/>
<path d="M429.439 374.213C429.439 370.027 426.046 366.635 421.861 366.635C417.675 366.635 414.283 370.027 414.283 374.213C414.283 374.732 414.336 375.239 414.435 375.729H414.283V387.854H429.439V375.729H429.286C429.385 375.239 429.439 374.732 429.439 374.213Z" fill="#4BB9EC"/>
<path d="M421.944 363.604C416.094 363.604 411.334 368.363 411.334 374.213V387.854C411.334 389.529 412.69 390.885 414.366 390.885H429.522C431.197 390.885 432.553 389.529 432.553 387.854V374.213C432.553 368.363 427.793 363.604 421.944 363.604ZM421.944 369.666C424.451 369.666 426.491 371.706 426.491 374.213V375.729H417.397V374.213C417.397 371.706 419.436 369.666 421.944 369.666ZM417.397 384.822V381.791H426.491V384.822H417.397Z" fill="#7E5C62"/>
<path d="M460 375.729C448.3 375.729 438.781 366.21 438.781 354.51C438.781 342.81 448.3 333.291 460 333.291C471.7 333.291 481.219 342.81 481.219 354.51C481.219 366.21 471.7 375.729 460 375.729ZM460 339.354C451.643 339.354 444.844 346.152 444.844 354.51C444.844 362.867 451.643 369.666 460 369.666C468.357 369.666 475.156 362.867 475.156 354.51C475.156 346.152 468.357 339.354 460 339.354Z" fill="#7E5C62"/>
<path d="M472.125 384.822H447.875C442.861 384.822 438.781 388.902 438.781 393.916V436.354C438.781 438.029 440.137 439.385 441.812 439.385C443.488 439.385 444.844 438.029 444.844 436.354V403.01H456.886V436.354H462.948V403.01H475.156V436.354C475.156 438.029 476.512 439.385 478.188 439.385C479.863 439.385 481.219 438.029 481.219 436.354V393.916C481.219 388.902 477.139 384.822 472.125 384.822ZM475.156 396.947H444.844V393.916C444.844 392.244 446.203 390.885 447.875 390.885H472.125C473.797 390.885 475.156 392.244 475.156 393.916V396.947Z" fill="#7E5C62"/>
<path fill-rule="evenodd" clip-rule="evenodd" d="M631.955 435.052C635.333 438.458 664.317 466.365 677.223 462.692C690.131 459.016 683.609 444.841 668.886 429.58C654.163 414.318 638.505 410.318 634.773 410.98C614.802 414.518 622.467 425.484 631.955 435.052Z" fill="#156842"/>
<path fill-rule="evenodd" clip-rule="evenodd" d="M682.108 346.054C678.86 342.575 640.408 317.839 640.408 317.839C640.408 317.839 648.675 314.987 647.166 315.281C631.337 318.342 591.211 331.26 592.743 351.197C592.976 354.212 627.892 416.182 638.284 417.699C648.677 419.211 692.331 398.302 694.997 394.5C697.661 390.698 682.108 346.054 682.108 346.054Z" fill="#473026"/>
<path fill-rule="evenodd" clip-rule="evenodd" d="M631.444 330.169C641.183 295.599 702.106 341.307 703.089 340.487C704.48 339.327 701.349 336.543 699.146 334.806C675.699 316.296 655.583 303.593 626.81 315.677C609.418 322.981 599.45 330.864 599.913 334.457C600.375 338.052 600.653 341.548 601.812 341.431C602.972 341.315 631.444 330.169 631.444 330.169Z" fill="#D47030"/>
<path fill-rule="evenodd" clip-rule="evenodd" d="M679.25 452.619C675.706 440.46 656.542 424.482 648.676 419.446C643.672 416.24 637.211 413.09 633.173 411.223C633.88 411.122 634.429 411.039 634.772 410.98C638.505 410.318 654.162 414.318 668.885 429.58C682.599 443.792 689.193 457.062 679.613 461.787C680.358 459.758 680.487 456.864 679.25 452.619Z" fill="#E6D2C0"/>
<path fill-rule="evenodd" clip-rule="evenodd" d="M645.799 425.727C646.553 425.169 646.708 424.106 646.15 423.355C645.592 422.601 644.529 422.445 643.778 423.004C643.605 423.132 641.345 425.981 639.493 428.935C638.487 430.541 637.548 432.238 637.02 433.656C635.576 437.543 635.426 440.178 635.426 440.185C635.379 441.116 636.099 441.909 637.03 441.956C637.963 442.002 638.755 441.284 638.803 440.351C638.803 440.345 638.923 438.243 640.191 434.834C640.621 433.672 641.455 432.183 642.364 430.732C644.013 428.097 645.71 425.794 645.799 425.727Z" fill="#F0811A"/>
<path fill-rule="evenodd" clip-rule="evenodd" d="M640.82 444.228C640.581 445.131 641.118 446.061 642.021 446.299C642.924 446.54 643.853 446.001 644.094 445.098C644.914 442.002 646.026 439.362 647.438 436.908C648.866 434.423 650.621 432.092 652.709 429.649C653.319 428.943 653.238 427.874 652.532 427.265C651.822 426.658 650.755 426.738 650.147 427.444C647.935 430.03 646.063 432.518 644.511 435.218C642.942 437.946 641.717 440.852 640.82 444.228Z" fill="#F0811A"/>
<path fill-rule="evenodd" clip-rule="evenodd" d="M647.042 448.37C646.959 449.3 647.649 450.123 648.582 450.205C649.511 450.286 650.333 449.6 650.416 448.667C650.521 447.486 651.903 444.524 653.53 441.645C655.123 438.831 656.873 436.218 657.801 435.569C658.566 435.033 658.752 433.979 658.215 433.215C657.679 432.449 656.626 432.266 655.861 432.802C654.502 433.751 652.378 436.798 650.586 439.971C648.755 443.207 647.188 446.709 647.042 448.37Z" fill="#F0811A"/>
<path fill-rule="evenodd" clip-rule="evenodd" d="M571.788 192.924C540.855 159.561 526.276 95.6807 566.684 60.5235C592.661 37.9206 609.638 35.7434 626.704 51.0145C721.334 62.5666 680.476 146.495 709.752 170.723C717.721 177.318 681.026 198.426 669.203 203.062C657.378 207.7 641.196 206.533 620.046 199.353C598.895 192.175 585.732 188.948 571.788 192.924Z" fill="#6D2E21"/>
<path fill-rule="evenodd" clip-rule="evenodd" d="M554.89 485.887C555.539 482.29 556.809 475.104 576.243 451.746C595.677 428.388 629.956 411.852 629.956 411.852L637.989 420.803C637.989 420.803 587.747 512.787 578.881 516.489C570.016 520.188 554.89 485.887 554.89 485.887Z" fill="#422E26"/>
<path fill-rule="evenodd" clip-rule="evenodd" d="M706.549 424.416C709.927 427.821 738.911 455.731 751.818 452.055C764.725 448.379 758.205 434.205 743.482 418.946C728.757 403.682 713.099 399.679 709.367 400.342C689.396 403.883 697.063 414.848 706.549 424.416Z" fill="#156842"/>
<path fill-rule="evenodd" clip-rule="evenodd" d="M753.845 441.982C750.303 429.821 731.137 413.848 723.273 408.807C718.266 405.603 711.806 402.452 707.767 400.584C708.477 400.486 709.023 400.403 709.366 400.342C713.099 399.679 728.757 403.682 743.482 418.946C757.193 433.156 763.788 446.425 754.208 451.152C754.953 449.121 755.081 446.23 753.845 441.982Z" fill="#E6D2C0"/>
<path fill-rule="evenodd" clip-rule="evenodd" d="M720.396 415.092C721.147 414.531 721.305 413.47 720.745 412.716C720.187 411.967 719.124 411.809 718.371 412.369C718.199 412.495 715.937 415.343 714.088 418.299C713.084 419.904 712.143 421.6 711.615 423.02C710.171 426.907 710.021 429.541 710.019 429.549C709.974 430.48 710.694 431.275 711.624 431.32C712.557 431.366 713.35 430.646 713.395 429.715C713.395 429.709 713.518 427.607 714.785 424.197C715.218 423.036 716.05 421.545 716.957 420.095C718.607 417.463 720.305 415.159 720.396 415.092Z" fill="#F0811A"/>
<path fill-rule="evenodd" clip-rule="evenodd" d="M715.415 433.591C715.177 434.495 715.715 435.422 716.618 435.662C717.521 435.903 718.448 435.365 718.687 434.461C719.509 431.365 720.62 428.726 722.031 426.271C723.459 423.789 725.216 421.456 727.305 419.015C727.914 418.305 727.833 417.238 727.127 416.628C726.417 416.019 725.35 416.1 724.743 416.808C722.532 419.391 720.659 421.884 719.107 424.582C717.537 427.309 716.313 430.216 715.415 433.591Z" fill="#F0811A"/>
<path fill-rule="evenodd" clip-rule="evenodd" d="M721.637 437.73C721.554 438.663 722.244 439.486 723.175 439.568C724.106 439.651 724.928 438.961 725.011 438.028C725.115 436.851 726.498 433.887 728.127 431.008C729.718 428.192 731.467 425.583 732.398 424.932C733.161 424.396 733.346 423.341 732.81 422.578C732.274 421.815 731.221 421.629 730.455 422.164C729.096 423.116 726.975 426.163 725.18 429.334C723.352 432.57 721.783 436.07 721.637 437.73Z" fill="#F0811A"/>
<path fill-rule="evenodd" clip-rule="evenodd" d="M623.502 484.388C624.15 480.791 629.223 468.916 648.657 445.558C668.091 422.197 700.215 404.648 700.215 404.648C707.256 403.402 712.255 417.303 706.549 424.416C691.449 443.237 658.714 507.202 651.295 510.298C642.429 514 623.502 484.388 623.502 484.388Z" fill="#513627"/>
<path fill-rule="evenodd" clip-rule="evenodd" d="M531.009 348.751C531.009 348.751 527.266 370.075 529.694 392.775C532.121 415.474 543.829 487.91 565.125 511.233C586.42 534.559 582.871 499.067 583.886 463.065C584.902 427.064 572.478 367.486 572.478 367.486L531.009 348.751Z" fill="#513627"/>
<path fill-rule="evenodd" clip-rule="evenodd" d="M562.336 347.963C562.846 358.103 585.661 447.851 612.534 483.344C639.408 518.839 657.156 524.415 656.142 483.344C655.127 442.274 623.151 354.896 623.151 354.896L562.336 347.963Z" fill="#513627"/>
<path fill-rule="evenodd" clip-rule="evenodd" d="M727.237 229.009H727.239H727.237ZM657.152 232.831L677.389 272.598L714.403 219.591C714.342 219.077 714.334 218.493 714.37 217.86C713.35 212.015 712.173 201.932 712.285 200.914C712.439 199.516 716.762 183.939 718.081 186.097C720.864 190.648 717.959 196.245 718.519 202.705C719.481 200.246 720.41 198.12 721.069 196.769C723.468 191.847 732.495 171.392 735.287 173.056C738.081 174.718 728.345 197.956 729.038 198.183C729.73 198.412 748.73 170.423 752.794 172.888C756.863 175.353 735.111 201.831 736.091 202.472C737.069 203.113 755.235 180.555 758.278 183.533C761.321 186.511 740.901 207.676 742.808 207.651C744.715 207.625 761.266 192.176 763.545 195.425C765.827 198.672 745.374 213.868 745.374 213.868C745.374 213.868 738.105 222.813 732.55 226.304C727.081 229.741 727.233 229.033 727.239 229.009C727.239 229.009 688.982 300.191 679.244 303.437C669.507 306.682 636.35 261.468 636.35 261.468L657.152 232.831Z" fill="#F8BE92"/>
<path fill-rule="evenodd" clip-rule="evenodd" d="M524.36 203.368L484.542 223.5L486.008 157.909L470.067 158.882C470.067 158.882 458.888 238.915 464.827 247.288C470.769 255.66 524.228 238.764 524.228 238.764L524.36 203.368Z" fill="#F8BE92"/>
<path fill-rule="evenodd" clip-rule="evenodd" d="M476.386 158.497L470.064 158.882C470.064 158.882 458.887 238.918 464.829 247.287C470.768 255.66 524.227 238.764 524.227 238.764L524.255 231.97C517.079 235.116 510.05 237.674 507.861 236.841C502.993 234.985 496.629 221.649 496.629 221.649C496.629 221.649 499.747 236.609 493.718 240.551C487.692 244.493 472.851 244.262 471.23 241.014C469.607 237.768 479.364 161.732 477.167 159.766C476.929 159.553 476.666 159.111 476.386 158.497Z" fill="#F7B17E"/>
<path fill-rule="evenodd" clip-rule="evenodd" d="M671.009 256.692L649.061 280.805L624.086 253.869C623.75 253.509 589.913 280.32 601.425 325.682C603.62 334.331 616.569 341.625 622.2 352.243C634.155 374.781 543.62 391.166 529.694 392.775C526.899 387.693 523.92 360.466 531.334 345.65C550.881 306.599 525.703 263.039 527.789 244.301C527.789 244.301 501.07 250.046 501.538 246.766C502.005 243.487 494.19 217.2 497.002 217.2C498.931 217.2 537.895 193.02 545.929 192.55C554.589 192.047 564.356 191.576 571.788 192.924C589.379 196.119 601.796 200.919 617.499 201.738C622.936 203.136 633.307 205.987 639.708 211.566C653.226 223.347 663.502 243.366 671.009 256.692Z" fill="#2D4191"/>
<path fill-rule="evenodd" clip-rule="evenodd" d="M571.788 192.924C573.35 193.188 576.385 193.222 577.883 193.5C587.278 195.253 594.257 197.517 606.042 199.294C609.876 199.873 613.587 201.461 617.499 201.737C617.73 202.634 617.852 203.556 617.852 204.496C617.852 213.877 605.945 221.483 591.256 221.483C576.568 221.483 564.663 213.877 564.663 204.496C564.663 200.023 567.367 195.957 571.788 192.924Z" fill="#F6AD75"/>
<path fill-rule="evenodd" clip-rule="evenodd" d="M611.526 176.262C610.352 180.012 604.963 207.895 604.963 207.895C604.963 207.895 591.374 213.986 583.407 209.066C575.441 204.144 574.736 200.864 574.736 200.864L586.454 173.449L611.526 176.262Z" fill="#F6AD75"/>
<path fill-rule="evenodd" clip-rule="evenodd" d="M622.263 58.9942C590.526 52.1571 565.881 77.9882 558.067 114.259C550.254 150.529 562.23 183.504 593.965 190.341C625.703 197.178 651.62 172.368 659.433 136.097C667.246 99.8263 653.999 65.8329 622.263 58.9942Z" fill="#F8BE92"/>
<path fill-rule="evenodd" clip-rule="evenodd" d="M630.341 120.502C627.399 120.502 624.39 124.47 623.616 129.362C622.846 134.257 624.602 138.224 627.544 138.224C630.487 138.224 633.496 134.257 634.269 129.362C635.041 124.47 633.283 120.502 630.341 120.502Z" fill="#542C25"/>
<path fill-rule="evenodd" clip-rule="evenodd" d="M581.125 105.318C578.181 105.318 575.172 109.284 574.399 114.178C573.628 119.071 575.387 123.038 578.329 123.038C581.27 123.038 584.281 119.071 585.053 114.178C585.825 109.284 584.066 105.318 581.125 105.318Z" fill="#542C25"/>
<path fill-rule="evenodd" clip-rule="evenodd" d="M606.334 126.413C606.334 127.843 591.853 136.962 591.853 136.962C589.238 141.238 602.621 149.797 605.977 145.721C601.254 145.293 596.367 142.134 594.624 137.632C597.468 135.861 606.608 130.193 606.334 126.413Z" fill="#F49C61"/>
<path fill-rule="evenodd" clip-rule="evenodd" d="M662.532 129.489C656.639 129.489 650.777 135.809 649.442 143.605C648.105 151.4 651.802 157.72 657.696 157.72C663.591 157.72 669.454 151.4 670.787 143.605C672.123 135.809 668.426 129.489 662.532 129.489Z" fill="#F8BE92"/>
<path fill-rule="evenodd" clip-rule="evenodd" d="M555.247 101.532C549.353 101.532 544.202 107.852 543.742 115.648C543.281 123.443 547.687 129.763 553.581 129.763C559.475 129.763 564.626 123.443 565.087 115.648C565.547 107.852 561.143 101.532 555.247 101.532Z" fill="#F8BE92"/>
<path fill-rule="evenodd" clip-rule="evenodd" d="M623.4 115.308C631.647 111.82 643.587 114.47 645.102 124.71C645.857 129.816 647.758 127.379 647.614 124.15C647.089 112.309 629.513 105.767 622.808 111.178C621.323 112.377 622.514 115.312 623.4 115.308Z" fill="#6D2E21"/>
<path fill-rule="evenodd" clip-rule="evenodd" d="M661.415 134.358C669.283 134.358 669.045 148.576 660.33 152.35C655.677 154.368 654.98 150.256 655.83 148.939C656.684 147.62 658.857 148.241 660.33 145.37C661.804 142.503 659.439 143.285 659.09 140.097C658.737 136.91 661.415 134.358 661.415 134.358Z" fill="#F09256"/>
<path fill-rule="evenodd" clip-rule="evenodd" d="M557.764 106.269C551.118 102.063 543.717 114.207 549.061 122.055C551.914 126.247 554.703 123.147 554.687 121.578C554.671 120.006 552.504 119.369 552.792 116.157C553.082 112.944 554.661 114.869 556.661 112.363C558.663 109.858 557.764 106.269 557.764 106.269Z" fill="#F09256"/>
<path fill-rule="evenodd" clip-rule="evenodd" d="M609.474 185.307C627.739 184.009 643.178 172.351 653.058 154.723L653.302 154.954C643.997 175.626 627.8 189.681 608.242 191.316C603.651 191.7 598.877 191.4 593.965 190.341C589.287 189.333 585.04 187.758 581.222 185.689C562.804 175.705 554.371 154.216 555.937 129.424L556.375 129.284C556.412 152.039 565.476 171.296 583.553 180.235C587.148 182.013 591.098 183.384 595.406 184.291C600.241 185.311 604.945 185.626 609.474 185.307Z" fill="#F7B17A"/>
<path fill-rule="evenodd" clip-rule="evenodd" d="M581.808 147.977C581.295 148.927 580.851 149.933 580.485 150.988C576.917 161.288 582.149 172.4 592.174 175.807C602.2 179.217 613.22 173.631 616.789 163.331C617.154 162.276 617.426 161.211 617.611 160.148L581.808 147.977Z" fill="#8E2724"/>
<path fill-rule="evenodd" clip-rule="evenodd" d="M614.22 158.993L613.062 162.22C612.599 163.509 611.162 164.19 609.868 163.725L584.693 154.692C583.402 154.229 582.721 152.794 583.185 151.5L584.165 148.777L614.22 158.993Z" fill="#FEFEFE"/>
<path fill-rule="evenodd" clip-rule="evenodd" d="M595.903 226.987C587.731 226.987 580.348 230.398 575.057 235.894C569.735 230.073 562.133 226.428 553.687 226.428C537.595 226.428 524.549 239.662 524.549 255.989C524.549 272.315 537.595 285.551 553.687 285.551C561.859 285.551 569.242 282.137 574.533 276.644C579.855 282.465 587.459 286.111 595.903 286.111C611.999 286.111 625.044 272.875 625.044 256.549C625.044 240.221 611.999 226.987 595.903 226.987Z" fill="#2D4191"/>
<path fill-rule="evenodd" clip-rule="evenodd" d="M613.093 56.064C614.858 84.3026 637.725 120.094 668.278 126.167C692.338 130.947 656.335 75.0853 650.654 69.7436C636.298 56.2411 613.093 56.064 613.093 56.064Z" fill="#6D2E21"/>
<path fill-rule="evenodd" clip-rule="evenodd" d="M626.152 59.3153C620.617 65.5469 618.994 75.2846 593.953 81.3127C568.911 87.3415 556.393 97.7751 556.393 97.7751C556.393 97.7751 557.509 76.876 579.578 62.9968C601.648 49.1159 626.152 59.3153 626.152 59.3153Z" fill="#6D2E21"/>
<path fill-rule="evenodd" clip-rule="evenodd" d="M574.238 81.2458C572.867 82.6187 564.145 92.9087 561.108 103.196C558.069 113.486 556.403 129.164 556.21 128.087C556.013 127.01 553.66 107.901 557.089 98.493C560.519 89.0868 562.676 84.971 562.676 84.971L574.238 81.2458Z" fill="#6D2E21"/>
<path fill-rule="evenodd" clip-rule="evenodd" d="M656.313 102.463C656.752 104.352 658.736 117.695 655.89 128.038C653.041 138.383 646.188 152.58 646.924 151.769C647.657 150.956 659.736 135.964 661.783 126.161C663.831 116.36 664.171 111.727 664.171 111.727L656.313 102.463Z" fill="#6D2E21"/>
<path fill-rule="evenodd" clip-rule="evenodd" d="M595.827 106.898C591.736 98.9326 580.875 93.3063 573.147 100.193C569.293 103.628 569.396 100.538 571.577 98.1517C579.573 89.4018 597.254 95.6569 598.928 104.107C599.299 105.983 596.501 107.467 595.827 106.898Z" fill="#6D2E21"/>
<path fill-rule="evenodd" clip-rule="evenodd" d="M471.084 160.554C473.095 160.933 481.64 163.439 486.456 161.108C491.267 158.777 496.753 141.414 498.132 135.508C499.506 129.603 506.061 105.654 502.431 105.366C498.798 105.076 490.902 131.952 490.132 131.716C489.362 131.479 492.49 94.4942 487.173 94.1113C481.859 93.7312 482.214 131.112 480.903 131.063C479.589 131.014 479.605 99.3982 474.825 100.12C470.045 100.844 472.997 132.648 471.341 131.416C469.684 130.184 466.085 105.926 461.782 107.373C457.479 108.821 464.685 135.33 464.685 135.33C464.685 135.33 464.736 147.908 467.144 154.542C469.55 161.175 471.084 160.554 471.084 160.554Z" fill="#F8BE92"/>
<path fill-rule="evenodd" clip-rule="evenodd" d="M469.552 134.555C469.552 134.555 467.556 138.005 470.603 146.698C471.924 150.474 473.624 153.845 475.127 156.454C477.085 159.855 478.704 161.959 478.704 161.959C475.322 161.629 472.2 160.764 471.084 160.554C471.084 160.554 470.404 160.83 469.238 159.057C468.655 158.166 467.949 156.759 467.144 154.541C464.736 147.907 464.685 135.33 464.685 135.33C464.685 135.33 457.479 108.82 461.782 107.373L462.24 107.313C462.179 110.84 462.291 117.611 463.801 122.573C465.935 129.574 469.552 134.555 469.552 134.555Z" fill="#F8BE92"/>
<path fill-rule="evenodd" clip-rule="evenodd" d="M414.771 62.1199L542.93 41.7139L557.149 131.02L428.993 151.428L414.771 62.1199Z" fill="#1770A3"/>
<path fill-rule="evenodd" clip-rule="evenodd" d="M521.614 61.4643L530.007 60.3027L537.544 114.771L529.151 115.931L521.614 61.4643Z" fill="#FEFEFE"/>
<path fill-rule="evenodd" clip-rule="evenodd" d="M483.254 161.975C484.094 161.163 485.943 162.005 487.917 159.98C493.129 154.64 500.39 144.336 501.025 143.445C501.907 142.215 509.113 125.484 506.427 126.568C499.339 129.432 498.912 139.396 489.659 144.786C479.301 150.816 475.994 160.091 483.254 161.975Z" fill="#F8BE92"/>
<path fill-rule="evenodd" clip-rule="evenodd" d="M475.126 156.454C473.624 153.845 471.924 150.474 470.602 146.698C470.38 146.069 470.188 145.468 470.017 144.894L465.319 145.641C465.682 148.795 466.25 152.078 467.144 154.541C468.248 157.588 469.169 159.104 469.843 159.854C470.407 160.483 477.412 162.516 477.485 161.816C477.664 160.092 475.126 156.454 475.126 156.454Z" fill="#F7B17E"/>
<path fill-rule="evenodd" clip-rule="evenodd" d="M640.407 318.072C643.625 317.642 646.321 309.798 672.89 323.097C699.455 336.396 726.377 364.621 724.231 369.585C724.231 369.585 707.686 391.006 692.194 395.765C684.578 398.104 641.691 348.776 636.822 336.792C631.95 324.812 640.407 318.072 640.407 318.072Z" fill="#A64927"/>
<path fill-rule="evenodd" clip-rule="evenodd" d="M640.407 318.069C643.625 317.641 646.321 309.797 672.89 323.096C699.457 336.395 726.377 364.62 724.231 369.584C724.231 369.584 719.341 375.911 712.393 382.453C712.691 379.108 713.289 375.024 714.45 370.859C717.232 360.887 684.265 329.633 665.065 326.805C647.798 324.263 640.808 334.689 638.027 339.213C637.511 338.296 637.1 337.48 636.822 336.791C631.95 324.811 640.407 318.069 640.407 318.069Z" fill="#A04327"/>
<path fill-rule="evenodd" clip-rule="evenodd" d="M543.226 193.161C543.226 193.161 550.065 253.208 572.323 290.769C587.134 315.766 636.119 319.749 655.825 344.924C655.825 344.924 671.321 336.72 668.909 333.865C635.277 294.023 572.088 316.239 560.499 211.936C559.106 199.416 560.205 197.393 560.664 192.047C554.512 189.134 548.757 189.891 543.226 193.161Z" fill="#804225"/>
<path fill-rule="evenodd" clip-rule="evenodd" d="M623.1 333.42C628.284 351.411 648.363 378.646 656.949 396.476C659.824 402.448 661.691 407.202 662.901 410.904C658.466 412.712 654.112 414.327 650.244 415.536C647.072 413.907 644.169 412.769 641.721 412.03C632.84 381.375 623.151 354.899 623.151 354.899C622.987 354.023 622.675 353.14 622.2 352.243C619.39 346.946 614.76 342.477 610.552 338.255C614.519 336.743 619.185 334.94 623.1 333.42Z" fill="#3C2B25"/>
<path fill-rule="evenodd" clip-rule="evenodd" d="M623.1 333.42C619.185 334.94 614.519 336.743 610.552 338.255C608.46 336.151 606.47 334.11 604.863 332.059C604.172 331.18 603.555 330.3 603.027 329.413C605.943 326.681 610.824 323.4 617.385 320.04C618.978 320.744 620.57 321.452 622.151 322.17C622.114 322.43 622.076 322.692 622.044 322.955C621.76 325.331 621.834 327.893 622.402 330.628C622.589 331.531 622.824 332.464 623.1 333.42Z" fill="#CC5F27"/>
<path fill-rule="evenodd" clip-rule="evenodd" d="M617.846 365.537C614.569 368.306 609.989 370.915 604.62 373.343C596.205 377.144 585.844 380.499 575.489 383.303C573.977 383.713 572.464 384.112 570.955 384.498C552.61 389.205 535.189 392.14 529.693 392.775C529.051 391.606 528.398 389.263 527.863 386.17C526.079 375.817 525.625 357.056 531.334 345.65C542.878 322.583 538.82 297.945 533.993 277.777C539.181 282.603 549.893 285.551 553.687 285.551C556.101 285.551 552.65 318.235 552.628 346.774C552.616 362.749 535.817 385.106 542.162 386.383C559.632 389.897 608.353 366.212 617.846 365.537Z" fill="#10265E"/>
<path fill-rule="evenodd" clip-rule="evenodd" d="M532.208 267.331C536.613 278.925 553.687 285.551 553.687 285.551C546.095 285.551 539.181 282.603 533.993 277.777C528.189 272.372 524.549 264.613 524.549 255.989C524.549 251.914 525.361 248.034 526.83 244.502C529.197 238.818 533.261 234.045 538.38 230.832C535.935 235.021 533.07 239.858 531.512 242.639C528.266 248.434 527.805 255.739 532.208 267.331Z" fill="#10265E"/>
<path fill-rule="evenodd" clip-rule="evenodd" d="M526.83 244.502C522.062 245.492 501.121 249.673 501.537 246.766C501.587 246.427 501.545 245.843 501.437 245.068C500.853 240.85 498.267 230.971 497.041 224.185C496.836 222.643 496.629 221.649 496.629 221.649C496.629 221.649 502.993 234.985 507.861 236.841C510.05 237.674 517.079 235.116 524.255 231.972C533.052 228.115 542.066 223.376 542.642 222.931C543.184 222.509 541.03 226.289 538.38 230.833C533.261 234.045 529.196 238.819 526.83 244.502Z" fill="#10265E"/>
<path fill-rule="evenodd" clip-rule="evenodd" d="M727.238 229.01C727.238 229.01 688.981 300.192 679.244 303.438C673.726 305.278 660.681 291.55 650.417 279.312L664.263 264.102C662.92 267.742 660.084 275.559 660.084 276.623C660.084 278.013 671.212 293.199 677.702 293.665C684.195 294.128 720.134 232.223 720.713 231.121C721.293 230.018 718.625 223.179 718.278 222.659C717.931 222.136 723.263 225.556 726.276 226.309C729.289 227.062 737.116 218.368 738.913 216.165C740.71 213.962 740.246 209.036 740.246 209.036L743.724 211.762L763.545 195.426C765.827 198.673 745.373 213.869 745.373 213.869C745.373 213.869 738.104 222.814 732.549 226.305C727.081 229.742 727.233 229.034 727.238 229.01Z" fill="#F7B17E"/>
<path fill-rule="evenodd" clip-rule="evenodd" d="M614.551 270.621C616.716 267.752 618.316 263.025 619.489 257.835C620.601 252.906 621.333 247.563 621.808 242.995C622.477 236.545 622.637 231.64 622.637 231.64C622.637 231.64 631.751 245.979 639.608 256.987C643.802 262.865 647.635 267.795 649.532 269.086C654.983 272.796 664.952 262.248 664.952 262.248C664.952 262.248 664.679 262.973 664.264 264.101L650.418 279.312L649.061 280.804L624.999 254.853C625.028 255.413 625.044 255.979 625.044 256.549C625.044 270.54 615.462 282.264 602.591 285.328C601.745 287.848 601.014 290.508 600.438 293.303C597.126 291.047 593.908 288.533 590.826 285.663C579.057 274.707 569.244 258.586 563.66 232.039C565.991 237.947 568.889 244.902 571.974 250.885C579.195 264.908 592.261 281.491 593.305 282.303C593.97 282.82 599.515 281.768 605.295 278.497C608.59 276.633 611.96 274.048 614.551 270.621Z" fill="#10265E"/>
<path fill-rule="evenodd" clip-rule="evenodd" d="M556.411 253.723C559.476 263.346 563.167 273.06 567.574 281.984C569.073 285.015 570.655 287.955 572.323 290.769C577.742 299.913 587.734 306.247 599.195 311.834C599.487 316.233 600.199 320.85 601.426 325.681C601.747 326.949 602.301 328.188 603.027 329.412C603.555 330.3 604.173 331.179 604.863 332.059C606.47 334.11 608.46 336.151 610.552 338.255C614.76 342.477 619.391 346.947 622.201 352.242C622.676 353.139 622.988 354.023 623.151 354.898C623.583 357.221 622.954 359.471 621.477 361.638C619.412 359.375 617 356.72 614.453 353.906C610.684 349.741 606.62 345.222 602.95 341.079C602.075 340.089 601.221 339.124 600.398 338.188C599.975 337.705 599.574 337.227 599.199 336.754C589.819 324.975 594.81 316.383 594.81 316.383C594.81 316.383 579.507 307.805 572.434 297.487C570.57 294.768 568.262 289.351 565.874 282.847C562.55 273.796 559.069 262.64 556.411 253.723Z" fill="#10265E"/>
<path fill-rule="evenodd" clip-rule="evenodd" d="M624.087 65.677C629.415 88.1837 640.697 107.738 658.865 122.252C637.84 112.498 623.965 88.6354 624.087 65.677Z" fill="#863424"/>
<path fill-rule="evenodd" clip-rule="evenodd" d="M635.913 62.1982C638.118 85.208 653.75 103.928 672.778 115.991C651.995 108.834 631.675 85.4702 635.913 62.1982Z" fill="#632C22"/>
<path fill-rule="evenodd" clip-rule="evenodd" d="M647.969 69.6184C653.553 75.4146 684.535 105.602 680.429 113.441C680.114 112.967 680.227 113.214 680.073 112.701L680.096 112.803C668.763 95.8838 658.925 86.9941 647.969 69.6184Z" fill="#632C22"/>
<path fill-rule="evenodd" clip-rule="evenodd" d="M676.257 122.716C679.479 132.905 689.37 161.574 696.195 170.941C683.48 166.017 677.018 133.01 676.257 122.716Z" fill="#632C22"/>
<path fill-rule="evenodd" clip-rule="evenodd" d="M669.299 160.74C674.509 168.781 679.834 175.77 685.762 183.463C679.388 179.958 665.166 165.003 669.299 160.74Z" fill="#863424"/>
<path fill-rule="evenodd" clip-rule="evenodd" d="M652.14 167.928C656.304 175.471 662.511 186.09 669.995 190.417C665.087 193.84 651.305 178.952 652.14 167.928Z" fill="#632C22"/>
<path fill-rule="evenodd" clip-rule="evenodd" d="M637.667 189.024L637.85 188.777L637.828 188.774L637.667 189.024ZM637.534 189.259C636.347 188.602 636.15 186.303 647.477 195.175C651.324 198.188 652.91 198.91 657.012 201.316C648.986 202.032 640.189 195.895 637.56 189.216L637.534 189.259Z" fill="#632C22"/>
<path fill-rule="evenodd" clip-rule="evenodd" d="M619.449 194.59C627.82 197.914 634.929 199.372 643.564 202.242C634.034 203.206 625.29 203.193 619.449 194.59Z" fill="#863424"/>
<path fill-rule="evenodd" clip-rule="evenodd" d="M640.782 180.678C649.783 184.942 653.671 188.659 661.65 193.2C652.419 194.413 646.071 187.211 640.782 180.678Z" fill="#863424"/>
<path fill-rule="evenodd" clip-rule="evenodd" d="M619.45 55.0105C613.358 75.1504 592.207 77.4239 575.05 79.2406C595.444 71.9614 605.226 72.91 619.45 55.0105Z" fill="#863424"/>
<path fill-rule="evenodd" clip-rule="evenodd" d="M605.076 53.853C592.507 61.6677 562.17 76.789 555.289 91.0333L555.34 91.1831L554.928 91.1317C548.712 78.8696 602.055 55.1169 605.076 53.853Z" fill="#632C22"/>
<path fill-rule="evenodd" clip-rule="evenodd" d="M600.44 46.665C580.741 59.722 590.763 53.5161 570.376 65.2907L570.428 65.2454C569.574 65.8055 570.039 65.5786 569.022 65.91C572.142 55.7638 592.536 49.7809 600.44 46.665Z" fill="#863424"/>
<path fill-rule="evenodd" clip-rule="evenodd" d="M616.206 52.9238C600.686 65.5861 609.071 60.8101 591.279 67.6471C606.446 56.4477 598.191 61.4468 616.206 52.9238Z" fill="#632C22"/>
<path fill-rule="evenodd" clip-rule="evenodd" d="M227.069 253.747C225.974 255.62 223.787 268.582 224.414 272.954C225.037 277.328 232.303 302.315 232.303 302.315C232.303 302.315 233.783 303.408 236.4 304.384C239.015 305.36 259.084 281.428 257.68 273.619C256.274 265.812 227.069 253.747 227.069 253.747Z" fill="#654629"/>
<path fill-rule="evenodd" clip-rule="evenodd" d="M227.256 267.924C224.805 271.704 230.153 295.263 232.303 302.315C232.644 303.434 200.461 245.005 232.61 217.239C238.242 212.376 254.142 209.996 266.661 208.917C278.386 207.906 317.006 207.588 318.333 208.213C318.571 208.325 244.689 241.018 227.256 267.924Z" fill="#8F6955"/>
<path fill-rule="evenodd" clip-rule="evenodd" d="M257.292 228.601C245.736 234.849 238.865 243.592 233.866 260.772C228.869 277.952 239.175 271.08 233.553 300.439C227.93 329.8 231.991 360.41 245.109 373.527C258.227 386.647 328.505 384.774 345.996 366.034C363.488 347.292 334.669 236.996 316.594 226.864C298.52 216.732 257.292 228.601 257.292 228.601Z" fill="#5E4432"/>
<path fill-rule="evenodd" clip-rule="evenodd" d="M271.192 221.42C259.634 227.665 252.761 236.411 247.765 253.591C242.767 270.767 253.073 263.896 247.451 293.258C241.829 322.617 242.765 354.165 255.883 367.283C269.003 380.402 331.503 379.592 348.995 360.852C366.487 342.112 348.565 229.813 330.492 219.682C312.416 209.55 271.192 221.42 271.192 221.42Z" fill="#45352A"/>
<path fill-rule="evenodd" clip-rule="evenodd" d="M228.879 219.414C206.25 217.704 215.014 220.89 181.965 210.943C183.286 211.946 147.035 189.318 121.782 141.193L109.043 152.279C131.695 194.548 154.434 220.923 185.333 238.701C194.981 244.25 204.336 244.407 214.257 248.055L228.879 219.414Z" fill="#F6AD75"/>
<path fill-rule="evenodd" clip-rule="evenodd" d="M279.319 378.441C273.166 394.021 245.82 496.863 245.82 496.863L178.661 572.85C178.661 572.85 183.367 595.933 190.916 589.328C194.927 585.818 264.156 531.48 279.83 517.301C288.983 509.019 318.849 442.355 320.837 442.134C325.083 441.663 390.772 483.507 390.772 483.507C390.772 483.507 355.106 565.949 354.665 570.149C354.225 574.351 363.77 580.222 371.792 577.863C379.811 575.503 436.432 488.843 433.6 481.294C430.768 473.745 360.942 378.441 360.942 378.441H279.319Z" fill="#513627"/>
<path fill-rule="evenodd" clip-rule="evenodd" d="M356.137 252.793C368.025 258.261 368.125 260.979 392.69 264.124C391.484 263.207 431.787 293.945 469.699 311.644L475.353 302.073C451.02 282.258 422.316 256.518 402.923 244.457C389.017 235.81 381.431 235.911 367.394 230.746L356.137 252.793Z" fill="#F6AD75"/>
<path fill-rule="evenodd" clip-rule="evenodd" d="M465.355 304.03L469.699 311.643C469.699 311.643 478.782 342.603 480.212 340.746C481.639 338.888 480.212 321.601 480.212 321.601C480.212 321.601 498.213 331.315 501.641 334.601C505.069 337.886 513.353 345.6 512.641 343.031C511.927 340.459 501.783 327.174 501.783 327.174C501.783 327.174 509.212 333.53 510.068 334.53C510.926 335.53 515.714 340.53 515.927 337.316C516.197 333.252 494.751 311.293 489.975 309.418C485.976 307.847 475.353 302.072 475.353 302.072L465.355 304.03Z" fill="#F6AD75"/>
<path fill-rule="evenodd" clip-rule="evenodd" d="M480.213 319.529C483.782 322.957 494.139 331.314 494.283 331.814C494.427 332.314 500.927 348.314 501.64 345.887C502.354 343.457 499.14 330.6 498.856 330.172C498.568 329.742 487.069 319.101 486.497 319.028C485.926 318.957 480.213 319.529 480.213 319.529Z" fill="#F6AD75"/>
<path fill-rule="evenodd" clip-rule="evenodd" d="M489.374 312.676C491.405 314.003 493.691 313.569 493.691 313.569L513.973 330.558C513.973 330.558 514.83 331.572 511.944 331.416C509.053 331.26 490.703 316.346 490.703 316.346L489.374 312.676Z" fill="#F6AD75"/>
<path fill-rule="evenodd" clip-rule="evenodd" d="M392.691 264.123C391.484 263.206 431.788 293.944 469.7 311.642L466.17 305.456L400.358 259.952L402.316 244.142C401.987 246.681 396.682 256.353 392.691 264.123Z" fill="#F49E60"/>
<path fill-rule="evenodd" clip-rule="evenodd" d="M466.17 305.457L469.7 311.643C469.7 311.643 477.82 339.318 479.912 340.767C480.106 340.754 480.212 340.746 480.212 340.746L472.928 309.667L471.421 308.728L466.17 305.457Z" fill="#F6AD75"/>
<path fill-rule="evenodd" clip-rule="evenodd" d="M190.192 213.402L183.952 258.464L250.983 270.439C250.983 270.439 258.946 379.584 259.007 407.324C259.046 424.585 353.397 412.595 379.684 393.782L351.249 264.693C351.249 264.693 388.102 279.973 387.629 276.669C387.16 273.368 405.509 242.987 402.677 242.987C400.735 242.987 346.359 209.02 338.27 208.548C329.549 208.04 319.717 207.566 312.233 208.923C294.523 212.139 281.421 219.998 266.211 217.797C255.355 214.908 223.038 216.275 190.192 213.402Z" fill="#F0811A"/>
<path fill-rule="evenodd" clip-rule="evenodd" d="M368.16 341.458L351.249 264.693C351.249 264.693 388.102 279.973 387.629 276.67C387.201 273.66 402.403 248.162 402.955 243.668L384.263 261.899L354.901 242.378L340.634 215.056L321.405 208.075C320.492 208.101 319.593 208.138 318.705 208.191L341.912 282.384C341.912 282.384 356.087 320.751 356.11 322.641C356.12 323.512 361.918 332.363 368.16 341.458Z" fill="#EC761D"/>
<path fill-rule="evenodd" clip-rule="evenodd" d="M312.233 208.926C310.66 209.189 307.605 209.225 306.097 209.505C296.637 211.268 289.611 213.548 277.747 215.338C274.47 215.834 269.936 217.533 266.211 217.797C265.98 218.701 265.858 219.627 265.858 220.574C265.858 230.02 277.846 237.677 292.634 237.677C307.42 237.677 319.408 230.02 319.408 220.574C319.408 216.072 316.684 211.978 312.233 208.926Z" fill="#F6AD75"/>
<path fill-rule="evenodd" clip-rule="evenodd" d="M272.228 192.147C273.407 195.922 278.832 223.995 278.832 223.995C278.832 223.995 292.516 230.127 300.536 225.174C308.556 220.22 309.264 216.917 309.264 216.917L297.469 189.317L272.228 192.147Z" fill="#F6AD75"/>
<path fill-rule="evenodd" clip-rule="evenodd" d="M226.737 161.851C222.559 155.472 219.853 152.275 210.397 129.625C200.944 106.975 217.435 94.4409 217.435 94.4409C217.435 94.4409 216.335 81.0273 223.812 69.1537C231.288 57.2785 234.588 54.2001 233.927 56.6178C233.268 59.0371 234.146 62.1155 234.588 60.3569C235.028 58.5977 248.881 45.8426 248.881 45.8426C248.881 45.8426 250.31 52.2202 251.08 51.451C251.849 50.6802 253.499 47.3827 273.509 41.7743C293.521 36.1682 310.013 35.3968 308.694 36.389C307.375 37.3767 301.218 42.9834 302.537 42.5457C303.856 42.1035 319.908 42.5457 327.055 41.3349C334.201 40.1258 337.5 38.5858 335.963 39.355C334.422 40.1258 328.705 54.6378 325.077 58.487C321.447 62.3346 321.338 62.2261 321.338 62.2261C321.338 62.2261 322.88 60.7962 334.643 65.8546C346.408 70.9129 350.258 76.0791 349.597 75.6397C348.938 75.1998 328.157 77.7281 328.157 77.7281C328.157 77.7281 334.643 101.699 333.545 108.735C332.444 115.772 327.83 138.259 326.404 138.592L226.737 161.851Z" fill="#6D2E21"/>
<path fill-rule="evenodd" clip-rule="evenodd" d="M261.415 74.0833C293.369 67.1993 318.181 93.2059 326.046 129.724C333.913 166.241 321.859 199.44 289.906 206.322C257.954 213.208 231.859 188.229 223.992 151.711C216.124 115.194 229.463 80.9656 261.415 74.0833Z" fill="#F8BE92"/>
<path fill-rule="evenodd" clip-rule="evenodd" d="M221.914 126.923C222.894 108.917 229.62 93.1746 241.709 83.3872C253.87 84.1704 291.647 91.0426 291.647 91.0426C291.647 91.0426 302.736 99.4773 303.673 99.4773C304.61 99.4773 302.267 100.883 293.054 101.975C283.84 103.068 257.445 99.7886 256.509 99.4773C255.572 99.1653 267.911 112.127 267.911 112.127C267.911 112.127 264.006 113.22 250.575 109.629C244.054 107.883 238.084 103.857 233.631 100.051C231.636 103.823 229.232 108.627 226.992 112.908C224.643 117.402 222.981 122.745 221.914 126.923Z" fill="#F4A063"/>
<path fill-rule="evenodd" clip-rule="evenodd" d="M224.11 85.4696C230.014 90.9002 237.745 98.2225 257.315 101.522C276.887 104.821 280.186 103.281 280.186 103.281C280.186 103.281 269.63 94.2648 272.489 95.1441C275.347 96.0234 289.861 97.1241 300.636 97.3449C311.411 97.564 310.752 96.9033 310.752 96.9033C310.752 96.9033 298.437 89.4273 301.076 89.4273C303.714 89.4273 321.306 87.4473 321.306 87.4473C321.306 87.4473 310.092 63.9177 287.662 61.7208C265.232 59.5201 224.11 85.4696 224.11 85.4696Z" fill="#6D2E21"/>
<path fill-rule="evenodd" clip-rule="evenodd" d="M248.859 133.694C251.821 133.694 254.852 137.689 255.629 142.615C256.408 147.541 254.637 151.536 251.675 151.536C248.713 151.536 245.682 147.541 244.903 142.615C244.126 137.689 245.897 133.694 248.859 133.694Z" fill="#542C25"/>
<path fill-rule="evenodd" clip-rule="evenodd" d="M299.656 121.159C302.618 121.159 305.649 125.152 306.426 130.08C307.203 135.007 305.432 139.002 302.47 139.002C299.508 139.002 296.479 135.007 295.702 130.08C294.925 125.152 296.694 121.159 299.656 121.159Z" fill="#542C25"/>
<path fill-rule="evenodd" clip-rule="evenodd" d="M273.263 139.487C273.263 141.246 291.076 152.461 291.076 152.461C294.29 157.724 277.832 168.248 273.703 163.236C279.514 162.707 285.521 158.823 287.666 153.285C284.17 151.108 272.926 144.137 273.263 139.487Z" fill="#F49C61"/>
<path fill-rule="evenodd" clip-rule="evenodd" d="M110.579 152.28C112.515 151.424 121.261 148.557 123.996 143.753C126.731 138.951 121.241 120.951 118.957 115.113C116.673 109.279 108.238 85.0423 104.977 86.9216C101.716 88.8009 110.718 116.318 109.925 116.567C109.131 116.815 90.1474 83.4805 85.3959 86.267C80.6445 89.0536 102.828 120.686 101.681 121.412C100.534 122.138 82.042 95.198 78.3946 98.6118C74.7466 102.025 95.8737 127.389 93.7422 127.31C91.6103 127.229 74.3441 108.673 71.5279 112.426C68.7117 116.174 90.3654 134.539 90.3654 134.539C90.3654 134.539 97.7709 145.222 103.703 149.462C109.636 153.706 110.579 152.28 110.579 152.28Z" fill="#F6AD75"/>
<path fill-rule="evenodd" clip-rule="evenodd" d="M94.0581 131.029C94.0581 131.029 94.3756 135.136 102.059 140.759C105.394 143.2 108.815 145.078 111.623 146.42C115.281 148.172 117.892 149.016 117.892 149.016C114.818 150.712 111.653 151.804 110.579 152.279C110.579 152.279 110.162 152.91 108.132 152.082C107.112 151.666 105.687 150.881 103.703 149.461C97.7709 145.221 90.3654 134.539 90.3654 134.539C90.3654 134.539 68.7117 116.174 71.5279 112.425L71.8856 112.104C73.8941 115.145 77.9541 120.848 82.146 124.188C88.0606 128.903 94.0581 131.029 94.0581 131.029Z" fill="#F6AD75"/>
<path fill-rule="evenodd" clip-rule="evenodd" d="M5 101.394L102.217 9L166.603 76.7459L69.3842 169.14L5 101.394Z" fill="#F0811A"/>
<path fill-rule="evenodd" clip-rule="evenodd" d="M95.6226 38.3021L102.092 32.3997L140.391 74.3817L133.923 80.2841L95.6226 38.3021Z" fill="#FEFEFE"/>
<path fill-rule="evenodd" clip-rule="evenodd" d="M121.778 146.366C122.018 145.182 124.085 144.817 124.582 141.936C125.895 134.336 126.049 121.311 126.069 120.179C126.096 118.617 122.442 100.148 120.791 102.644C116.429 109.231 121.898 117.971 117.171 127.974C111.877 139.176 114.491 149.008 121.778 146.366Z" fill="#F6AD75"/>
<path fill-rule="evenodd" clip-rule="evenodd" d="M220.173 144.24C226.106 144.24 232.009 150.604 233.354 158.452C234.696 166.301 230.977 172.664 225.041 172.664C219.106 172.664 213.206 166.301 211.861 158.452C210.516 150.604 214.237 144.24 220.173 144.24Z" fill="#F8BE92"/>
<path fill-rule="evenodd" clip-rule="evenodd" d="M328.887 116.909C334.82 116.909 340.009 123.273 340.47 131.121C340.936 138.97 336.501 145.334 330.565 145.334C324.631 145.334 319.443 138.97 318.979 131.121C318.516 123.273 322.951 116.909 328.887 116.909Z" fill="#F8BE92"/>
<path fill-rule="evenodd" clip-rule="evenodd" d="M249.964 216.056C249.964 216.056 246.207 283.889 247.455 303.881C248.706 323.871 254.147 333.26 257.27 328.263C260.394 323.265 272.969 223.362 272.003 216.691C271.036 210.021 249.808 211.528 249.964 216.056Z" fill="#7E5944"/>
<path fill-rule="evenodd" clip-rule="evenodd" d="M338.27 208.548C338.27 208.548 361.009 270.128 363.484 290.118C365.959 310.108 362.268 319.499 358.213 314.502C354.159 309.505 334.543 223.738 318.333 208.213C316.493 203.309 335.864 200.27 338.27 208.548Z" fill="#7E5944"/>
<path fill-rule="evenodd" clip-rule="evenodd" d="M260.178 126.797C254.589 127.318 240.044 129.811 236.104 131.532C232.164 133.256 231.616 126.744 235.191 125.535C238.766 124.326 252.501 121.138 257.37 120.392C262.241 119.647 261.716 127.109 260.178 126.797Z" fill="#6D2E21"/>
<path fill-rule="evenodd" clip-rule="evenodd" d="M287.696 120.786C292.721 118.288 306.4 112.749 310.656 112.139C314.913 111.528 311.951 105.704 308.273 106.558C304.598 107.412 291.243 111.934 286.711 113.864C282.178 115.795 286.552 121.861 287.696 120.786Z" fill="#6D2E21"/>
<path fill-rule="evenodd" clip-rule="evenodd" d="M228.318 80.1925C226.646 70.4291 246.899 54.7086 255.335 57.8596C245.213 62.5255 234.465 70.8433 228.318 80.1925Z" fill="#632C22"/>
<path fill-rule="evenodd" clip-rule="evenodd" d="M242.529 73.9478C268.007 56.6179 267.244 60.641 297.035 64.1095C275.112 70.2405 278.849 59.3195 242.529 73.9478Z" fill="#632C22"/>
<path fill-rule="evenodd" clip-rule="evenodd" d="M263.925 51.6143C292.435 43.6117 307.195 67.1101 319.991 53.957C321.066 56.2522 316.179 58.4491 314.841 58.9382C298.037 65.0832 290.047 51.6025 263.925 51.6143Z" fill="#863424"/>
<path fill-rule="evenodd" clip-rule="evenodd" d="M275.95 44.7423C284.799 40.3268 285.631 39.3821 295.315 41.6186C286.773 44.8424 285.067 46.4461 275.95 44.7423Z" fill="#632C22"/>
<path fill-rule="evenodd" clip-rule="evenodd" d="M239.405 83.3162C246.094 88.9424 260.515 94.7895 269.08 95.6554C269.526 100.404 240.328 94.8487 239.405 83.3162Z" fill="#863424"/>
<path fill-rule="evenodd" clip-rule="evenodd" d="M252.525 77.5391C260.573 82.4235 285.84 87.1526 295.627 87.2214C288.104 93.7253 252.478 84.7467 252.525 77.5391Z" fill="#632C22"/>
<path fill-rule="evenodd" clip-rule="evenodd" d="M262.207 73.9479C303.01 65.5273 309.283 70.9389 327.486 103.619C298.871 72.7645 311.547 74.3146 262.207 73.9479Z" fill="#863424"/>
<path fill-rule="evenodd" clip-rule="evenodd" d="M303.438 67.387C314.637 70.7471 329.555 69.775 337.014 72.0724C330.184 76.9357 303.42 73.1927 303.438 67.387Z" fill="#632C22"/>
<path fill-rule="evenodd" clip-rule="evenodd" d="M292.973 45.3672C303.519 46.7949 318.305 49.1102 328.737 45.8362C322.551 57.2245 300.472 49.2438 292.973 45.3672Z" fill="#632C22"/>
<path fill-rule="evenodd" clip-rule="evenodd" d="M225.116 96.9033C221.577 107.556 216.51 117.596 217.658 128.978L217.532 128.946L217.621 128.996C217.628 129.21 217.65 129.12 217.585 129.276L217.341 129.268C207.83 122.332 221.503 101.877 225.116 96.9033Z" fill="#863424"/>
<path fill-rule="evenodd" clip-rule="evenodd" d="M215.043 103.23C213.775 109.32 211.797 115.22 211.04 121.416L210.939 121.235C211.02 121.631 211.013 121.41 210.904 121.891C208.376 122.207 205.485 108.476 215.043 103.23Z" fill="#632C22"/>
<path fill-rule="evenodd" clip-rule="evenodd" d="M225.586 85.8149C238.011 87.9682 232.59 85.5192 242.062 92.6872C230.257 90.7866 235.793 92.9695 225.586 85.8149Z" fill="#412F26"/>
<path fill-rule="evenodd" clip-rule="evenodd" d="M111.623 146.42C108.816 145.077 105.394 143.2 102.059 140.759C101.502 140.352 100.986 139.954 100.504 139.563L96.9409 142.952C99.0947 145.425 101.501 147.887 103.704 149.463C106.429 151.411 108.101 152.165 109.112 152.407C110.302 152.695 110.579 152.279 110.579 152.279C111.188 152.009 112.473 151.542 114.034 150.875C113.619 150.128 113.253 149.461 112.941 148.887C112.086 147.313 111.623 146.42 111.623 146.42Z" fill="#F49E60"/>
<path fill-rule="evenodd" clip-rule="evenodd" d="M114.034 150.875C112.473 151.542 111.188 152.009 110.578 152.279C110.578 152.279 110.302 152.696 109.112 152.408C131.74 194.6 154.466 220.941 185.333 238.7C185.753 238.941 186.173 239.173 186.593 239.394L188.05 228.862C188.05 228.862 159.995 211.848 143.128 193.262C130.358 179.189 118.862 159.57 114.034 150.875Z" fill="#F49E60"/>
<path fill-rule="evenodd" clip-rule="evenodd" d="M218.329 253.102C215.386 251.42 212.486 249.152 209.723 246.59C198.307 236.011 189.222 220.418 189.22 220.418L188.05 228.862L186.593 239.394L183.952 258.464L219.411 264.8L224.657 265.737L228.307 266.389L232.539 267.144L247.621 269.84C247.637 269.328 247.652 268.813 247.67 268.298C247.712 266.923 247.759 265.545 247.806 264.163C247.944 260.055 248.102 255.934 248.263 251.922C248.323 250.455 248.384 249.004 248.445 247.574C248.646 242.802 248.853 238.267 249.047 234.2C249.313 228.57 249.554 223.839 249.721 220.621L248.589 234.599L247.481 248.288L246.68 258.158L246.357 262.141C246.357 262.141 245.459 262.08 243.734 261.782C241.701 261.43 238.522 260.747 234.311 259.451L234.265 259.438C231.888 258.704 229.187 257.775 226.179 256.6C224.56 255.969 222.852 255.265 221.06 254.482C220.147 254.084 219.235 253.62 218.329 253.102Z" fill="#EC761D"/>
<path fill-rule="evenodd" clip-rule="evenodd" d="M255.041 329.541C255.887 342.59 256.731 356.209 257.42 368.595C257.629 372.312 257.82 375.919 257.995 379.364C258.601 391.257 258.995 401.245 259.007 407.325C259.015 410.66 262.545 412.904 268.423 414.215C291.208 419.303 349.283 410.417 374.464 396.978C375.678 396.329 376.816 395.67 377.871 395.002C376.26 394.921 374.562 394.809 372.778 394.661C357.812 393.422 336.994 389.632 314.714 379.271C314.12 378.995 313.533 378.717 312.951 378.441C310.957 377.488 309.045 376.532 307.208 375.572C270.569 356.425 264.28 336.013 263.694 331.32C263.125 326.769 269.736 247.129 270.924 232.909C271.04 231.511 271.105 230.746 271.105 230.746C271.036 231.454 270.963 232.183 270.889 232.931C267.838 263.138 259.697 324.378 257.27 328.263C256.611 329.32 255.846 329.734 255.041 329.541Z" fill="#EC761D"/>
<path fill-rule="evenodd" clip-rule="evenodd" d="M221.294 149.142C213.375 149.142 213.615 163.457 222.389 167.259C227.074 169.288 227.776 165.149 226.917 163.821C226.059 162.494 223.872 163.12 222.389 160.229C220.906 157.34 223.284 158.129 223.637 154.92C223.992 151.711 221.294 149.142 221.294 149.142Z" fill="#F09256"/>
<path fill-rule="evenodd" clip-rule="evenodd" d="M326.353 121.678C333.046 117.444 340.496 129.67 335.116 137.572C332.241 141.794 329.435 138.673 329.451 137.091C329.466 135.51 331.649 134.869 331.357 131.635C331.066 128.399 329.478 130.339 327.463 127.815C325.448 125.293 326.353 121.678 326.353 121.678Z" fill="#F09256"/>
<path fill-rule="evenodd" clip-rule="evenodd" d="M220.747 129.853C220.747 129.853 231.368 157.964 230.197 158.199C229.025 158.434 219.733 141.644 219.733 141.644L220.747 129.853Z" fill="#6D2E21"/>
<path fill-rule="evenodd" clip-rule="evenodd" d="M319.528 106.066C319.528 106.066 322.329 135.985 323.486 135.681C324.64 135.378 325.616 116.214 325.616 116.214L319.528 106.066Z" fill="#6D2E21"/>
<path fill-rule="evenodd" clip-rule="evenodd" d="M261.352 510.055C267.911 501.935 288.837 431.345 288.837 431.345C288.837 431.345 306.017 429.783 342.874 416.04C356.593 410.925 367.585 404.9 376.108 399.239C375.548 398.471 375 397.716 374.464 396.977C349.283 410.416 291.208 419.302 268.423 414.214C258.407 449.522 245.82 496.862 245.82 496.862L178.661 572.85C178.661 572.85 178.774 573.404 178.993 574.313C179.435 576.153 180.308 579.452 181.559 582.595C185.489 579.124 190.744 574.478 196.692 569.199C221.058 547.579 257.061 515.369 261.352 510.055Z" fill="#473026"/>
<path fill-rule="evenodd" clip-rule="evenodd" d="M320.837 442.134C325.083 441.662 390.772 483.506 390.772 483.506C390.772 483.506 355.106 565.948 354.665 570.148C354.635 570.44 354.653 570.738 354.714 571.041C355.146 573.185 357.776 575.565 361.259 577.024L365.211 566.898L396.909 485.691L417.211 482.567L403.468 472.885L335.365 431.558L320.837 442.134Z" fill="#473026"/>
<path fill-rule="evenodd" clip-rule="evenodd" d="M274.292 201.254C255.901 199.948 240.356 188.211 230.411 170.463L230.164 170.694C239.533 191.508 255.84 205.657 275.532 207.304C280.153 207.69 284.96 207.389 289.906 206.322C294.613 205.308 298.891 203.721 302.736 201.638C321.279 191.587 329.768 169.952 328.191 144.991L327.751 144.85C327.711 167.761 318.589 187.148 300.388 196.148C296.769 197.939 292.791 199.317 288.455 200.232C283.586 201.258 278.851 201.577 274.292 201.254Z" fill="#F7B17A"/>
<path fill-rule="evenodd" clip-rule="evenodd" d="M302.144 163.67C302.663 164.628 303.109 165.64 303.478 166.703C307.07 177.072 301.801 188.261 291.706 191.69C281.614 195.123 270.52 189.499 266.926 179.128C266.558 178.067 266.286 176.995 266.1 175.924L302.144 163.67Z" fill="#8E2724"/>
<path fill-rule="evenodd" clip-rule="evenodd" d="M269.514 174.762L270.679 178.01C271.147 179.311 272.594 179.994 273.895 179.527L299.242 170.433C300.543 169.966 301.226 168.519 300.758 167.219L299.774 164.476L269.514 174.762Z" fill="#FEFEFE"/>
<path d="M311.394 287.761C310.906 287.6 310.549 287.506 309.966 287.506C309.538 287.506 309.027 287.657 309.027 288.165C309.027 289.113 311.798 288.512 311.798 290.659C311.798 292.046 310.525 292.601 309.229 292.601C308.621 292.601 308.003 292.498 307.42 292.347L307.515 291.076C308.015 291.318 308.538 291.468 309.085 291.468C309.491 291.468 310.133 291.318 310.133 290.741C310.133 289.574 307.361 290.371 307.361 288.223C307.361 286.941 308.515 286.375 309.764 286.375C310.513 286.375 311.001 286.491 311.501 286.594L311.394 287.761Z" fill="white"/>
<path d="M318.817 292.469H320.412V286.521H318.817V292.469Z" fill="white"/>
<path d="M330.384 287.761C329.896 287.6 329.539 287.506 328.956 287.506C328.527 287.506 328.016 287.657 328.016 288.165C328.016 289.113 330.788 288.512 330.788 290.659C330.788 292.046 329.515 292.601 328.218 292.601C327.611 292.601 326.993 292.498 326.41 292.347L326.505 291.076C327.004 291.318 327.528 291.468 328.075 291.468C328.48 291.468 329.122 291.318 329.122 290.741C329.122 289.574 326.35 290.371 326.35 288.223C326.35 286.941 327.504 286.375 328.754 286.375C329.503 286.375 329.99 286.491 330.49 286.594L330.384 287.761Z" fill="white"/>
<path d="M315.703 289.187L317.962 286.521H316.082L314.179 288.9H314.155V283.32L312.56 283.807V292.469H314.155V289.582H314.179L316.225 292.469H318.247L315.703 289.187Z" fill="white"/>
<path d="M321.441 283.807V292.469H323.034V283.32L321.441 283.807Z" fill="white"/>
<path d="M323.953 283.807H323.952V292.469H325.547V283.32L323.953 283.807Z" fill="white"/>
<path d="M320.536 284.3C320.536 283.809 320.138 283.412 319.648 283.412C319.158 283.412 318.76 283.809 318.76 284.3C318.76 284.79 319.158 285.188 319.648 285.188C320.138 285.188 320.536 284.79 320.536 284.3Z" fill="white"/>
<path d="M292.851 292.048C291.636 292.048 290.82 291.052 290.82 289.568C290.82 288.083 291.636 287.086 292.851 287.086C294.066 287.086 294.882 288.083 294.882 289.568C294.882 291.052 294.066 292.048 292.851 292.048ZM292.851 286.505C290.776 286.505 290.041 288.154 290.041 289.568C290.041 290.981 290.776 292.63 292.851 292.63C294.926 292.63 295.662 290.981 295.662 289.568C295.662 288.154 294.926 286.505 292.851 286.505Z" fill="white"/>
<path d="M297.011 287.58V286.621H296.35L296.351 292.469H297.058V289.58L297.057 289.542C297.058 288.465 297.364 287.177 298.818 287.177L299.039 287.188L299.041 287.164L299.077 286.482L298.995 286.482C298.012 286.482 297.346 286.852 297.011 287.58Z" fill="white"/>
<path d="M303.908 292.026C302.268 292.026 302.091 290.291 302.091 289.545C302.091 288.799 302.268 287.064 303.908 287.064C305.163 287.064 305.726 288.31 305.726 289.545C305.726 290.78 305.163 292.026 303.908 292.026ZM306.405 283.646L305.726 283.854V287.47C305.578 287.223 305.026 286.467 303.789 286.482C301.741 286.508 301.312 288.161 301.312 289.545C301.312 291.434 302.261 292.608 303.789 292.608C304.7 292.608 305.315 292.273 305.726 291.563V292.469H306.433V283.637L306.405 283.646Z" fill="white"/>
<path d="M300.494 283.647L299.815 283.854V292.469H300.523V283.637L300.494 283.647Z" fill="white"/>
<path d="M281.76 286.62H281L281.01 286.65C281.046 286.76 282.915 292.402 282.932 292.454L282.937 292.469H283.811C283.811 292.469 285.455 287.406 285.465 287.375H285.519C285.529 287.406 287.173 292.469 287.173 292.469H288.047L290.032 286.62H289.326C289.326 286.62 287.659 291.684 287.649 291.714H287.594C287.585 291.684 285.989 286.62 285.989 286.62H285.114C285.114 286.62 283.435 291.684 283.425 291.714H283.371C283.361 291.683 281.777 286.62 281.777 286.62H281.76Z" fill="white"/>
<path d="M317.337 273.255C317.337 273.255 320.185 272.751 321.117 270.487C321.117 270.487 337.695 273.883 327.909 282.726C327.909 282.726 331.54 279.306 329.512 276.571C329.512 276.571 330.644 279.967 326.211 282.254C326.211 282.254 335.826 275.424 317.337 273.255Z" fill="white"/>
<path d="M326.421 272.016C327.581 272.59 328.392 273.153 328.867 273.524C329.075 267.588 324.82 264.271 324.82 264.271C324.696 264.651 324.324 265.075 323.794 265.27C323.263 265.464 322.944 266.101 322.944 266.101C325.024 267.831 326.023 269.942 326.421 272.016Z" fill="white"/>
<path d="M320.677 270.907C320.928 270.532 320.998 270.275 320.998 270.275C322.094 270.47 323.078 270.726 323.953 271.013C322.137 265.834 318.759 263 318.759 263C318.664 263.271 317.674 263.766 317.002 264.061C316.33 264.356 316.507 265.606 316.507 265.606C318.354 267.132 319.698 269.001 320.677 270.907Z" fill="white"/>
<path d="M327.627 276.644C327.398 279.199 325.881 281.912 325.881 281.912C326.952 280.283 327.684 278.753 328.157 277.327C328.025 277.086 327.846 276.859 327.627 276.644Z" fill="white"/>
<path d="M327.428 276.463C327.178 276.248 326.889 276.047 326.568 275.859C326.302 278.608 325.385 280.674 325.385 280.674C325.916 280.073 326.323 279.1 326.323 279.1C326.34 279.79 325.774 281.152 325.774 281.152C326.748 279.588 327.214 277.686 327.428 276.463Z" fill="white"/>
<path d="M321.674 281.816C321.084 281.498 320.23 281.16 318.473 279.8C319.802 280.801 322.023 281.441 322.023 281.441C317.121 278.952 316.052 276.697 316.052 276.697C315.581 276.682 315.296 276.981 315.109 277.084C314.923 277.186 314.413 277.177 314.413 277.177C316.281 280.189 321.674 281.816 321.674 281.816Z" fill="white"/>
<path d="M319.481 273.708C317.852 273.439 316.656 273.334 316.656 273.334C317.308 273.171 317.861 272.972 318.335 272.756C316.043 271.087 313.759 270.676 313.759 270.676C313.759 270.676 313.335 270.817 313.276 271.524C313.217 272.232 312.675 272.327 312.675 272.327C321.235 274.614 322.52 281.664 322.52 281.664C321.936 278.481 320.698 276.447 320.698 276.447C322.007 277.791 322.909 281.205 322.909 281.205C322.619 277.676 321.155 275.298 319.481 273.708Z" fill="white"/>
<path d="M322.043 274.218C323.275 278.021 323.298 281.24 323.298 281.24C324.21 279.472 323.97 275.403 323.97 275.403C324.82 277.066 324.713 281.594 324.713 281.594C325.149 279.214 325.166 277.039 324.916 275.081C324.012 274.734 323.018 274.449 322.043 274.218Z" fill="white"/>
<path d="M282.317 297.387H283.16C283.661 297.394 284.116 297.286 284.524 297.063C284.94 296.839 285.156 296.454 285.171 295.907C285.171 295.576 285.117 295.314 285.01 295.121C284.902 294.929 284.755 294.79 284.57 294.705C284.385 294.613 284.17 294.555 283.923 294.532C283.676 294.516 283.415 294.509 283.137 294.509H282.317V297.387ZM281.519 293.815H283.599C285.141 293.792 285.93 294.49 285.969 295.907C285.961 296.431 285.788 296.851 285.449 297.167C285.11 297.491 284.686 297.691 284.177 297.768V297.791C284.485 297.83 284.709 297.93 284.848 298.091C284.925 298.169 284.99 298.265 285.044 298.38C285.106 298.496 285.164 298.623 285.218 298.762L286.593 301.882H285.714L284.547 299.155C284.332 298.654 284.108 298.342 283.877 298.219C283.761 298.149 283.63 298.107 283.484 298.091C283.337 298.084 283.168 298.08 282.975 298.08H282.317V301.882H281.519V293.815Z" fill="white"/>
<path d="M291.502 300.495C291.495 300.943 291.51 301.405 291.549 301.882H290.844V300.831H290.82C290.767 300.962 290.693 301.093 290.601 301.223C290.508 301.362 290.389 301.494 290.243 301.616C290.096 301.732 289.915 301.825 289.699 301.894C289.484 301.979 289.221 302.021 288.913 302.021C288.197 302.013 287.68 301.798 287.365 301.374C287.048 300.958 286.894 300.418 286.902 299.756V295.988H287.63V299.571C287.63 300.133 287.742 300.573 287.966 300.888C288.181 301.228 288.536 301.397 289.029 301.397C289.36 301.397 289.642 301.328 289.873 301.189C290.104 301.058 290.281 300.888 290.404 300.681C290.543 300.465 290.639 300.234 290.693 299.987C290.747 299.74 290.774 299.494 290.774 299.247V295.988H291.502V300.495Z" fill="white"/>
<path d="M293.837 301.397C294.199 301.397 294.508 301.301 294.762 301.108C295.008 300.931 295.135 300.677 295.143 300.345C295.135 299.999 294.993 299.725 294.716 299.525C294.438 299.332 294.111 299.159 293.733 299.004C293.556 298.92 293.386 298.831 293.225 298.739C293.063 298.646 292.909 298.542 292.762 298.427C292.631 298.303 292.523 298.161 292.439 297.999C292.354 297.845 292.311 297.664 292.311 297.456C292.319 296.87 292.52 296.454 292.913 296.208C293.29 295.969 293.729 295.849 294.23 295.849C294.4 295.849 294.619 295.865 294.889 295.898C295.159 295.946 295.424 296.022 295.686 296.127L295.617 296.751C295.193 296.574 294.758 296.481 294.311 296.473C293.934 296.473 293.633 296.543 293.41 296.68C293.294 296.749 293.205 296.845 293.144 296.967C293.074 297.09 293.04 297.25 293.04 297.449C293.04 297.572 293.082 297.687 293.167 297.794C293.252 297.894 293.363 297.986 293.502 298.07C293.641 298.147 293.799 298.227 293.976 298.311C294.153 298.388 294.327 298.473 294.496 298.566C294.881 298.728 295.216 298.945 295.502 299.215C295.787 299.486 295.933 299.861 295.941 300.34C295.941 300.649 295.879 300.908 295.756 301.117C295.625 301.333 295.459 301.507 295.259 301.639C294.827 301.893 294.369 302.021 293.883 302.021C293.313 302.021 292.762 301.928 292.231 301.744L292.3 301.027C292.747 301.266 293.259 301.389 293.837 301.397Z" fill="white"/>
<path d="M297.755 301.397C298.117 301.397 298.426 301.301 298.68 301.108C298.927 300.931 299.054 300.677 299.061 300.345C299.054 299.999 298.911 299.725 298.634 299.525C298.356 299.332 298.029 299.159 297.651 299.004C297.474 298.92 297.305 298.831 297.143 298.739C296.981 298.646 296.827 298.542 296.68 298.427C296.549 298.303 296.442 298.161 296.357 297.999C296.272 297.845 296.23 297.664 296.23 297.456C296.237 296.87 296.438 296.454 296.831 296.208C297.208 295.969 297.647 295.849 298.148 295.849C298.318 295.849 298.537 295.865 298.807 295.898C299.077 295.946 299.343 296.022 299.605 296.127L299.535 296.751C299.111 296.574 298.676 296.481 298.229 296.473C297.851 296.473 297.551 296.543 297.328 296.68C297.212 296.749 297.123 296.845 297.062 296.967C296.993 297.09 296.958 297.25 296.958 297.449C296.958 297.572 297 297.687 297.085 297.794C297.17 297.894 297.281 297.986 297.42 298.07C297.559 298.147 297.717 298.227 297.894 298.311C298.071 298.388 298.245 298.473 298.414 298.566C298.799 298.728 299.135 298.945 299.42 299.215C299.705 299.486 299.851 299.861 299.859 300.34C299.859 300.649 299.797 300.908 299.674 301.117C299.543 301.333 299.377 301.507 299.177 301.639C298.745 301.893 298.287 302.021 297.802 302.021C297.231 302.021 296.68 301.928 296.149 301.744L296.218 301.027C296.665 301.266 297.177 301.389 297.755 301.397Z" fill="white"/>
<path d="M300.587 295.988H301.315V301.882H300.587V295.988ZM301.315 294.416H300.587V293.445H301.315V294.416Z" fill="white"/>
<path d="M305.892 298.912H305.684C305.368 298.912 305.052 298.92 304.736 298.935C304.405 298.966 304.104 299.031 303.835 299.132C303.565 299.224 303.349 299.367 303.188 299.559C303.01 299.752 302.922 300.01 302.922 300.334C302.922 300.711 303.045 300.981 303.292 301.142C303.523 301.312 303.808 301.397 304.147 301.397C304.57 301.397 304.906 301.312 305.152 301.142C305.391 300.981 305.565 300.788 305.673 300.565C305.788 300.326 305.854 300.091 305.869 299.86C305.884 299.621 305.892 299.425 305.892 299.27V298.912ZM305.962 300.934H305.938C305.769 301.281 305.511 301.547 305.164 301.732C304.817 301.917 304.451 302.013 304.066 302.021C303.657 302.013 303.326 301.948 303.072 301.825C302.81 301.709 302.61 301.563 302.471 301.385C302.224 301 302.109 300.657 302.124 300.357C302.124 299.864 302.243 299.475 302.482 299.189C302.714 298.904 303.01 298.7 303.373 298.577C303.734 298.446 304.128 298.361 304.552 298.322C304.968 298.3 305.368 298.288 305.753 298.288H305.892V297.987C305.915 296.978 305.468 296.473 304.552 296.473C303.943 296.466 303.365 296.628 302.818 296.959V296.265C303.365 296.004 303.943 295.865 304.552 295.849C305.946 295.834 306.636 296.566 306.62 298.045V300.646C306.613 301.092 306.632 301.505 306.678 301.882H305.962V300.934Z" fill="white"/>
<path d="M598.931 252.608C598.644 252.513 598.433 252.458 598.089 252.458C597.836 252.458 597.535 252.547 597.535 252.847C597.535 253.406 599.17 253.051 599.17 254.318C599.17 255.136 598.419 255.463 597.654 255.463C597.296 255.463 596.931 255.402 596.587 255.314L596.643 254.564C596.938 254.707 597.247 254.795 597.569 254.795C597.808 254.795 598.187 254.707 598.187 254.366C598.187 253.678 596.552 254.148 596.552 252.881C596.552 252.124 597.233 251.79 597.97 251.79C598.412 251.79 598.7 251.859 598.994 251.92L598.931 252.608Z" fill="white"/>
<path d="M603.311 255.386H604.252V251.876H603.311V255.386Z" fill="white"/>
<path d="M610.135 252.608C609.847 252.513 609.636 252.458 609.292 252.458C609.039 252.458 608.738 252.547 608.738 252.847C608.738 253.406 610.373 253.051 610.373 254.318C610.373 255.136 609.622 255.463 608.857 255.463C608.499 255.463 608.134 255.402 607.79 255.314L607.846 254.564C608.141 254.707 608.45 254.795 608.773 254.795C609.011 254.795 609.391 254.707 609.391 254.366C609.391 253.678 607.755 254.148 607.755 252.881C607.755 252.124 608.436 251.79 609.173 251.79C609.615 251.79 609.903 251.859 610.197 251.92L610.135 252.608Z" fill="white"/>
<path d="M601.474 253.45L602.806 251.877H601.697L600.574 253.28H600.56V249.988L599.62 250.275V255.386H600.56V253.682H600.574L601.782 255.386H602.975L601.474 253.45Z" fill="white"/>
<path d="M604.859 250.275V255.386H605.799V249.988L604.859 250.275Z" fill="white"/>
<path d="M606.341 250.275H606.34V255.386H607.281V249.988L606.341 250.275Z" fill="white"/>
<path d="M604.325 250.566C604.325 250.277 604.09 250.042 603.801 250.042C603.512 250.042 603.277 250.277 603.277 250.566C603.277 250.856 603.512 251.09 603.801 251.09C604.09 251.09 604.325 250.856 604.325 250.566Z" fill="white"/>
<path d="M587.992 255.137C587.275 255.137 586.794 254.55 586.794 253.674C586.794 252.798 587.275 252.21 587.992 252.21C588.708 252.21 589.19 252.798 589.19 253.674C589.19 254.55 588.708 255.137 587.992 255.137ZM587.992 251.867C586.768 251.867 586.334 252.84 586.334 253.674C586.334 254.508 586.768 255.481 587.992 255.481C589.216 255.481 589.65 254.508 589.65 253.674C589.65 252.84 589.216 251.867 587.992 251.867Z" fill="white"/>
<path d="M590.446 252.501V251.935H590.056L590.056 255.386H590.474V253.681L590.473 253.659C590.474 253.023 590.654 252.263 591.512 252.263L591.642 252.27L591.644 252.256L591.665 251.854L591.616 251.853C591.037 251.853 590.644 252.072 590.446 252.501Z" fill="white"/>
<path d="M594.515 255.124C593.547 255.124 593.443 254.101 593.443 253.661C593.443 253.22 593.547 252.197 594.515 252.197C595.256 252.197 595.587 252.932 595.587 253.661C595.587 254.389 595.256 255.124 594.515 255.124ZM595.988 250.181L595.587 250.303V252.436C595.5 252.291 595.174 251.844 594.445 251.853C593.237 251.869 592.983 252.844 592.983 253.661C592.983 254.775 593.543 255.468 594.445 255.468C594.982 255.468 595.345 255.27 595.587 254.851V255.386H596.005V250.175L595.988 250.181Z" fill="white"/>
<path d="M592.501 250.181L592.1 250.303V255.386H592.518V250.175L592.501 250.181Z" fill="white"/>
<path d="M581.448 251.935H581L581.006 251.953C581.027 252.018 582.13 255.347 582.14 255.377L582.143 255.386H582.659C582.659 255.386 583.628 252.399 583.634 252.381H583.666C583.672 252.399 584.642 255.386 584.642 255.386H585.158L586.328 251.935H585.912C585.912 251.935 584.928 254.922 584.923 254.94H584.89C584.885 254.922 583.943 251.935 583.943 251.935H583.427C583.427 251.935 582.437 254.922 582.43 254.94H582.399C582.393 254.922 581.458 251.935 581.458 251.935H581.448Z" fill="white"/>
<path d="M602.438 244.05C602.438 244.05 604.118 243.753 604.668 242.417C604.668 242.417 614.448 244.42 608.674 249.637C608.674 249.637 610.817 247.62 609.621 246.006C609.621 246.006 610.288 248.01 607.673 249.359C607.673 249.359 613.345 245.33 602.438 244.05Z" fill="white"/>
<path d="M607.797 243.319C608.481 243.658 608.96 243.99 609.24 244.208C609.363 240.707 606.852 238.75 606.852 238.75C606.779 238.974 606.56 239.224 606.247 239.339C605.934 239.454 605.746 239.829 605.746 239.829C606.973 240.85 607.562 242.096 607.797 243.319Z" fill="white"/>
<path d="M604.408 242.665C604.556 242.444 604.598 242.292 604.598 242.292C605.244 242.407 605.824 242.558 606.341 242.727C605.269 239.672 603.276 238 603.276 238C603.221 238.16 602.636 238.452 602.24 238.626C601.843 238.8 601.948 239.537 601.948 239.537C603.038 240.438 603.83 241.54 604.408 242.665Z" fill="white"/>
<path d="M608.508 246.05C608.373 247.557 607.478 249.157 607.478 249.157C608.11 248.196 608.542 247.293 608.821 246.452C608.743 246.31 608.637 246.176 608.508 246.05Z" fill="white"/>
<path d="M608.391 245.943C608.243 245.816 608.073 245.697 607.884 245.586C607.727 247.208 607.186 248.427 607.186 248.427C607.499 248.072 607.739 247.499 607.739 247.499C607.749 247.906 607.415 248.709 607.415 248.709C607.99 247.786 608.265 246.665 608.391 245.943Z" fill="white"/>
<path d="M604.996 249.1C604.648 248.913 604.144 248.714 603.108 247.911C603.892 248.502 605.202 248.879 605.202 248.879C602.31 247.411 601.68 246.081 601.68 246.081C601.401 246.072 601.234 246.248 601.123 246.309C601.013 246.369 600.712 246.364 600.712 246.364C601.815 248.141 604.996 249.1 604.996 249.1Z" fill="white"/>
<path d="M603.703 244.318C602.742 244.159 602.036 244.097 602.036 244.097C602.42 244.001 602.747 243.883 603.026 243.756C601.674 242.771 600.327 242.529 600.327 242.529C600.327 242.529 600.076 242.612 600.042 243.029C600.007 243.447 599.687 243.502 599.687 243.502C604.737 244.852 605.495 249.012 605.495 249.012C605.151 247.133 604.421 245.934 604.421 245.934C605.193 246.726 605.725 248.74 605.725 248.74C605.554 246.659 604.69 245.255 603.703 244.318Z" fill="white"/>
<path d="M605.214 244.618C605.941 246.862 605.955 248.761 605.955 248.761C606.493 247.718 606.351 245.318 606.351 245.318C606.852 246.299 606.789 248.97 606.789 248.97C607.046 247.566 607.056 246.282 606.909 245.127C606.376 244.923 605.789 244.755 605.214 244.618Z" fill="white"/>
<path d="M581.777 258.287H582.275C582.57 258.291 582.838 258.228 583.079 258.096C583.325 257.964 583.452 257.737 583.461 257.414C583.461 257.219 583.429 257.064 583.366 256.95C583.302 256.837 583.216 256.755 583.106 256.705C582.997 256.65 582.87 256.616 582.725 256.603C582.579 256.593 582.425 256.589 582.261 256.589H581.777V258.287ZM581.306 256.18H582.534C583.443 256.166 583.909 256.578 583.931 257.414C583.927 257.723 583.825 257.971 583.625 258.157C583.425 258.348 583.175 258.466 582.875 258.512V258.526C583.056 258.548 583.188 258.607 583.27 258.703C583.315 258.748 583.354 258.805 583.386 258.873C583.422 258.941 583.456 259.016 583.488 259.098L584.3 260.939H583.781L583.093 259.33C582.966 259.035 582.834 258.851 582.697 258.778C582.629 258.737 582.552 258.712 582.465 258.703C582.379 258.698 582.279 258.696 582.165 258.696H581.777V260.939H581.306V256.18Z" fill="white"/>
<path d="M587.196 260.121C587.191 260.385 587.2 260.658 587.223 260.939H586.807V260.319H586.794C586.762 260.396 586.719 260.473 586.664 260.551C586.61 260.633 586.539 260.71 586.453 260.782C586.366 260.851 586.259 260.905 586.132 260.946C586.005 260.996 585.85 261.021 585.669 261.021C585.246 261.017 584.941 260.889 584.755 260.639C584.568 260.394 584.478 260.076 584.482 259.685V257.462H584.912V259.576C584.912 259.908 584.978 260.167 585.109 260.353C585.237 260.553 585.446 260.653 585.737 260.653C585.932 260.653 586.098 260.612 586.235 260.53C586.371 260.453 586.475 260.353 586.548 260.23C586.63 260.103 586.687 259.967 586.719 259.821C586.751 259.676 586.766 259.53 586.766 259.385V257.462H587.196V260.121Z" fill="white"/>
<path d="M588.574 260.653C588.787 260.653 588.969 260.596 589.119 260.482C589.264 260.378 589.339 260.228 589.344 260.032C589.339 259.828 589.255 259.667 589.092 259.548C588.928 259.434 588.735 259.332 588.512 259.241C588.407 259.191 588.308 259.139 588.212 259.084C588.117 259.03 588.026 258.968 587.939 258.9C587.862 258.828 587.798 258.744 587.748 258.648C587.698 258.557 587.673 258.45 587.673 258.328C587.678 257.982 587.796 257.737 588.028 257.591C588.251 257.45 588.51 257.38 588.805 257.38C588.905 257.38 589.035 257.389 589.194 257.408C589.353 257.437 589.51 257.482 589.665 257.543L589.624 257.912C589.374 257.807 589.117 257.752 588.853 257.748C588.63 257.748 588.453 257.789 588.321 257.87C588.253 257.911 588.201 257.967 588.164 258.039C588.123 258.112 588.103 258.206 588.103 258.324C588.103 258.396 588.128 258.464 588.178 258.527C588.228 258.586 588.294 258.64 588.376 258.69C588.458 258.735 588.551 258.782 588.655 258.832C588.76 258.878 588.862 258.928 588.962 258.983C589.189 259.078 589.387 259.206 589.555 259.366C589.724 259.525 589.81 259.746 589.815 260.029C589.815 260.212 589.778 260.364 589.705 260.487C589.628 260.615 589.53 260.718 589.412 260.795C589.158 260.946 588.887 261.021 588.601 261.021C588.264 261.021 587.939 260.966 587.626 260.857L587.667 260.435C587.93 260.575 588.233 260.648 588.574 260.653Z" fill="white"/>
<path d="M590.885 260.653C591.099 260.653 591.281 260.596 591.431 260.482C591.576 260.378 591.651 260.228 591.656 260.032C591.651 259.828 591.567 259.667 591.403 259.548C591.24 259.434 591.046 259.332 590.824 259.241C590.719 259.191 590.619 259.139 590.524 259.084C590.428 259.03 590.337 258.968 590.251 258.9C590.174 258.828 590.11 258.744 590.06 258.648C590.01 258.557 589.985 258.45 589.985 258.328C589.989 257.982 590.108 257.737 590.34 257.591C590.562 257.45 590.821 257.38 591.117 257.38C591.217 257.38 591.346 257.389 591.506 257.408C591.665 257.437 591.822 257.482 591.976 257.543L591.935 257.912C591.685 257.807 591.428 257.752 591.165 257.748C590.942 257.748 590.765 257.789 590.633 257.87C590.565 257.911 590.512 257.967 590.476 258.039C590.435 258.112 590.415 258.206 590.415 258.324C590.415 258.396 590.439 258.464 590.49 258.527C590.54 258.586 590.606 258.64 590.687 258.69C590.769 258.735 590.862 258.782 590.967 258.832C591.072 258.878 591.174 258.928 591.274 258.983C591.501 259.078 591.699 259.206 591.867 259.366C592.035 259.525 592.122 259.746 592.126 260.029C592.126 260.212 592.09 260.364 592.017 260.487C591.94 260.615 591.842 260.718 591.724 260.795C591.469 260.946 591.199 261.021 590.912 261.021C590.576 261.021 590.251 260.966 589.937 260.857L589.978 260.435C590.242 260.575 590.544 260.648 590.885 260.653Z" fill="white"/>
<path d="M592.556 257.462H592.985V260.939H592.556V257.462ZM592.985 256.534H592.556V255.962H592.985V256.534Z" fill="white"/>
<path d="M595.686 259.187H595.563C595.376 259.187 595.19 259.192 595.004 259.201C594.808 259.219 594.631 259.257 594.472 259.316C594.313 259.371 594.185 259.455 594.09 259.569C593.985 259.682 593.933 259.835 593.933 260.026C593.933 260.248 594.006 260.407 594.151 260.503C594.288 260.603 594.456 260.653 594.656 260.653C594.906 260.653 595.104 260.603 595.249 260.503C595.39 260.407 595.492 260.294 595.556 260.162C595.624 260.021 595.663 259.882 595.672 259.746C595.681 259.605 595.686 259.489 595.686 259.398V259.187ZM595.727 260.38H595.713C595.613 260.585 595.461 260.741 595.256 260.851C595.051 260.96 594.835 261.016 594.608 261.021C594.367 261.016 594.172 260.978 594.022 260.905C593.867 260.837 593.749 260.751 593.667 260.646C593.522 260.419 593.453 260.217 593.463 260.039C593.463 259.748 593.533 259.519 593.674 259.351C593.81 259.182 593.985 259.062 594.199 258.989C594.413 258.912 594.645 258.862 594.895 258.839C595.14 258.826 595.376 258.819 595.604 258.819H595.686V258.641C595.699 258.046 595.435 257.748 594.895 257.748C594.535 257.744 594.194 257.839 593.872 258.034V257.625C594.194 257.471 594.535 257.389 594.895 257.38C595.717 257.371 596.124 257.803 596.115 258.675V260.21C596.111 260.473 596.122 260.717 596.149 260.939H595.727V260.38Z" fill="white"/>
</g>
</svg>
