<svg width="543" height="979" viewBox="0 0 543 979" fill="none" xmlns="http://www.w3.org/2000/svg">
<path d="M99.6479 255H-118L-31.2254 0L185 1.42458L99.6479 255Z" fill="#18469D"/>
<path d="M99 255H-118.047L-206 509.403L-34.3488 643L99 255Z" fill="#FAAF18"/>
<path d="M99.2458 254.686L270.395 387.735L356.11 132.895L184.448 1.61064L99.2458 254.686Z" fill="#112C76"/>
<path d="M99.2459 254.686L270.395 387.735L185.81 643.439L-34.4007 642.829L99.2459 254.686Z" fill="#F89C1C"/>
<path d="M277.912 576.53H101.269L171.695 369.87L347.183 371.024L277.912 576.53Z" fill="#4FB65D"/>
<path d="M277.912 576.53H101.269L29.6887 783.189L169.386 891.715L277.912 576.53Z" fill="#162D69"/>
<path d="M277.911 576.53L416.891 684.57L486.493 477.631L347.099 371.024L277.911 576.53Z" fill="#00834E"/>
<path d="M277.912 576.53L416.89 684.57L348.204 892.21L169.386 891.715L277.912 576.53Z" fill="#1B3271"/>
</svg>
