<svg width="204" height="160" viewBox="0 0 204 160" fill="none" xmlns="http://www.w3.org/2000/svg">
<path d="M124.007 101.023C122.017 100.366 120.561 99.9858 118.183 99.9858C116.435 99.9858 114.349 100.601 114.349 102.674C114.349 106.54 125.657 104.09 125.657 112.849C125.657 118.508 120.464 120.772 115.173 120.772C112.695 120.772 110.173 120.35 107.794 119.735L108.183 114.549C110.22 115.538 112.356 116.151 114.587 116.151C116.241 116.151 118.862 115.538 118.862 113.184C118.862 108.424 107.552 111.675 107.552 102.91C107.552 97.6802 112.26 95.3677 117.355 95.3677C120.415 95.3677 122.406 95.8413 124.443 96.2649L124.007 101.023Z" fill="white"/>
<path d="M154.294 120.235H160.802V95.9651H154.294V120.235Z" fill="white"/>
<path d="M201.485 101.023C199.496 100.366 198.038 99.9858 195.66 99.9858C193.909 99.9858 191.824 100.601 191.824 102.674C191.824 106.54 203.134 104.09 203.134 112.849C203.134 118.508 197.942 120.772 192.651 120.772C190.174 120.772 187.651 120.35 185.272 119.735L185.659 114.549C187.697 115.538 189.835 116.151 192.067 116.151C193.717 116.151 196.339 115.538 196.339 113.184C196.339 108.424 185.029 111.675 185.029 102.91C185.029 97.6802 189.737 95.3677 194.838 95.3677C197.893 95.3677 199.881 95.8413 201.92 96.2649L201.485 101.023Z" fill="white"/>
<path d="M141.589 106.843L150.805 95.9651H143.134L135.369 105.673H135.271V82.9047L128.766 84.8913V120.235H135.271V108.454H135.369L143.718 120.235H151.969L141.589 106.843Z" fill="white"/>
<path d="M164.998 84.8913V120.235H171.5V82.9047L164.998 84.8913Z" fill="white"/>
<path d="M175.25 84.8913H175.245V120.235H181.751V82.9047L175.25 84.8913Z" fill="white"/>
<path d="M161.307 86.9039C161.307 84.9015 159.682 83.2807 157.684 83.2807C155.685 83.2807 154.062 84.9015 154.062 86.9039C154.062 88.9051 155.685 90.527 157.684 90.527C159.682 90.527 161.307 88.9051 161.307 86.9039Z" fill="white"/>
<path d="M48.3527 118.517C43.3954 118.517 40.0663 114.451 40.0663 108.396C40.0663 102.34 43.3954 98.2718 48.3527 98.2718C53.3092 98.2718 56.6403 102.34 56.6403 108.396C56.6403 114.451 53.3092 118.517 48.3527 118.517ZM48.3527 95.9003C39.8881 95.9003 36.8857 102.628 36.8857 108.396C36.8857 114.161 39.8881 120.892 48.3527 120.892C56.8182 120.892 59.8209 114.161 59.8209 108.396C59.8209 102.628 56.8182 95.9003 48.3527 95.9003Z" fill="white"/>
<path d="M65.3244 100.287V96.3724H62.6264L62.6301 120.235H65.5173V108.447L65.5128 108.293C65.5173 103.896 66.7633 98.6421 72.6964 98.6421L73.5982 98.6853L73.6091 98.5905L73.7532 95.8084L73.4179 95.8055C69.4096 95.8055 66.6933 97.3172 65.3244 100.287Z" fill="white"/>
<path d="M93.4648 118.426C86.7739 118.426 86.0504 111.348 86.0504 108.304C86.0504 105.26 86.7739 98.1811 93.4648 98.1811C98.5864 98.1811 100.88 103.264 100.88 108.304C100.88 113.343 98.5864 118.426 93.4648 118.426ZM103.652 84.2369L100.88 85.0853V99.8376C100.279 98.8301 98.0253 95.7437 92.9785 95.8055C84.6249 95.9117 82.871 102.659 82.871 108.304C82.871 116.012 86.7442 120.802 92.9797 120.802C96.6942 120.802 99.2054 119.434 100.88 116.536V120.235H103.768V84.2007L103.652 84.2369Z" fill="white"/>
<path d="M79.5374 84.2382L76.7658 85.0837V120.235H79.655V84.2007L79.5374 84.2382Z" fill="white"/>
<path d="M3.10125 96.3712H0L0.0390657 96.4916C0.187597 96.9408 7.81233 119.962 7.88354 120.172L7.9043 120.235H11.4703C11.4703 120.235 18.177 99.5764 18.2168 99.4519H18.4374C18.4793 99.5764 25.1844 120.235 25.1844 120.235H28.7532L36.8491 96.3712H33.9705C33.9705 96.3712 27.1678 117.029 27.1271 117.153H26.9045C26.8662 117.029 20.3532 96.3712 20.3532 96.3712H16.7865C16.7865 96.3712 9.9349 117.029 9.89258 117.153H9.67243C9.63418 117.027 3.16839 96.3712 3.16839 96.3712H3.10125Z" fill="white"/>
<path d="M148.257 41.8393C148.257 41.8393 159.875 39.7836 163.677 30.5474C163.677 30.5474 231.317 44.4016 191.387 80.4815C191.387 80.4815 206.205 66.5296 197.93 55.3704C197.93 55.3704 202.549 69.2242 184.46 78.5564C184.46 78.5564 223.689 50.6917 148.257 41.8393Z" fill="white"/>
<path d="M185.318 36.7863C190.049 39.126 193.359 41.4259 195.296 42.936C196.146 18.7205 178.784 5.18367 178.784 5.18367C178.278 6.73523 176.763 8.46665 174.598 9.26054C172.433 10.0544 171.133 12.651 171.133 12.651C179.619 19.7093 183.695 28.3253 185.318 36.7863Z" fill="white"/>
<path d="M161.881 32.2614C162.906 30.7314 163.193 29.682 163.193 29.682C167.664 30.4759 171.676 31.5224 175.25 32.6935C167.839 11.5645 154.056 0 154.056 0C153.67 1.10681 149.63 3.12673 146.888 4.33079C144.146 5.53241 144.867 10.6315 144.867 10.6315C152.405 16.8585 157.886 24.4824 161.881 32.2614Z" fill="white"/>
<path d="M190.237 55.6688C189.303 66.0935 183.114 77.1599 183.114 77.1599C187.483 70.5134 190.472 64.2705 192.401 58.4553C191.86 57.4706 191.131 56.5444 190.237 55.6688Z" fill="white"/>
<path d="M189.424 54.9281C188.405 54.0524 187.227 53.2301 185.919 52.4634C184.833 63.6804 181.092 72.1109 181.092 72.1109C183.256 69.6564 184.917 65.6886 184.917 65.6886C184.987 68.5036 182.679 74.0592 182.679 74.0592C186.652 67.6784 188.553 59.9209 189.424 54.9281Z" fill="white"/>
<path d="M165.95 76.768C163.544 75.4732 160.057 74.0934 152.889 68.5439C158.314 72.6277 167.373 75.2376 167.373 75.2376C147.374 65.0859 143.014 55.8856 143.014 55.8856C141.089 55.8225 139.929 57.0441 139.166 57.4616C138.404 57.8811 136.324 57.8437 136.324 57.8437C143.947 70.1329 165.95 76.768 165.95 76.768Z" fill="white"/>
<path d="M157.003 43.6896C150.358 42.5901 145.478 42.1637 145.478 42.1637C148.136 41.4976 150.392 40.6866 152.326 39.8036C142.975 32.9939 133.657 31.317 133.657 31.317C133.657 31.317 131.926 31.894 131.685 34.7794C131.446 37.6677 129.233 38.0522 129.233 38.0522C164.158 47.3832 169.401 76.1508 169.401 76.1508C167.021 63.1621 161.969 54.8651 161.969 54.8651C167.308 60.3471 170.989 74.2757 170.989 74.2757C169.804 59.8791 163.834 50.1738 157.003 43.6896Z" fill="white"/>
<path d="M167.454 45.7709C172.483 61.2845 172.578 74.4193 172.578 74.4193C176.299 67.2047 175.32 50.6059 175.32 50.6059C178.784 57.39 178.35 75.8623 178.35 75.8623C180.127 66.1553 180.196 57.2781 179.177 49.2895C175.489 47.8755 171.434 46.7142 167.454 45.7709Z" fill="white"/>
<path d="M5.37191 140.298H8.81417C10.8566 140.329 12.7118 139.888 14.3782 138.977C16.0763 138.065 16.9557 136.493 17.0192 134.261C17.0192 132.91 16.7986 131.841 16.3591 131.054C15.9184 130.269 15.3219 129.704 14.567 129.358C13.8125 128.98 12.9319 128.743 11.9268 128.65C10.9201 128.587 9.85185 128.555 8.71976 128.555H5.37191V140.298ZM2.11766 125.726H10.6059C16.8934 125.631 20.1156 128.478 20.2726 134.261C20.2413 136.4 19.534 138.113 18.1513 139.402C16.7673 140.722 15.0391 141.539 12.9641 141.854V141.948C14.2207 142.106 15.1326 142.514 15.6991 143.173C16.0128 143.489 16.2798 143.88 16.5008 144.351C16.7518 144.824 16.987 145.342 17.208 145.909L22.8192 158.64H19.235L14.473 147.513C13.5928 145.468 12.6809 144.196 11.7376 143.692C11.266 143.41 10.7312 143.236 10.1339 143.173C9.53648 143.141 8.8451 143.127 8.0589 143.127H5.37191V158.64H2.11766V125.726Z" fill="white"/>
<path d="M42.8501 152.981C42.8184 154.806 42.8806 156.693 43.0389 158.64H40.1619V154.35H40.0671C39.8474 154.884 39.5487 155.418 39.1718 155.952C38.7942 156.519 38.3063 157.054 37.7097 157.555C37.1119 158.027 36.3729 158.405 35.4936 158.688C34.613 159.034 33.5431 159.206 32.2865 159.206C29.3627 159.174 27.2564 158.295 25.9672 156.566C24.6772 154.868 24.0493 152.667 24.0807 149.964V134.591H27.0517V149.209C27.0517 151.504 27.5075 153.296 28.4194 154.585C29.2992 155.969 30.7463 156.66 32.7581 156.66C34.1096 156.66 35.2575 156.377 36.2008 155.811C37.1433 155.277 37.8664 154.585 38.3698 153.737C38.9362 152.857 39.3281 151.914 39.5487 150.907C39.7688 149.901 39.8787 148.895 39.8787 147.889V134.591H42.8501V152.981Z" fill="white"/>
<path d="M52.3758 156.66C53.8534 156.66 55.1108 156.267 56.1481 155.481C57.154 154.757 57.6729 153.721 57.7042 152.369C57.6729 150.955 57.0918 149.839 55.9597 149.021C54.8288 148.234 53.4916 147.528 51.9518 146.898C51.2274 146.553 50.5368 146.192 49.8768 145.814C49.2163 145.436 48.5872 145.012 47.9907 144.541C47.4555 144.038 47.0152 143.457 46.6697 142.797C46.3234 142.168 46.1509 141.429 46.1509 140.58C46.1818 138.192 47.0002 136.493 48.6031 135.487C50.1425 134.514 51.9355 134.026 53.9795 134.026C54.6705 134.026 55.5666 134.091 56.6665 134.222C57.7677 134.421 58.8513 134.731 59.9208 135.157L59.6383 137.703C57.9089 136.982 56.1322 136.602 54.3099 136.571C52.7689 136.571 51.542 136.854 50.6313 137.415C50.1588 137.697 49.7974 138.087 49.5468 138.587C49.2636 139.086 49.1215 139.742 49.1215 140.554C49.1215 141.056 49.2945 141.524 49.6404 141.96C49.9863 142.368 50.442 142.742 51.0081 143.085C51.5745 143.398 52.2183 143.725 52.9422 144.07C53.665 144.384 54.3722 144.732 55.064 145.109C56.6356 145.773 58.0029 146.655 59.1667 147.759C60.3293 148.863 60.9271 150.392 60.9584 152.347C60.9584 153.609 60.7065 154.665 60.204 155.517C59.6693 156.4 58.9934 157.11 58.1758 157.646C56.4154 158.685 54.5447 159.206 52.5642 159.206C50.2373 159.206 47.9907 158.828 45.8209 158.075L46.1041 155.151C47.9268 156.125 50.0184 156.629 52.3758 156.66Z" fill="white"/>
<path d="M68.3619 156.66C69.8386 156.66 71.0973 156.267 72.1346 155.481C73.1405 154.757 73.6593 153.721 73.6907 152.369C73.6593 150.955 73.0774 149.839 71.9457 149.021C70.8141 148.234 69.4773 147.528 67.9378 146.898C67.2139 146.553 66.5225 146.192 65.8625 145.814C65.202 145.436 64.5733 145.012 63.9763 144.541C63.4408 144.038 63.0017 143.457 62.6558 142.797C62.3087 142.168 62.137 141.429 62.137 140.58C62.1679 138.192 62.9854 136.493 64.5896 135.487C66.1294 134.514 67.9216 134.026 69.9648 134.026C70.6566 134.026 71.5526 134.091 72.6534 134.222C73.7529 134.421 74.8382 134.731 75.9068 135.157L75.6236 137.703C73.895 136.982 72.1183 136.602 70.2952 136.571C68.7542 136.571 67.5285 136.854 66.6173 137.415C66.1457 137.697 65.7839 138.087 65.532 138.587C65.2496 139.086 65.108 139.742 65.108 140.554C65.108 141.056 65.2801 141.524 65.6269 141.96C65.9723 142.368 66.4285 142.742 66.9946 143.085C67.5598 143.398 68.2044 143.725 68.9275 144.07C69.651 144.384 70.3583 144.732 71.0501 145.109C72.6212 145.773 73.989 146.655 75.1528 147.759C76.315 148.863 76.9128 150.392 76.9441 152.347C76.9441 153.609 76.693 154.665 76.1901 155.517C75.6558 156.4 74.9798 157.11 74.1623 157.646C72.4011 158.685 70.5312 159.206 68.5507 159.206C66.2234 159.206 63.9763 158.828 61.807 158.075L62.0894 155.151C63.9124 156.125 66.0037 156.629 68.3619 156.66Z" fill="white"/>
<path d="M79.9151 134.591H82.8861V158.64H79.9151V134.591ZM82.8861 128.178H79.9151V124.217H82.8861V128.178Z" fill="white"/>
<path d="M101.56 146.522H100.712C99.422 146.522 98.1332 146.553 96.8444 146.617C95.4918 146.741 94.2661 147.008 93.1661 147.418C92.065 147.794 91.1852 148.376 90.5255 149.162C89.8016 149.948 89.4407 151.001 89.4407 152.321C89.4407 153.862 89.9428 154.963 90.9496 155.622C91.8928 156.313 93.0555 156.66 94.4394 156.66C96.1677 156.66 97.5354 156.313 98.5417 155.622C99.5164 154.963 100.224 154.177 100.664 153.264C101.136 152.291 101.402 151.331 101.466 150.388C101.528 149.414 101.56 148.613 101.56 147.983V146.522ZM101.844 154.773H101.749C101.057 156.188 100.004 157.272 98.589 158.027C97.174 158.782 95.6802 159.174 94.109 159.206C92.4426 159.174 91.0908 158.907 90.0539 158.405C88.9841 157.933 88.1678 157.335 87.6013 156.612C86.5946 155.042 86.1229 153.642 86.1868 152.416C86.1868 150.405 86.6735 148.817 87.6485 147.653C88.5914 146.49 89.8016 145.658 91.28 145.154C92.7568 144.62 94.3609 144.274 96.0904 144.116C97.7877 144.022 99.4219 143.975 100.994 143.975H101.56V142.749C101.654 138.631 99.8309 136.571 96.0904 136.571C93.606 136.541 91.2483 137.201 89.0158 138.552V135.723C91.2483 134.656 93.606 134.09 96.0904 134.026C101.78 133.963 104.593 136.949 104.531 142.985V153.595C104.5 155.418 104.578 157.1 104.766 158.64H101.844V154.773Z" fill="white"/>
</svg>
