<svg width="73" height="73" viewBox="0 0 73 73" fill="none" xmlns="http://www.w3.org/2000/svg">
<g clip-path="url(#clip0)">
<path d="M56.9969 3.30396H62.6341V7.06202C58.6404 7.06331 54.8098 8.64293 51.9775 11.4577C51.5767 10.6785 51.365 9.81663 51.36 8.94106C51.3598 5.82815 53.884 3.30396 56.9969 3.30396Z" fill="#383856"/>
<path d="M62.6339 8.94105C62.6415 12.0464 60.1311 14.5693 57.0269 14.5781C54.8874 14.5831 52.9306 13.3744 51.9774 11.4577C54.8097 8.6442 58.6403 7.06329 62.6339 7.06201V8.94105Z" fill="#FFD33F"/>
<path d="M28.8116 47.1478L18.4594 56.4652C17.228 57.5726 17.0463 59.4365 18.0398 60.7619C19.1009 62.1762 21.1077 62.4618 22.5206 61.4008C22.5557 61.3746 22.5908 61.3469 22.6258 61.3181L33.8223 52.1585L41.3385 44.6424L51.3598 52.1585L49.3556 66.181C49.1151 67.8646 50.2864 69.4255 51.9699 69.6648C52.1128 69.6849 52.2581 69.6962 52.4034 69.6962H52.4798C54.0055 69.7037 55.3184 68.6201 55.6015 67.1206C56.6213 61.7104 58.876 49.6533 58.876 49.6533L48.8546 40.8846L37.5805 34.6212L28.8116 47.1478Z" fill="#EA3836"/>
<path d="M66.2192 28.4427L63.8867 29.6101L56.3706 19.5887L48.8544 14.578L32.5696 12.0728L25.5421 19.074L29.3127 23.3807L35.075 18.3362L43.8437 20.8416L37.5802 34.621L48.8543 40.8844L53.8651 27.105L62.6339 37.1264L68.7157 34.4369L66.2192 28.4427Z" fill="#91CECE"/>
<path d="M72.7693 29.2682L72.7368 29.1892C72.0691 27.4956 70.155 26.665 68.4615 27.3327C68.3712 27.3691 68.2811 27.4079 68.1947 27.4518L66.2193 28.4427L68.7158 34.4368L71.0959 33.3859C72.6704 32.6881 73.4108 30.868 72.7693 29.2682Z" fill="#FFD33F"/>
<path d="M23.2309 21.3764C22.1423 22.4412 22.1235 24.1849 23.1872 25.2735C24.2156 26.3257 25.8892 26.3833 26.989 25.4062L29.3127 23.3806L25.5421 19.0739L23.2309 21.3764Z" fill="#FFD33F"/>
<path d="M23.8009 9.56738H7.51611V12.0728H23.8009V9.56738Z" fill="#383856"/>
<path d="M5.01075 9.56738H2.50537V12.0728H5.01075V9.56738Z" fill="#383856"/>
<path d="M15.0321 19.5887H12.5267V22.0941H15.0321V19.5887Z" fill="#383856"/>
<path d="M10.0214 19.5887H0V22.0941H10.0214V19.5887Z" fill="#383856"/>
<path d="M18.7902 29.6102H6.26343V32.1156H18.7902V29.6102Z" fill="#383856"/>
<path d="M23.8009 39.6317H2.50537V42.137H23.8009V39.6317Z" fill="#383856"/>
<path d="M15.0321 49.6531H5.01074V52.1585H15.0321V49.6531Z" fill="#383856"/>
<path d="M2.50538 49.6531H0V52.1585H2.50538V49.6531Z" fill="#383856"/>
<path d="M11.2742 59.6745H2.50537V62.1799H11.2742V59.6745Z" fill="#383856"/>
<path d="M23.3749 25.4038C24.4122 26.3071 25.9567 26.3071 26.994 25.4038L29.3127 23.3808L27.8684 21.7297L23.3749 25.4038Z" fill="#FFAC3E"/>
<path d="M35.075 15.8308L27.8658 21.7297L29.3102 23.3806L35.075 18.336L43.8438 20.8414L45.0964 18.336L35.075 15.8308Z" fill="#83B2B7"/>
<path d="M63.4043 34.0698L55.1179 24.5995L53.8652 27.1049L62.6339 37.1262L68.7157 34.4368L67.7511 32.1193L63.4043 34.0698Z" fill="#83B2B7"/>
<path d="M67.7512 32.1157L68.7157 34.4331L71.0957 33.3822C72.4788 32.7697 73.2428 31.2726 72.9272 29.7932L67.7512 32.1157Z" fill="#FFAC3E"/>
<path d="M43.1134 37.695L48.8544 40.8844L53.8652 27.1049L55.1179 24.5995L43.1134 37.695Z" fill="#83B2B7"/>
<path d="M49.7952 68.2303C49.7463 68.1515 49.6999 68.0712 49.6586 67.9885C49.7001 68.0675 49.7464 68.1514 49.7952 68.2303Z" fill="#EA3836"/>
<path d="M50.6183 69.1161C50.5306 69.0509 50.4466 68.9808 50.3678 68.9056C50.4479 68.9808 50.5306 69.0509 50.6183 69.1161Z" fill="#EA3836"/>
<path d="M50.1647 68.7164C50.0958 68.6426 50.0394 68.5636 49.9731 68.4847C50.0345 68.5686 50.0958 68.6426 50.1647 68.7164Z" fill="#EA3836"/>
<path d="M49.5234 67.6692C49.4946 67.5902 49.4633 67.5113 49.4407 67.4299C49.4633 67.5126 49.4946 67.5902 49.5234 67.6692Z" fill="#EA3836"/>
<path d="M49.3656 67.0328C49.3568 66.9627 49.3405 66.8938 49.3355 66.8224C49.3405 66.8937 49.3556 66.9627 49.3656 67.0328Z" fill="#EA3836"/>
<path d="M51.6629 69.6008C51.3622 69.5218 51.0767 69.3979 50.8136 69.2338C51.0767 69.3991 51.3624 69.5231 51.6629 69.6008Z" fill="#EA3836"/>
<path d="M49.6587 67.9886C49.6074 67.8846 49.5622 67.7781 49.5234 67.6692C49.5622 67.7781 49.6074 67.8846 49.6587 67.9886Z" fill="#D62121"/>
<path d="M50.3665 68.9056C50.2976 68.8443 50.2275 68.7802 50.1647 68.7164C50.2325 68.7828 50.2976 68.8428 50.3665 68.9056Z" fill="#D62121"/>
<path d="M50.8136 69.2338C50.7484 69.195 50.6796 69.1611 50.6181 69.116C50.6796 69.1611 50.7486 69.1949 50.8136 69.2338Z" fill="#D62121"/>
<path d="M49.4407 67.4299C49.407 67.2996 49.3819 67.1669 49.3656 67.0328C49.3819 67.1669 49.407 67.2996 49.4407 67.4299Z" fill="#D62121"/>
<path d="M49.3355 66.8224C49.3205 66.6083 49.3268 66.394 49.3556 66.1811C49.3268 66.394 49.3192 66.6094 49.3355 66.8224Z" fill="#D62121"/>
<path d="M49.9731 68.4847C49.9092 68.4046 49.8503 68.3206 49.7952 68.2342C49.8566 68.318 49.9092 68.402 49.9731 68.4847Z" fill="#D62121"/>
<path d="M48.8544 40.8843L43.2173 37.7526L56.3704 50.9057L51.9962 69.6508C52.1302 69.6759 52.2668 69.6909 52.4032 69.6959H52.4796C54.0054 69.7035 55.3182 68.6199 55.6014 67.1204C56.6211 61.7101 58.8758 49.653 58.8758 49.653L48.8544 40.8843Z" fill="#D62121"/>
<path d="M31.3169 50.9058L18.2002 60.9361C19.3301 62.2388 21.2893 62.4079 22.626 61.3193L33.8225 52.1585L41.3386 44.6424L38.8332 43.3897L31.3169 50.9058Z" fill="#D62121"/>
<path d="M61.3812 7.12346V7.68836C61.3812 10.8013 58.857 13.3255 55.7441 13.3255C54.5628 13.3242 53.4128 12.9433 52.4634 12.2406C54.271 14.7585 57.7773 15.3334 60.2952 13.5258C61.7709 12.466 62.6427 10.7573 62.6339 8.94105V7.06201C62.2143 7.06201 61.7971 7.08953 61.3812 7.12346Z" fill="#FFAC3E"/>
<path d="M62.6339 3.30396C62.6891 4.68696 62.2444 6.0423 61.3812 7.12333C61.7971 7.08954 62.2143 7.06188 62.6339 7.06188V3.30396Z" fill="#202033"/>
</g>
<defs>
<clipPath id="clip0">
<rect width="73" height="73" fill="white"/>
</clipPath>
</defs>
</svg>
