<svg width="73" height="73" viewBox="0 0 73 73" fill="none" xmlns="http://www.w3.org/2000/svg">
<path d="M66.4414 43.0586H6.55859V1.42578H66.4414V43.0586Z" fill="#F3EEE9"/>
<path d="M36.5 1.42578H66.4414V43.0586H36.5V1.42578Z" fill="#E9DFDA"/>
<path d="M47.1934 73H25.8066V66.584C25.8066 62.2599 29.3243 58.7422 33.6484 58.7422H39.3516C43.6757 58.7422 47.1934 62.2599 47.1934 66.584V73Z" fill="#00ECCF"/>
<path d="M73 73H51.6133V66.584C51.6133 62.2599 55.131 58.7422 59.4551 58.7422H65.1582C69.4823 58.7422 73 62.2599 73 66.584V73Z" fill="#CF0050"/>
<path d="M21.3867 73H0V66.584C0 62.2599 3.51767 58.7422 7.8418 58.7422H13.5449C17.869 58.7422 21.3867 62.2599 21.3867 66.584V73Z" fill="#FFDA2E"/>
<path d="M0 0H73V4.27734H0V0Z" fill="#00429B"/>
<path d="M42.916 24.9512H47.1934V32.3652H42.916V24.9512Z" fill="#00429B"/>
<path d="M17.252 24.9512H21.5293V32.3652H17.252V24.9512Z" fill="#005FDF"/>
<path d="M34.3613 10.6934H38.6387V32.3652H34.3613V10.6934Z" fill="#005FDF"/>
<path d="M25.8066 16.3965H30.084V32.3652H25.8066V16.3965Z" fill="#005FDF"/>
<path d="M51.4707 20.6738H55.748V32.3652H51.4707V20.6738Z" fill="#00429B"/>
<path d="M36.5 10.6934H38.6387V32.3652H36.5V10.6934Z" fill="#00429B"/>
<path d="M36.5 0H73V4.27734H36.5V0Z" fill="#002659"/>
<path d="M39.3516 58.7422H36.5V73H47.1934V66.584C47.1934 62.2599 43.6757 58.7422 39.3516 58.7422Z" fill="#00CAB1"/>
<path d="M36.5 63.0195C32.1759 63.0195 28.6582 59.5019 28.6582 55.1777C28.6582 50.8536 32.1759 47.3359 36.5 47.3359C40.8241 47.3359 44.3418 50.8536 44.3418 55.1777C44.3418 59.5019 40.8241 63.0195 36.5 63.0195Z" fill="#FFDFCF"/>
<path d="M62.3066 63.0195C57.9825 63.0195 54.4648 59.5019 54.4648 55.1777C54.4648 50.8536 57.9825 47.3359 62.3066 47.3359C66.6308 47.3359 70.1484 50.8536 70.1484 55.1777C70.1484 59.5019 66.6308 63.0195 62.3066 63.0195Z" fill="#FFCEBF"/>
<path d="M10.6934 63.0195C6.36923 63.0195 2.85156 59.5019 2.85156 55.1777C2.85156 50.8536 6.36923 47.3359 10.6934 47.3359C15.0175 47.3359 18.5352 50.8536 18.5352 55.1777C18.5352 59.5019 15.0175 63.0195 10.6934 63.0195Z" fill="#FFDFCF"/>
<path d="M44.3418 55.1777C44.3418 50.8536 40.8241 47.3359 36.5 47.3359V63.0195C40.8241 63.0195 44.3418 59.5019 44.3418 55.1777Z" fill="#FFCEBF"/>
</svg>
