<svg width="86" height="86" viewBox="0 0 86 86" fill="none" xmlns="http://www.w3.org/2000/svg">
<path d="M47.1613 23.1676H5.54834C2.48409 23.1676 0 25.6517 0 28.7159V56.4578C0 59.5221 2.48409 62.0062 5.54834 62.0062H8.32252C8.32252 62.0062 8.32252 68.4327 8.32252 72.5371C8.32252 73.7729 9.80971 74.39 10.6835 73.5162C14.6432 69.5565 22.1934 62.0063 22.193 62.0063H47.1613C50.2255 62.0063 52.7096 59.5223 52.7096 56.458V28.7159C52.7096 25.6517 50.2257 23.1676 47.1613 23.1676Z" fill="#FF8086"/>
<path d="M80.4517 12.0707H38.8387C35.7745 12.0707 33.2904 14.5548 33.2904 17.6191V45.361C33.2904 48.4252 35.7745 50.9093 38.8387 50.9093H63.8065L75.3095 62.4123C76.1832 63.2861 77.6773 62.6673 77.6773 61.4315V50.9093H80.4515C83.5158 50.9093 85.9998 48.4252 85.9998 45.361V17.6193C86 14.5548 83.5159 12.0707 80.4517 12.0707Z" fill="#FFE07D"/>
<path d="M59.6452 38.7724C58.6874 38.7724 57.9113 37.9962 57.9113 37.0384V36.6239C57.9113 34.6246 59.2103 32.892 61.142 32.3123C63.3242 31.6587 64.8467 29.6092 64.8467 27.3295C64.8467 24.558 62.4165 22.1272 59.645 22.1272C57.9924 22.1272 56.4753 22.8857 55.4824 24.2092C54.9068 24.9751 53.8231 25.131 53.0536 24.5545C52.2883 23.9795 52.1338 22.8931 52.7083 22.127C54.3392 19.9557 56.9318 18.6593 59.645 18.6593C64.3441 18.6593 68.3144 22.6296 68.3144 27.3293C68.3144 31.129 65.7746 34.5439 62.1389 35.6337C61.6837 35.7698 61.379 36.168 61.379 36.6239V37.0384C61.379 37.9962 60.6028 38.7724 59.6452 38.7724Z" fill="white"/>
<path d="M59.6452 44.3207C58.6874 44.3207 57.9045 43.5446 57.9045 42.5868C57.9045 41.629 58.674 40.8528 59.6316 40.8528H59.6452C60.603 40.8528 61.3791 41.629 61.3791 42.5868C61.379 43.5446 60.6028 44.3207 59.6452 44.3207Z" fill="white"/>
<path d="M26.3548 49.8693C25.397 49.8693 24.6209 49.0931 24.6209 48.1353V31.4901C24.6209 30.5323 25.397 29.7562 26.3548 29.7562C27.3126 29.7562 28.0887 30.5323 28.0887 31.4901V48.1353C28.0887 49.0931 27.3126 49.8693 26.3548 49.8693Z" fill="white"/>
<path d="M26.3684 55.4176C25.4106 55.4176 24.6277 54.6414 24.6277 53.6836C24.6277 52.7259 25.3972 51.9497 26.3548 51.9497H26.3684C27.3262 51.9497 28.1023 52.7259 28.1023 53.6836C28.1022 54.6414 27.326 55.4176 26.3684 55.4176Z" fill="white"/>
<path d="M36.0646 31.4901V12.8137C34.4131 13.7748 33.2904 15.5707 33.2904 17.6191V45.361C33.2904 48.4252 35.7745 50.9093 38.8387 50.9093H63.8065L75.3095 62.4123C76.1832 63.2861 77.6775 62.6673 77.6775 61.4315V50.9093H80.4517C82.5002 50.9093 84.2966 49.7866 85.2578 48.1351H52.7096C43.5168 48.1353 36.0646 40.683 36.0646 31.4901Z" fill="#FFD064"/>
<path d="M2.77417 42.5869V23.9088C1.1227 24.8699 0 26.6675 0 28.7159V56.4578C0 59.5221 2.48409 62.0061 5.54834 62.0061H8.32252V72.5381C8.32252 73.7703 9.80551 74.3942 10.6768 73.5229C14.6344 69.5651 22.1934 62.0061 22.193 62.0061H47.1613C49.2098 62.0061 51.0069 60.8834 51.9679 59.232H19.4194C10.2264 59.2321 2.77417 51.7797 2.77417 42.5869Z" fill="#E5646E"/>
</svg>
