<svg width="86" height="86" viewBox="0 0 86 86" fill="none" xmlns="http://www.w3.org/2000/svg">
<g clip-path="url(#clip0)">
<path d="M14.8185 26.8131C1.02124 26.8131 2.5511 43.5915 2.61408 55.7502C2.61644 56.2094 2.85697 56.6233 3.25035 56.8605C4.7792 57.7821 8.97807 59.937 14.8185 59.937C20.6589 59.937 24.8578 57.7821 26.3867 56.8605C26.7799 56.6233 27.0206 56.2094 27.0229 55.7502C27.0859 43.5915 28.6158 26.8131 14.8185 26.8131Z" fill="#694B4B"/>
<path d="M13.9296 26.8477C1.09767 27.5671 2.55261 43.8621 2.61409 55.7502C2.61644 56.2095 2.85697 56.6235 3.25035 56.8605C4.7792 57.7821 8.97808 59.937 14.8185 59.937L18.3054 35.5298" fill="#5A4146"/>
<path d="M14.8185 26.8131C6.97337 26.8131 6.42865 36.2926 6.42865 36.2926C10.9505 35.5298 13.7291 37.4366 18.3054 35.5298L14.8185 59.937C20.6591 59.937 24.8578 57.7821 26.3867 56.8605C26.7799 56.6233 27.0206 56.2094 27.0229 55.7502C27.0859 43.5915 28.6158 26.8131 14.8185 26.8131Z" fill="#694B4B"/>
<path d="M27.023 55.7502C27.077 45.3024 28.2049 31.4534 19.7696 27.7601C19.6224 28.5244 19.3559 30.6581 20.0486 32.043C21.7919 35.5299 23.5354 35.5299 25.2786 38.1448C27.0219 47.7333 21.9476 57.9103 20.2622 59.2959C23.2484 58.5857 25.389 57.4618 26.3867 56.8605C26.7799 56.6235 27.0206 56.2095 27.023 55.7502Z" fill="#785550"/>
<path d="M28.0279 58.3948L20.2498 55.154C19.6002 54.8834 19.177 54.2486 19.177 53.5447V51.4382H10.4602V53.5447C10.4602 54.2486 10.037 54.8834 9.38742 55.154L1.60931 58.3948C0.634753 58.8009 0 59.7531 0 60.8088V64.2956C0 65.2584 0.780549 66.039 1.74334 66.039H27.8937C28.8565 66.039 29.637 65.2584 29.637 64.2956V60.8088C29.6372 59.7531 29.0024 58.8009 28.0279 58.3948Z" fill="#E6AF78"/>
<path d="M28.0279 58.3947L20.5074 55.2611L14.8185 57.7165L9.12959 55.2613L1.60931 58.3949C0.634753 58.8009 0 59.7531 0 60.8088V64.2956C0 65.2584 0.780549 66.039 1.74334 66.039H27.8937C28.8565 66.039 29.637 65.2584 29.637 64.2956V60.8088C29.6372 59.7531 29.0024 58.8009 28.0279 58.3947Z" fill="#EFF2FA"/>
<path d="M19.177 51.4382H10.4602V53.5447C10.4602 54.2486 10.037 54.8834 9.38742 55.154L8.17267 55.6602C17.4689 58.0306 19.177 51.4382 19.177 51.4382Z" fill="#D29B6E"/>
<path d="M4.24859 61.7669L0.749811 58.9838C0.281011 59.4632 0 60.1116 0 60.8088V64.2957C0 65.2585 0.780549 66.039 1.74334 66.039H5.2302V63.8091C5.23003 63.0146 4.86907 62.2632 4.24859 61.7669Z" fill="#E4EAF6"/>
<path d="M29.6372 64.2955V60.8086C29.6372 60.1168 29.3609 59.4729 28.8986 58.9946L25.3884 61.7667C24.7681 62.2629 24.407 63.0142 24.407 63.8087V66.0385H27.8938C28.8566 66.0388 29.6372 65.2583 29.6372 64.2955Z" fill="#E4EAF6"/>
<path d="M14.9494 64.2955H14.6878C14.2787 64.2955 13.9469 63.9638 13.9469 63.5546V57.7186H15.6903V63.5545C15.6903 63.9638 15.3585 64.2955 14.9494 64.2955Z" fill="#E4EAF6"/>
<path d="M14.8185 57.7167L9.82953 53.975C9.50922 53.7348 9.05301 53.8129 8.83096 54.146L7.84515 55.6246L10.9039 59.9068C11.1363 60.2324 11.5945 60.296 11.907 60.0461L14.8185 57.7167Z" fill="#E4EAF6"/>
<path d="M14.8185 57.7167L19.8075 53.975C20.1278 53.7348 20.584 53.8129 20.8061 54.146L21.7919 55.6246L18.7332 59.9068C18.5007 60.2324 18.0425 60.296 17.7301 60.0461L14.8185 57.7167Z" fill="#E4EAF6"/>
<path d="M19.177 34.6584C14.8185 39.0167 6.26523 35.5299 6.26523 42.5032L6.80642 47.6399C6.9109 48.789 7.57706 49.8119 8.58538 50.3722L13.5485 53.1294C14.3383 53.5682 15.2986 53.5682 16.0884 53.1294L21.0515 50.3722C22.0601 49.8119 22.7261 48.7888 22.8305 47.6399L23.4553 41.5393C23.4998 41.1056 23.5092 40.6694 23.4946 40.2343C23.1687 38.0155 20.0486 36.4016 19.177 34.6584Z" fill="#F0C087"/>
<path d="M6.26523 42.5033L6.80642 47.6399C6.9109 48.789 7.57706 49.8119 8.58538 50.3722L13.5485 53.1294C14.0966 53.434 14.7251 53.5128 15.3234 53.3947C15.3234 53.3947 12.8212 52.6363 11.3318 48.6049C10.8756 47.37 10.2422 40.8323 10.7871 40.0333C11.8641 38.454 17.8695 38.2899 19.6439 35.3601C19.5562 35.2514 19.4753 35.1424 19.4014 35.0334C19.3955 35.0246 19.3883 35.0157 19.3822 35.0068C19.3051 34.8909 19.2352 34.7747 19.1768 34.658C14.8185 39.0167 6.26523 35.5299 6.26523 42.5033Z" fill="#E6AF78"/>
<path d="M21.1818 64.2955H18.9154C18.0971 64.2955 17.4336 64.9589 17.4336 65.7773V66.0388H22.6636V65.7773C22.6636 64.9588 22.0002 64.2955 21.1818 64.2955Z" fill="#E4EAF6"/>
<path d="M74.3731 54.3418V49.5544H62.0622V54.3418L68.2175 59.8134L74.3731 54.3418Z" fill="#E6AF78"/>
<path d="M83.8906 56.5813L75.4276 54.5901C75.2997 54.56 75.1822 54.5089 75.0723 54.4471L68.2175 58.4458L61.6301 54.2538C61.4595 54.4144 61.248 54.5336 61.0076 54.5902L52.5445 56.5815C51.3086 56.8722 50.4354 57.975 50.4354 59.2446V64.6011C50.4354 65.3565 51.0478 65.9691 51.8033 65.9691H84.6322C85.3876 65.9691 86.0002 65.3567 86.0002 64.6011V59.2446C85.9998 57.9748 85.1264 56.8721 83.8906 56.5813Z" fill="#EFF2FA"/>
<path d="M62.0622 49.5544V54.6057C69.8164 57.3993 74.3731 50.4073 74.3731 50.4073V49.5544H62.0622Z" fill="#D29B6E"/>
<path d="M59.3264 33.8238L59.9226 46.9359C59.9783 48.1609 60.5788 49.2967 61.5598 50.0324L64.3877 52.1533C65.098 52.6861 65.962 52.974 66.8497 52.974H69.5855C70.4733 52.974 71.3374 52.686 72.0475 52.1533L74.8754 50.0324C75.8564 49.2967 76.457 48.1607 76.5126 46.9359L77.1088 33.8238H59.3264Z" fill="#F0C087"/>
<path d="M66.1658 36.5595C68.9015 36.5595 73.0051 35.8757 73.9785 33.8238H59.3264L59.9224 46.9359C59.9782 48.1609 60.5786 49.2967 61.5596 50.0324L64.3875 52.1533C65.0978 52.6861 65.9619 52.974 66.8496 52.974H68.2175C66.8496 52.974 64.1139 50.2383 64.1139 46.8185C64.1139 45.146 64.1139 40.6631 64.1139 38.6112C64.1139 37.9274 64.7978 36.5595 66.1658 36.5595Z" fill="#E6AF78"/>
<path d="M80.9788 61.53L85.4106 57.5488C85.782 58.0191 85.9998 58.6107 85.9998 59.2443V64.6008C85.9998 65.3562 85.3874 65.9687 84.6319 65.9687H79.8445V64.0741C79.8445 63.1035 80.2567 62.1787 80.9788 61.53Z" fill="#E4EAF6"/>
<path d="M69.9274 65.9688H66.5076L66.9352 59.8134H69.5L69.9274 65.9688Z" fill="#5B5D6E"/>
<path d="M69.9274 58.4455H66.5076V58.8406C66.5076 59.7557 67.2493 60.4972 68.1643 60.4972H68.2704C69.1855 60.4972 69.9271 59.7555 69.9271 58.8406V58.4455H69.9274Z" fill="#515262"/>
<path d="M61.9659 52.8193L68.2173 58.4456C68.2173 58.4456 66.4666 59.3293 64.306 61.1107C63.8604 61.4782 63.1862 61.3293 62.9472 60.8035L60.0101 54.3421L60.9393 52.9485C61.1707 52.6013 61.656 52.5403 61.9659 52.8193Z" fill="#E4EAF6"/>
<path d="M74.4689 52.8193L68.2175 58.4456C68.2175 58.4456 69.9682 59.3293 72.1288 61.1107C72.5744 61.4782 73.2487 61.3293 73.4877 60.8035L76.4248 54.3421L75.4956 52.9485C75.2643 52.6013 74.779 52.5403 74.4689 52.8193Z" fill="#E4EAF6"/>
<path d="M72.3638 29.2927L73.0051 33.8238C75.932 34.4092 76.3538 39.0023 76.4146 40.3143C76.4256 40.5523 76.5016 40.7824 76.6307 40.9827L77.7476 42.7149C77.7476 42.7149 77.3653 39.8509 79.1155 37.9275C79.1153 37.9275 79.7162 26.557 72.3638 29.2927Z" fill="#785550"/>
<path d="M78.4335 42.4225L77.661 45.5119C77.5695 45.8779 77.2406 46.1347 76.8633 46.1347C76.4486 46.1347 76.0989 45.826 76.0473 45.4145L75.6524 42.2547C75.5468 41.4096 76.2057 40.6633 77.0572 40.6633H77.06C77.9812 40.6632 78.6569 41.5289 78.4335 42.4225Z" fill="#F0C087"/>
<path d="M59.9817 28.0674L60.9934 28.7584C56.4196 32.1354 57.2744 37.9275 57.2744 37.9275C58.6423 39.2954 58.6423 42.7149 58.6423 42.7149L60.0102 41.347C60.0102 41.347 59.4823 37.3955 62.0621 35.8756C64.4559 34.465 66.5504 35.1918 68.6877 35.1918C74.4155 35.1918 76.0186 33.033 75.7408 30.4043C75.597 29.0439 73.5172 26.2106 68.2177 26.3007C66.0786 26.337 62.0621 26.9846 59.9817 28.0674Z" fill="#694B4B"/>
<path d="M59.5828 34.5932C59.5828 34.5932 58.8561 31.7292 60.9934 28.7584C56.4196 32.1354 57.2744 37.9274 57.2744 37.9274C58.6423 39.2954 58.6423 42.7149 58.6423 42.7149L60.0102 41.3469C60.0102 41.3469 59.4823 37.3955 62.062 35.8755C64.4557 34.4649 66.5503 35.1917 68.6875 35.1917C69.6191 35.1917 70.4308 35.1292 71.1539 35.0224C66.7428 35.1704 64.1424 31.8292 59.5828 34.5932Z" fill="#5A4146"/>
<path d="M58.0013 42.4225L58.7738 45.5119C58.8654 45.8779 59.1942 46.1347 59.5717 46.1347C59.9864 46.1347 60.3361 45.826 60.3876 45.4145L60.7825 42.2547C60.8882 41.4096 60.2293 40.6633 59.3777 40.6633H59.3748C58.454 40.6632 57.7779 41.5289 58.0013 42.4225Z" fill="#E6AF78"/>
<path d="M76.4248 64.601H73.005C72.2496 64.601 71.6371 65.2134 71.6371 65.9689H77.7924C77.7926 65.2134 77.1802 64.601 76.4248 64.601Z" fill="#E4EAF6"/>
<path d="M43.0259 9.6582C19.5705 9.6582 22.1713 38.1816 22.2785 58.8513C22.2825 59.6318 22.6913 60.3358 23.36 60.7387C25.9592 62.3056 33.0972 65.9688 43.0259 65.9688C52.9547 65.9688 60.0927 62.3056 62.6918 60.7387C63.3603 60.3356 63.7694 59.6318 63.7734 58.8513C63.8805 38.1814 66.4814 9.6582 43.0259 9.6582Z" fill="#694B4B"/>
<path d="M41.5146 9.7168C19.7003 10.9398 22.1737 38.6413 22.2785 58.8511C22.2825 59.6316 22.6913 60.3356 23.36 60.7385C25.9592 62.3054 33.0972 65.9686 43.0259 65.9686L48.9534 24.4765" fill="#5A4146"/>
<path d="M43.026 9.6582C29.6893 9.6582 28.7631 25.7734 28.7631 25.7734C36.4502 24.4769 41.1736 27.7183 48.9534 24.4769L43.026 65.9689C52.9547 65.9689 60.0927 62.3057 62.6919 60.7389C63.3604 60.3358 63.7694 59.632 63.7734 58.8515C63.8806 38.1814 66.4814 9.6582 43.026 9.6582Z" fill="#694B4B"/>
<path d="M63.7734 58.8514C63.8655 41.0901 65.7827 17.547 51.4429 11.2683C51.1928 12.5677 50.7399 16.195 51.917 18.5494C54.8808 24.4768 57.8445 24.4768 60.8081 28.9225C63.7717 45.223 55.1452 62.524 52.2802 64.8791C57.3565 63.6718 60.9956 61.7613 62.6917 60.7389C63.3604 60.3358 63.7694 59.632 63.7734 58.8514Z" fill="#785550"/>
<path d="M65.4818 63.3471L52.259 57.8375C51.1546 57.3775 50.4352 56.2983 50.4352 55.1017V51.5206H35.6167V55.1017C35.6167 56.2981 34.8973 57.3773 33.7929 57.8375L20.5701 63.3471C18.9136 64.0372 17.8344 65.656 17.8344 67.4507V73.3781C17.8344 75.0148 19.1613 76.3419 20.798 76.3419H65.2537C66.8904 76.3419 68.2174 75.015 68.2174 73.3781V67.4507C68.2175 65.6558 67.1383 64.0372 65.4818 63.3471Z" fill="#E6AF78"/>
<path d="M65.4818 63.3472L52.6971 58.0202L43.026 62.1941L33.3548 58.0202L20.5701 63.3472C18.9136 64.0373 17.8344 65.656 17.8344 67.4508V73.3782C17.8344 75.0149 19.1613 76.342 20.798 76.342H65.2537C66.8904 76.342 68.2174 75.0151 68.2174 73.3782V67.4508C68.2175 65.6559 67.1383 64.0373 65.4818 63.3472Z" fill="#B4E1FA"/>
<path d="M50.4352 51.5206H35.6167V55.1017C35.6167 56.2981 34.8973 57.3773 33.7929 57.8375L31.7277 58.6982C47.5314 62.7276 50.4352 51.5206 50.4352 51.5206Z" fill="#D29B6E"/>
<path d="M25.0572 69.0795L19.1093 64.3483C18.3124 65.1633 17.8347 66.2654 17.8347 67.4505V73.378C17.8347 75.0147 19.1617 76.3416 20.7984 76.3416H26.7258V72.5509C26.7255 71.2004 26.1117 69.9232 25.0572 69.0795Z" fill="#A0D2F0"/>
<path d="M68.2175 73.378V67.4506C68.2175 66.2744 67.7477 65.18 66.9619 64.3668L60.9947 69.0795C59.9402 69.9232 59.3263 71.2005 59.3263 72.5509V76.3416H65.2537C66.8906 76.3418 68.2175 75.0148 68.2175 73.378Z" fill="#A0D2F0"/>
<path d="M43.0259 73.378C42.2076 73.378 41.5441 72.7145 41.5441 71.8962V62.1973H44.5077V71.8963C44.5077 72.7147 43.8443 73.378 43.0259 73.378Z" fill="#A0D2F0"/>
<path d="M43.0259 62.194L34.5445 55.8328C34.0001 55.4245 33.2243 55.5574 32.8469 56.1236L31.1711 58.6374L36.3709 65.917C36.7661 66.4704 37.5451 66.5785 38.0761 66.1537L43.0259 62.194Z" fill="#A0D2F0"/>
<path d="M43.0259 62.194L51.5073 55.8328C52.0517 55.4245 52.8276 55.5574 53.205 56.1236L54.8808 58.6374L49.681 65.917C49.2858 66.4704 48.5067 66.5785 47.9758 66.1537L43.0259 62.194Z" fill="#A0D2F0"/>
<path d="M50.4352 22.9949C43.0259 30.4041 28.4853 24.4767 28.4853 36.3316L29.4056 45.0641C29.5829 47.0174 30.7155 48.7565 32.43 49.7089L40.8672 54.3962C42.21 55.1422 43.8424 55.1422 45.1852 54.3962L53.6224 49.7089C55.3368 48.7562 56.4693 47.0172 56.6468 45.0641L57.7091 34.6929C57.7846 33.9558 57.8008 33.2142 57.7757 32.4743C57.2209 28.7023 51.917 25.9585 50.4352 22.9949Z" fill="#F0C087"/>
<path d="M28.4853 36.3316L29.4056 45.0641C29.5829 47.0174 30.7155 48.7565 32.43 49.7089L40.8672 54.3962C41.7989 54.9138 42.8674 55.048 43.8844 54.8472C43.8844 54.8472 39.6305 53.5583 37.0988 46.7046C36.3233 44.605 35.2465 33.4914 36.1727 32.133C38.0034 29.4481 48.2128 29.1692 51.2295 24.1885C51.0804 24.0035 50.9428 23.8184 50.8172 23.6328C50.8069 23.6179 50.7948 23.6028 50.7847 23.5878C50.6537 23.3909 50.5348 23.1934 50.4355 22.9949C43.026 30.4041 28.4853 24.4767 28.4853 36.3316Z" fill="#E6AF78"/>
<path d="M54.8808 73.3781H48.9534C48.135 73.3781 47.4716 74.0415 47.4716 74.8599V76.3417H56.3626V74.8599C56.3626 74.0415 55.6992 73.3781 54.8808 73.3781Z" fill="#A0D2F0"/>
</g>
<defs>
<clipPath id="clip0">
<rect width="86" height="86" fill="white"/>
</clipPath>
</defs>
</svg>
