<svg width="82" height="82" viewBox="0 0 82 82" fill="none" xmlns="http://www.w3.org/2000/svg">
<g clip-path="url(#clip0)">
<path d="M39.1025 30.7895V6.89774C39.1025 5.47347 40.2571 4.31891 41.6814 4.31891H75.7208C77.145 4.31891 78.2996 5.47347 78.2996 6.89774V30.7895C78.2996 32.2138 77.145 33.3683 75.7208 33.3683H41.6815C40.2571 33.3683 39.1025 32.2138 39.1025 30.7895Z" fill="#46738C"/>
<path d="M41.0946 24.7303C40.7157 24.7303 40.3406 24.5631 40.0878 24.2425C39.65 23.6869 39.7451 22.8815 40.3007 22.4434L50.8005 14.1643C51.3562 13.7263 52.1617 13.8216 52.5995 14.3772C53.0374 14.9328 52.9423 15.7382 52.3867 16.1762L41.8869 24.4553C41.6516 24.6403 41.3721 24.7303 41.0946 24.7303Z" fill="#FF8C46"/>
<path d="M20.5462 11.3999C23.6277 11.3999 26.1258 8.90184 26.1258 5.82036C26.1258 2.73888 23.6277 0.240845 20.5462 0.240845C17.4648 0.240845 14.9667 2.73888 14.9667 5.82036C14.9667 8.90184 17.4648 11.3999 20.5462 11.3999Z" fill="#FFB69E"/>
<path d="M24.4142 68.3674C22.6207 68.3674 21.167 66.9135 21.167 65.1202V39.1652C21.167 37.3718 22.6209 35.918 24.4142 35.918C26.2074 35.918 27.6613 37.3719 27.6613 39.1652V65.1202C27.6615 66.9135 26.2076 68.3674 24.4142 68.3674Z" fill="#343E6B"/>
<path d="M16.5755 68.3674C14.782 68.3674 13.3283 66.9135 13.3283 65.1202V39.1652C13.3283 37.3718 14.7822 35.918 16.5755 35.918C18.3687 35.918 19.8226 37.3719 19.8226 39.1652V65.1202C19.8228 66.9135 18.3689 68.3674 16.5755 68.3674Z" fill="#414B82"/>
<path d="M43.3435 22.032C42.5592 20.7689 40.8997 20.3806 39.6363 21.1648L34.1838 24.5501V19.5163C34.1664 16.021 31.2831 13.1773 27.7877 13.1773H27.6881C25.967 13.1773 15.0116 13.1773 13.2311 13.1773C9.66284 13.1773 6.74528 16.0356 6.72766 19.5488C6.72766 19.5533 6.72766 19.5579 6.72766 19.5624V39.4423C6.72766 40.9367 7.93924 42.1483 9.43366 42.1483C10.9281 42.1483 12.1397 40.9367 12.1397 39.4423V19.5715C12.1454 19.057 12.6642 18.5895 13.2311 18.5895H13.3285V39.1653H27.6616C27.6616 37.247 27.6616 20.7189 27.6616 18.5619C27.6761 18.5619 27.8023 18.5619 27.7878 18.5619C28.3292 18.5619 28.8213 19.0023 28.8241 19.5437V29.3893C28.8346 31.4974 31.155 32.7689 32.9362 31.663L42.4769 25.7395C43.7395 24.9549 44.1276 23.2952 43.3435 22.032Z" fill="#252D5C"/>
<path d="M43.3435 22.032C42.5592 20.7689 40.8997 20.3806 39.6363 21.1648L34.1838 24.5501V19.5163C34.1664 16.021 31.2831 13.1773 27.7877 13.1773C26.8634 13.1773 21.3829 13.1773 20.494 13.1773V39.165H27.6615C27.6615 37.2467 27.6615 20.7186 27.6615 18.5616C27.6759 18.5616 27.8021 18.5616 27.7877 18.5616C28.329 18.5616 28.8212 19.002 28.8239 19.5433V29.3889C28.8345 31.4971 31.1548 32.7685 32.9361 31.6627L42.4767 25.7391C43.7395 24.9549 44.1276 23.2952 43.3435 22.032Z" fill="#1B224A"/>
<path d="M43.3435 22.032C42.5592 20.7689 40.8997 20.3806 39.6364 21.1648L42.4764 25.7391C43.7395 24.9549 44.1276 23.2952 43.3435 22.032Z" fill="#FFB69E"/>
<path d="M38.6809 21.7483L41.4947 26.339L42.4732 25.7392L39.6594 21.1486L38.6809 21.7483Z" fill="white"/>
<path d="M6.72668 38.0467V39.4425C6.72668 40.9369 7.93826 42.1484 9.43268 42.1484C10.9271 42.1484 12.1387 40.9369 12.1387 39.4425V38.0467H6.72668Z" fill="white"/>
<path d="M6.72668 39.3727V39.4424C6.72668 40.9368 7.93826 42.1484 9.43268 42.1484C10.9271 42.1484 12.1387 40.9368 12.1387 39.4424V39.3727H6.72668Z" fill="#FFB69E"/>
<path d="M16.3652 13.1773L20.4941 24.0128L24.624 13.1773H16.3652Z" fill="white"/>
<path d="M22.2899 16.866L21.3727 15.1978L22.1632 13.7601C22.307 13.4986 22.1175 13.1776 21.8187 13.1776H19.1686C18.8701 13.1776 18.6801 13.4982 18.8241 13.7601L19.6173 15.2026L18.7027 16.8663C18.576 17.0968 18.5349 17.3642 18.5864 17.6221L19.1507 20.4863L20.494 24.0131L21.8387 20.4858L22.4061 17.6224C22.4579 17.3642 22.4166 17.0965 22.2899 16.866Z" fill="#FF3C3C"/>
<path d="M26.0673 21.5029H22.4928V22.6052H26.0673V21.5029Z" fill="#252D5C"/>
<path d="M68.7251 57.991C71.7318 57.991 74.1692 55.5536 74.1692 52.547C74.1692 49.5403 71.7318 47.103 68.7251 47.103C65.7185 47.103 63.2811 49.5403 63.2811 52.547C63.2811 55.5536 65.7185 57.991 68.7251 57.991Z" fill="#80391B"/>
<path d="M75.7531 59.7268C74.1533 59.7268 63.2509 59.7268 61.6514 59.7268C58.241 59.7268 55.4218 62.5014 55.4047 65.9117V72.0032H60.6583V65.938C60.6608 65.4098 61.1232 64.9801 61.6514 64.9801H61.7031V72.0031H75.6165V64.9801H75.7533C76.2815 64.9801 76.7437 65.4098 76.7464 65.938V72.0032H81.9998V65.9117C81.9827 62.5015 79.1638 59.7268 75.7531 59.7268Z" fill="#80391B"/>
<path d="M75.7531 59.7268H71.4472C69.7704 61.0563 67.5692 61.0045 66.0402 59.7268H61.6516C58.2412 59.7268 55.422 62.5014 55.4048 65.9117V69.7351H60.6584V65.9381C60.661 65.4099 61.1234 64.9802 61.6516 64.9802H61.7033V72.0032H75.6167V64.9802H75.7535C76.2817 64.9802 76.7439 65.4099 76.7466 65.9381V69.7351H82.0002V65.9117C81.9827 62.5015 79.1638 59.7268 75.7531 59.7268Z" fill="#55C7A6"/>
<path d="M41.0253 57.991C44.0319 57.991 46.4693 55.5536 46.4693 52.547C46.4693 49.5403 44.0319 47.103 41.0253 47.103C38.0186 47.103 35.5812 49.5403 35.5812 52.547C35.5812 55.5536 38.0186 57.991 41.0253 57.991Z" fill="#FFB69E"/>
<path d="M48.053 59.7268C46.4532 59.7268 35.5508 59.7268 33.9513 59.7268C30.541 59.7268 27.7217 62.5014 27.7046 65.9117V72.0032H32.9582V65.938C32.9607 65.4098 33.4231 64.9801 33.9513 64.9801H34.003V72.0031H47.9164V64.9801H48.0532C48.5814 64.9801 49.0436 65.4098 49.0463 65.938V72.0032H54.2999V65.9117C54.2828 62.5015 51.4636 59.7268 48.053 59.7268Z" fill="#FFB69E"/>
<path d="M48.053 59.7268H43.5323C41.8555 61.0563 39.6543 61.0045 38.1253 59.7268H33.9514C30.5411 59.7268 27.7218 62.5014 27.7047 65.9117V69.7351H32.9583V65.9381C32.9609 65.4099 33.4232 64.9802 33.9514 64.9802H34.0032V72.0032H47.9166V64.9802H48.0533C48.5815 64.9802 49.0437 65.4099 49.0465 65.9381V69.7351H54.3001V65.9117C54.2828 62.5015 51.4635 59.7268 48.053 59.7268Z" fill="#252D5C"/>
<path d="M13.3189 57.9043C16.3255 57.9043 18.7629 55.467 18.7629 52.4603C18.7629 49.4537 16.3255 47.0163 13.3189 47.0163C10.3122 47.0163 7.87488 49.4537 7.87488 52.4603C7.87488 55.467 10.3122 57.9043 13.3189 57.9043Z" fill="#FFB69E"/>
<path d="M20.3485 59.64C18.7487 59.64 7.8462 59.64 6.24672 59.64C2.83636 59.64 0.0171367 62.4145 0 65.8249V71.9165H5.2536V65.8513C5.25616 65.3231 5.71853 64.8934 6.24672 64.8934H6.29845V71.9164H20.2117V64.8932H20.3485C20.8766 64.8932 21.3389 65.3229 21.3416 65.8511V71.9164H26.5952V65.8247C26.578 62.4145 23.7588 59.64 20.3485 59.64Z" fill="#FFB69E"/>
<path d="M20.3485 59.64H15.8276C14.1507 60.9695 11.9496 60.9177 10.4205 59.64H6.24672C2.83636 59.64 0.0171367 62.4146 0 65.8249V69.6483H5.2536V65.8513C5.25616 65.3232 5.71853 64.8934 6.24672 64.8934H6.29845V71.9165H20.2117V64.8933H20.3485C20.8766 64.8933 21.3389 65.323 21.3416 65.8512V69.6482H26.5952V65.8248C26.578 62.4146 23.7588 59.64 20.3485 59.64Z" fill="#78BEFF"/>
<path d="M56.4173 67.7474C59.4239 67.7474 61.8613 65.31 61.8613 62.3033C61.8613 59.2967 59.4239 56.8593 56.4173 56.8593C53.4106 56.8593 50.9733 59.2967 50.9733 62.3033C50.9733 65.31 53.4106 67.7474 56.4173 67.7474Z" fill="#FFB69E"/>
<path d="M63.4462 69.4825C61.8464 69.4825 50.944 69.4825 49.3445 69.4825C45.9341 69.4825 43.1149 72.257 43.0978 75.6674V81.7589H48.3514V75.6936C48.3539 75.1655 48.8163 74.7358 49.3445 74.7358H49.3962V81.7587H63.3096V74.7358H63.4464C63.9746 74.7358 64.4368 75.1655 64.4395 75.6936V81.7589H69.6931V75.6674C69.6757 72.2569 66.8566 69.4825 63.4462 69.4825Z" fill="#FFB69E"/>
<path d="M63.4463 69.4825H59.1403C57.4635 70.812 55.2623 70.7603 53.7333 69.4825H49.3447C45.9343 69.4825 43.1151 72.2571 43.098 75.6674V79.4908H48.3516V75.6939C48.3541 75.1657 48.8165 74.736 49.3447 74.736H49.3964V81.759H63.3096V74.736H63.4464C63.9746 74.736 64.4368 75.1657 64.4395 75.6939V79.4908H69.6931V75.6674C69.6757 72.2569 66.8566 69.4825 63.4463 69.4825Z" fill="#78BEFF"/>
<path d="M28.7172 67.7474C31.7239 67.7474 34.1612 65.31 34.1612 62.3033C34.1612 59.2967 31.7239 56.8593 28.7172 56.8593C25.7106 56.8593 23.2732 59.2967 23.2732 62.3033C23.2732 65.31 25.7106 67.7474 28.7172 67.7474Z" fill="#BA6746"/>
<path d="M35.7462 69.4825C34.1464 69.4825 23.2439 69.4825 21.6444 69.4825C18.2341 69.4825 15.4148 72.257 15.3977 75.6674V81.7589H20.6513V75.6936C20.6539 75.1655 21.1162 74.7358 21.6444 74.7358H21.6962V81.7587H35.6095V74.7358H35.7463C36.2745 74.7358 36.7367 75.1655 36.7394 75.6936V81.7589H41.9929V75.6674C41.9756 72.2569 39.1567 69.4825 35.7462 69.4825Z" fill="#BA6746"/>
<path d="M35.7462 69.4825H31.2254C29.5486 70.812 27.3474 70.7603 25.8184 69.4825H21.6444C18.2341 69.4825 15.4148 72.2571 15.3977 75.6674V79.4908H20.6513V75.6939C20.6539 75.1657 21.1162 74.736 21.6444 74.736H21.6962V81.759H35.6095V74.736H35.7463C36.2745 74.736 36.7367 75.1657 36.7394 75.6939V79.4908H41.993V75.6674C41.9756 72.2569 39.1567 69.4825 35.7462 69.4825Z" fill="#FF3C3C"/>
</g>
<defs>
<clipPath id="clip0">
<rect width="82" height="82" fill="white"/>
</clipPath>
</defs>
</svg>
