<svg width="72" height="72" viewBox="0 0 72 72" fill="none" xmlns="http://www.w3.org/2000/svg">
<g clip-path="url(#clip0)">
<path d="M44.1381 23.0905C44.1381 35.8901 33.7873 46.2409 20.9877 46.2415C12.6551 46.2415 5.35087 41.8392 1.27439 35.2343C0.362525 33.7577 1.80338 31.9362 3.44859 32.4871C5.5662 33.1968 7.83268 33.5825 10.1892 33.5847C21.9221 33.5956 31.4813 24.0458 31.4813 12.3129C31.4813 9.94868 31.0957 7.67506 30.3838 5.5503C29.8328 3.9051 31.6554 2.46534 33.1314 3.37665C39.7359 7.45423 44.1381 14.7579 44.1381 23.0905Z" fill="#F6CB43"/>
<path d="M44.1381 23.0905C44.1381 35.8753 33.772 46.2415 20.9872 46.2415C13.1254 46.2415 6.17816 42.3221 1.99677 36.3307C5.74805 38.9498 10.3112 40.4852 15.2314 40.4852C28.0162 40.4852 38.3818 30.1196 38.3818 17.3348C38.3818 12.4118 36.8454 7.84863 34.2263 4.09735C40.2193 8.28149 44.1381 15.2271 44.1381 23.0905Z" fill="#FAB03C"/>
<path d="M36.863 38.8235C37.2382 32.625 42.3831 27.7141 48.6755 27.7141C53.7506 27.7141 58.0787 30.9084 59.7607 35.3963C64.131 35.449 67.6582 39.0064 67.6582 43.3889C67.6582 47.8048 64.0783 51.3842 59.6629 51.3842C57.8145 51.3842 38.9817 51.3842 37.0827 51.3842C33.6121 51.3842 30.7991 48.5711 30.7991 45.1011C30.7991 41.7047 33.4946 38.9388 36.863 38.8235Z" fill="#1E6BE7"/>
<path d="M67.6582 43.39C67.6582 47.7675 64.1382 51.3237 59.7728 51.3831C61.0818 49.9587 61.8794 48.0608 61.8794 45.9761C61.8794 41.5937 58.3533 38.0358 53.9819 37.983C52.2999 33.4957 47.9724 30.3003 42.8967 30.3003C42.2968 30.3003 41.7079 30.3459 41.1317 30.4316C43.179 28.7342 45.8075 27.7141 48.6749 27.7141C53.7506 27.7141 58.0781 30.9084 59.7601 35.3969C64.1316 35.4496 67.6582 39.0059 67.6582 43.39Z" fill="#3E4EB7"/>
<path d="M23.1823 40.8362C23.4695 36.0873 27.4114 32.3251 32.2322 32.3251C36.1203 32.3251 39.436 34.7723 40.7247 38.2104C44.0728 38.2511 46.7748 40.9763 46.7748 44.3342C46.7748 47.7175 44.0327 50.4597 40.65 50.4597C39.2338 50.4597 24.8055 50.4597 23.3503 50.4597C20.6917 50.4597 18.5367 48.3041 18.5367 45.6454C18.5367 43.0433 20.6016 40.9246 23.1823 40.8362Z" fill="#38AAFF"/>
<path d="M46.7754 44.3348C46.7754 47.6884 44.0782 50.413 40.734 50.458C41.7371 49.3671 42.3484 47.913 42.3484 46.3162C42.3484 42.9587 39.6464 40.233 36.2977 40.1924C35.009 36.7548 31.6934 34.307 27.8047 34.307C27.3455 34.307 26.894 34.3416 26.4529 34.4075C28.0212 33.1068 30.035 32.3256 32.2317 32.3256C36.1203 32.3256 39.436 34.7723 40.7247 38.211C44.0733 38.2516 46.7754 40.9763 46.7754 44.3348Z" fill="#2081F6"/>
<path d="M70.5515 46.0261C71.3513 46.0261 72 46.6749 72 47.4747V65.8762C72 67.4753 70.7036 68.7733 69.1024 68.7733H2.89764C1.29749 68.7733 0 67.4764 0 65.8762V47.4747C0 46.6749 0.648743 46.0261 1.44855 46.0261H70.5515Z" fill="#1E6BE7"/>
<path d="M44.137 65.7065C44.137 66.7469 44.0695 67.7697 43.936 68.7733H30.0344C26.9368 60.839 19.2052 55.2036 10.1904 55.2123C7.83325 55.2134 5.56567 55.5991 3.44805 56.3088C1.8034 56.8608 0.361995 55.0382 1.27496 53.5622C3.16076 50.5052 5.73815 47.9207 8.78906 46.0261H33.1979C39.7694 50.107 44.1387 57.3893 44.137 65.7065Z" fill="#F6CB43"/>
<path d="M72 47.4747V50.7415H0V47.4747C0 46.6749 0.648743 46.0261 1.44855 46.0261H70.5515C71.3513 46.0261 72 46.6749 72 47.4747Z" fill="#2081F6"/>
<path d="M38.6625 50.7415H3.32501C4.88507 48.8985 6.72913 47.3049 8.78906 46.0261H33.1979C35.2584 47.3049 37.1025 48.9001 38.6625 50.7415Z" fill="#F8E98E"/>
<path d="M72 57.6892V65.8762C72 67.4753 70.7036 68.7733 69.1024 68.7733H2.89764C1.29639 68.7733 0 67.4753 0 65.8762V57.6892H72Z" fill="#3E4EB7"/>
<path d="M44.137 65.7065C44.137 66.7469 44.0695 67.7697 43.936 68.7733H30.0344C28.1739 64.0058 24.6396 60.0699 20.1599 57.6892H42.7159C43.636 60.187 44.137 62.8874 44.137 65.7065Z" fill="#FAB03C"/>
<path d="M60.6709 55.3013H60.6555C60.0557 55.3013 59.5695 54.8152 59.5695 54.2148C59.5695 53.6149 60.0557 53.1288 60.6555 53.1288H60.6709C61.2708 53.1288 61.7574 53.6149 61.7574 54.2148C61.7574 54.8152 61.2708 55.3013 60.6709 55.3013Z" fill="#38AAFF"/>
<path d="M12.0965 62.8687H12.0817C11.4813 62.8687 10.9951 62.382 10.9951 61.7822C10.9951 61.1823 11.4813 60.6956 12.0817 60.6956H12.0965C12.6964 60.6956 13.183 61.1823 13.183 61.7822C13.183 62.382 12.6964 62.8687 12.0965 62.8687Z" fill="#FAB03C"/>
<path d="M8.89343 64.3173C8.89013 64.3173 8.88684 64.3173 8.88299 64.3173H8.86816C8.26831 64.3118 7.78601 63.8207 7.79205 63.2203C7.79754 62.6243 8.28259 62.1442 8.87805 62.1442H8.88848H8.90331C9.50372 62.1502 9.98547 62.6413 9.97997 63.2411C9.97448 63.8377 9.48889 64.3173 8.89343 64.3173Z" fill="#FAB03C"/>
<path d="M49.9587 62.0079H41.7947C41.1949 62.0079 40.7082 61.5218 40.7082 60.9214C40.7082 60.3215 41.1949 59.8354 41.7947 59.8354H49.9587C50.5585 59.8354 51.0447 60.3215 51.0447 60.9214C51.0447 61.5218 50.5585 62.0079 49.9587 62.0079Z" fill="#FAB03C"/>
<path d="M42.3517 55.3013H39.8831C39.2827 55.3013 38.7966 54.8152 38.7966 54.2148C38.7966 53.6149 39.2827 53.1288 39.8831 53.1288H42.3517C42.9521 53.1288 43.4383 53.6149 43.4383 54.2148C43.4383 54.8152 42.9521 55.3013 42.3517 55.3013Z" fill="#F6CB43"/>
<path d="M37.3041 64.3173H23.3882C22.7878 64.3173 22.3017 63.8311 22.3017 63.2307C22.3017 62.6309 22.7878 62.1442 23.3882 62.1442H37.3041C37.9039 62.1442 38.3901 62.6309 38.3901 63.2307C38.3901 63.8311 37.9039 64.3173 37.3041 64.3173Z" fill="#3E4EB7"/>
<path d="M8.88405 24.4501C8.88185 24.4501 8.8802 24.4501 8.87855 24.4501C8.2787 24.4468 7.7942 23.9584 7.79695 23.358L7.79914 22.9647C7.80189 22.3665 8.28804 21.8831 8.88514 21.8831H8.89064C9.49049 21.8859 9.97499 22.3748 9.97169 22.9752L9.97005 23.3685C9.9673 23.9667 9.48115 24.4501 8.88405 24.4501Z" fill="#FAB03C"/>
<path d="M8.87141 28.4551C8.86921 28.4551 8.86756 28.4551 8.86592 28.4551C8.26551 28.4524 7.78157 27.9635 7.78431 27.3631L7.78651 26.9698C7.78926 26.3694 8.27485 25.8832 8.87855 25.8882C9.4784 25.8915 9.96235 26.3803 9.9596 26.9802L9.95741 27.3741C9.95466 27.9723 9.46906 28.4551 8.87141 28.4551Z" fill="#FAB03C"/>
<path d="M11.0824 26.2628C11.0808 26.2628 11.0786 26.2628 11.0769 26.2628L10.6831 26.2612C10.0827 26.2579 9.59871 25.7695 9.60145 25.1691C9.6042 24.5709 10.0903 24.0881 10.688 24.0881H10.6929L11.0874 24.0897C11.6872 24.0925 12.1717 24.5814 12.1684 25.1812C12.1662 25.78 11.6801 26.2628 11.0824 26.2628Z" fill="#FAB03C"/>
<path d="M7.0691 26.2508C7.06691 26.2508 7.06526 26.2508 7.06361 26.2508L6.6692 26.2486C6.06935 26.2458 5.5854 25.7575 5.58815 25.1571C5.59089 24.5567 6.08088 24.0711 6.67964 24.0755L7.07405 24.0777C7.6739 24.0804 8.1584 24.5688 8.1551 25.1692C8.15236 25.7674 7.66621 26.2508 7.0691 26.2508Z" fill="#FAB03C"/>
<path d="M60.734 12.5085C60.7318 12.5085 60.7307 12.5085 60.7285 12.5085C60.1286 12.5057 59.6447 12.0168 59.6474 11.417L59.6491 11.0231C59.6518 10.4249 60.138 9.94208 60.7356 9.94208H60.7406C61.3404 9.94482 61.8249 10.4332 61.8222 11.0336L61.82 11.4269C61.8178 12.0251 61.3316 12.5085 60.734 12.5085Z" fill="#FAB03C"/>
<path d="M60.7219 16.5135C60.7197 16.5135 60.718 16.5135 60.7164 16.5135C60.1165 16.5108 59.632 16.0219 59.6348 15.4221L59.637 15.0282C59.6397 14.43 60.1259 13.9471 60.723 13.9471H60.7285C61.3283 13.9499 61.8128 14.4382 61.8095 15.0386L61.8079 15.4319C61.8051 16.0307 61.319 16.5135 60.7219 16.5135Z" fill="#FAB03C"/>
<path d="M62.9323 14.3212C62.9307 14.3212 62.929 14.3212 62.9274 14.3212L62.533 14.3196C61.9331 14.3168 61.4486 13.8279 61.4514 13.2275C61.4547 12.6293 61.9403 12.1465 62.5379 12.1465H62.5434L62.9373 12.1481C63.5377 12.1509 64.0216 12.6398 64.0189 13.2396C64.0161 13.8378 63.53 14.3212 62.9323 14.3212Z" fill="#FAB03C"/>
<path d="M58.919 14.3091C58.9174 14.3091 58.9157 14.3091 58.9141 14.3091L58.5197 14.3069C57.9193 14.3042 57.4353 13.8159 57.4381 13.2155C57.4408 12.6172 57.927 12.1339 58.5246 12.1339H58.5296L58.924 12.136C59.5238 12.1388 60.0083 12.6271 60.0056 13.2275C60.0028 13.8257 59.5167 14.3091 58.919 14.3091Z" fill="#FAB03C"/>
<path d="M66.036 19.3139C66.0338 19.3139 66.0327 19.3139 66.0305 19.3139C65.4307 19.3112 64.9467 18.8223 64.9495 18.2225L64.9511 17.8286C64.9539 17.2282 65.4373 16.7421 66.0426 16.7475C66.643 16.7503 67.127 17.2386 67.1242 17.839L67.1226 18.2323C67.1193 18.8305 66.6337 19.3139 66.036 19.3139Z" fill="#FAB03C"/>
<path d="M66.0233 23.319C66.0217 23.319 66.02 23.319 66.0184 23.319C65.418 23.3163 64.934 22.8274 64.9368 22.2275L64.9384 21.8337C64.9417 21.2355 65.4273 20.7526 66.025 20.7526H66.0305C66.6303 20.7554 67.1143 21.2437 67.1115 21.8441L67.1099 22.2374C67.1071 22.8356 66.621 23.319 66.0233 23.319Z" fill="#FAB03C"/>
<path d="M68.2344 21.1267C68.2327 21.1267 68.2305 21.1267 68.2289 21.1267L67.8345 21.1251C67.2346 21.1218 66.7507 20.6329 66.7534 20.033C66.7567 19.4348 67.2423 18.952 67.84 18.952H67.8455L68.2399 18.9536C68.8397 18.9569 69.3237 19.4458 69.3209 20.0457C69.3182 20.6439 68.8321 21.1267 68.2344 21.1267Z" fill="#FAB03C"/>
<path d="M64.221 21.1146C64.2194 21.1146 64.2177 21.1146 64.2155 21.1146L63.8217 21.1124C63.2213 21.1097 62.7373 20.6213 62.7401 20.0209C62.7428 19.4227 63.229 18.9393 63.8266 18.9393H63.8316L64.226 18.9415C64.8258 18.9443 65.3103 19.4326 65.307 20.033C65.3043 20.6312 64.8187 21.1146 64.221 21.1146Z" fill="#FAB03C"/>
<path d="M20.1676 12.3118H20.1522C19.5524 12.3118 19.0657 11.8251 19.0657 11.2253C19.0657 10.6249 19.5524 10.1387 20.1522 10.1387H20.1676C20.7675 10.1387 21.2542 10.6249 21.2542 11.2253C21.2542 11.8251 20.7675 12.3118 20.1676 12.3118Z" fill="#F8E98E"/>
<path d="M54.4027 25.3504C54.3994 25.3504 54.3955 25.3504 54.3923 25.3504L54.3774 25.3499C53.777 25.3444 53.2953 24.8533 53.3008 24.2534C53.3068 23.6569 53.7919 23.1768 54.3873 23.1768H54.3977L54.4126 23.1773C55.013 23.1828 55.4947 23.6739 55.4892 24.2737C55.4832 24.8703 54.9981 25.3504 54.4027 25.3504Z" fill="#F8E98E"/>
<path d="M50.2147 14.3212C50.2114 14.3212 50.2076 14.3212 50.2043 14.3212H50.1894C49.589 14.3157 49.1073 13.8246 49.1128 13.2248C49.1188 12.6282 49.6039 12.1481 50.1993 12.1481H50.2098H50.2246C50.825 12.1542 51.3067 12.6453 51.3012 13.2451C51.2958 13.8417 50.8102 14.3212 50.2147 14.3212Z" fill="#F6CB43"/>
<path d="M65.1302 31.3901H65.1154C64.515 31.3901 64.0288 30.904 64.0288 30.3041C64.0288 29.7037 64.515 29.2176 65.1154 29.2176H65.1302C65.7306 29.2176 66.2167 29.7037 66.2167 30.3041C66.2167 30.904 65.7306 31.3901 65.1302 31.3901Z" fill="#F8E98E"/>
<path d="M58.9269 26.4534C58.9236 26.4534 58.9197 26.4534 58.9164 26.4534L58.9016 26.4529C58.3012 26.4474 57.8194 25.9563 57.8249 25.3564C57.8304 24.7599 58.316 24.2803 58.9115 24.2803H58.9214H58.9368C59.5366 24.2858 60.0189 24.7769 60.0129 25.3768C60.0074 25.9733 59.5223 26.4534 58.9269 26.4534Z" fill="#F6CB43"/>
<path d="M18.5438 16.9151H18.529C17.9291 16.9151 17.4424 16.4284 17.4424 15.8286C17.4424 15.2281 17.9291 14.742 18.529 14.742H18.5438C19.1442 14.742 19.6304 15.2281 19.6304 15.8286C19.6304 16.4284 19.1442 16.9151 18.5438 16.9151Z" fill="#F8E98E"/>
</g>
<defs>
<clipPath id="clip0">
<rect width="72" height="72" fill="white"/>
</clipPath>
</defs>
</svg>
