<svg width="125" height="164" viewBox="0 0 125 164" fill="none" xmlns="http://www.w3.org/2000/svg">
<path d="M73.7985 42.5004H110.073L95.6109 0L59.573 0.237432L73.7985 42.5004Z" fill="#EA3836"/>
<path d="M73.9065 42.5004H110.081L124.74 84.9013L96.1315 107.168L73.9065 42.5004Z" fill="#FAAF18"/>
<path d="M73.8655 42.448L45.3403 64.6231L31.0545 22.1494L59.6649 0.268428L73.8655 42.448Z" fill="#D62121"/>
<path d="M73.8657 42.4481L45.3406 64.6232L59.4382 107.241L96.1403 107.139L73.8657 42.4481Z" fill="#F89C1C"/>
<path d="M44.0875 96.0892H73.5282L61.7904 61.6456L32.5422 61.838L44.0875 96.0892Z" fill="#4FB65D"/>
<path d="M44.0876 96.0892H73.5283L85.4585 130.533L62.1753 148.621L44.0876 96.0892Z" fill="#D62121"/>
<path d="M44.0876 96.0892L20.9242 114.096L9.32363 79.606L32.5563 61.838L44.0876 96.0892Z" fill="#00834E"/>
<path d="M44.0878 96.0892L20.9245 114.096L32.3722 148.703L62.1755 148.621L44.0878 96.0892Z" fill="#EA3836"/>
</svg>
