<svg width="114" height="99" viewBox="0 0 114 99" fill="none" xmlns="http://www.w3.org/2000/svg">
<path d="M56 87.8872C56 87.8872 46.1827 91.8872 28.0001 91.8872C9.81747 91.8872 0 87.8872 0 87.8872L3.52616 43.8098C4.54682 31.053 15.1971 21.2207 27.9946 21.2207H28.0053C40.8029 21.2207 51.4532 31.053 52.4737 43.8098L56 87.8872Z" fill="#E69F5F"/>
<path d="M35.1356 22.2837C32.8742 21.5974 30.4819 21.2207 28.0053 21.2207H27.9947C15.1971 21.2207 4.54665 31.053 3.52616 43.8098L0 87.8872C0 87.8872 4.81265 89.8388 13.9111 91.0153L35.1356 22.2837Z" fill="#E09156"/>
<path d="M53.2313 90.219L52.977 89.3478C52.8542 88.927 52.4442 88.669 52.0225 88.7226L51.1335 82.0557C50.8415 79.8653 49.4832 77.9622 47.5069 76.974L44.6349 75.538C44.207 75.324 43.7165 75.5138 43.5072 75.9197L37.8234 73.8284C36.7344 73.4654 36.0001 72.4464 36.0001 71.2985V66.9982L41.7435 64.605C44.7249 63.3631 46.6667 60.4502 46.6667 57.2206V55.8872C48.8759 55.8872 50.6667 54.0964 50.6667 51.8872C50.6667 49.6781 48.8759 47.8873 46.6667 47.8873V45.2206C46.6667 41.5388 43.6819 35.8873 40 35.8873H16.0001C12.3183 35.8873 9.33346 41.5388 9.33346 45.2206V47.8873C7.1243 47.8873 5.33347 49.6781 5.33347 51.8872C5.33347 54.0964 7.1243 55.8872 9.33346 55.8872V57.2206C9.33346 60.4502 11.2753 63.3631 14.2564 64.6052L20.0001 66.9985V71.2987C20.0001 72.4465 19.2656 73.4655 18.1768 73.8285L12.4933 75.9197C12.2863 75.5133 11.7968 75.3225 11.3696 75.536L8.75063 76.8455C6.51563 77.963 5.15864 79.8657 4.86664 82.0558L3.97764 88.7228C3.55598 88.6691 3.14614 88.9271 3.02314 89.348L2.76881 90.2191C2.63264 90.6856 2.90048 91.174 3.36681 91.3101L5.33347 91.8836V95.8871C5.33347 97.3598 5.33347 98.5538 5.33347 98.5538H13.3334H42.6667H48C49.4727 98.5538 50.6667 97.3598 50.6667 95.8871V91.8836L52.6332 91.31C53.0995 91.174 53.3673 90.6855 53.2313 90.219Z" fill="#FFD7A3"/>
<path d="M36 66.9984L20.0001 66.9985V71.2987C20.0001 72.2475 19.4972 73.1073 18.7081 73.5822C29.8622 75.5093 36 66.9984 36 66.9984Z" fill="#FDC88E"/>
<path d="M46.6667 47.8873V45.2206C46.6667 41.5388 43.6819 35.8873 40.0001 35.8873H16.0001C12.3183 35.8873 9.33349 41.5388 9.33349 45.2206V47.8873C7.12432 47.8873 5.3335 49.6781 5.3335 51.8873C5.3335 54.0964 7.12432 55.8872 9.33349 55.8872V57.2206C9.33349 60.4502 11.2753 63.3631 14.2565 64.6052L22.8716 68.1949C24.4966 68.872 26.2396 69.2205 27.9999 69.2205C29.7603 69.2205 31.5031 68.8719 33.1281 68.1949L41.7437 64.6051C44.7249 63.3631 46.6667 60.4502 46.6667 57.2206V55.8872C48.8759 55.8872 50.6667 54.0964 50.6667 51.8873C50.6667 49.6781 48.8759 47.8873 46.6667 47.8873Z" fill="#FFE1B2"/>
<path d="M37.3334 53.2206C36.6001 53.2206 36.0001 52.6206 36.0001 51.8873V50.5539C36.0001 49.8206 36.6001 49.2206 37.3334 49.2206C38.0667 49.2206 38.6667 49.8206 38.6667 50.5539V51.8873C38.6667 52.6206 38.0666 53.2206 37.3334 53.2206Z" fill="#623F33"/>
<path d="M27.9999 62.5905C25.6294 62.5905 23.412 62.0071 21.9165 60.9896C21.3079 60.5756 21.1495 59.7461 21.5644 59.1375C21.9777 58.5295 22.8079 58.3711 23.4165 58.7853C24.4647 59.4981 26.1782 59.924 27.9999 59.924C29.8215 59.924 31.535 59.4981 32.5832 58.7853C33.1932 58.37 34.0213 58.5288 34.4353 59.1375C34.85 59.7461 34.6918 60.5756 34.0832 60.9896C32.588 62.0071 30.3705 62.5905 27.9999 62.5905Z" fill="#E4B07B"/>
<path d="M16.3326 61.8411C15.2523 60.6829 14.6668 59.1543 14.6668 57.5703V51.8333C21.9383 51.2824 31.7551 46.466 37.6374 41.8573L36.0001 40.22C36.0001 40.22 24.1668 47.8866 9.33348 47.8866V47.8873C7.12432 47.8873 5.3335 49.6781 5.3335 51.8873C5.3335 54.0964 7.12432 55.8873 9.33348 55.8873V57.2206C9.33348 60.4503 11.2753 63.3631 14.2565 64.6052L22.8714 68.1949C23.2931 68.3706 23.7234 68.5219 24.1593 68.6531C20.3518 65.8677 17.8175 63.4331 16.3326 61.8411Z" fill="#FFD7A3"/>
<path d="M52.1985 90.0432L51.1335 82.0557C50.8415 79.8654 49.4832 77.9623 47.5069 76.9741L44.6349 75.5381C44.1484 75.2948 43.5804 75.5734 43.4375 76.0984C41.5892 82.8919 35.3789 87.8877 27.9997 87.8877C20.6189 87.8877 14.4073 82.8894 12.5606 76.0933C12.4186 75.5709 11.8536 75.2938 11.3696 75.5358L8.75063 76.8453C6.51564 77.9628 5.15864 79.8654 4.86664 82.0556L3.78131 90.1949C7.30363 91.4079 13.3333 93.2206 13.3333 93.2206V98.5539H42.6665V93.2206L52.1985 90.0432Z" fill="#EE1C28"/>
<path d="M35.7832 93.3799C35.6859 93.3478 35.6147 93.3292 35.4984 93.3292C35.413 93.3292 35.311 93.3593 35.311 93.4606C35.311 93.6496 35.8638 93.5298 35.8638 93.9581C35.8638 94.2347 35.61 94.3454 35.3513 94.3454C35.2301 94.3454 35.1068 94.3248 34.9906 94.2947L35.0096 94.0412C35.1091 94.0895 35.2136 94.1195 35.3227 94.1195C35.4035 94.1195 35.5316 94.0895 35.5316 93.9744C35.5316 93.7417 34.9787 93.9007 34.9787 93.4722C34.9787 93.2165 35.2089 93.1034 35.458 93.1034C35.6075 93.1034 35.7049 93.1266 35.8045 93.1473L35.7832 93.3799Z" fill="white"/>
<path d="M37.2639 94.3192H37.582V93.1326H37.2639V94.3192Z" fill="white"/>
<path d="M39.5709 93.3799C39.4737 93.3478 39.4024 93.3292 39.2862 93.3292C39.2006 93.3292 39.0987 93.3593 39.0987 93.4606C39.0987 93.6496 39.6516 93.5298 39.6516 93.9581C39.6516 94.2347 39.3977 94.3454 39.1391 94.3454C39.0179 94.3454 38.8946 94.3248 38.7783 94.2947L38.7972 94.0412C38.8969 94.0895 39.0014 94.1195 39.1105 94.1195C39.1912 94.1195 39.3194 94.0895 39.3194 93.9744C39.3194 93.7417 38.7664 93.9007 38.7664 93.4722C38.7664 93.2165 38.9966 93.1034 39.246 93.1034C39.3953 93.1034 39.4925 93.1266 39.5922 93.1473L39.5709 93.3799Z" fill="white"/>
<path d="M36.6427 93.6644L37.0932 93.1326H36.7182L36.3386 93.6072H36.3338V92.4941L36.0158 92.5912V94.3191H36.3338V93.7432H36.3386L36.7468 94.3191H37.1502L36.6427 93.6644Z" fill="white"/>
<path d="M37.7871 92.5912V94.3191H38.105V92.4941L37.7871 92.5912Z" fill="white"/>
<path d="M38.2883 92.5912H38.2881V94.3191H38.6062V92.4941L38.2883 92.5912Z" fill="white"/>
<path d="M37.6067 92.6896C37.6067 92.5917 37.5273 92.5125 37.4296 92.5125C37.3319 92.5125 37.2525 92.5917 37.2525 92.6896C37.2525 92.7875 37.3319 92.8668 37.4296 92.8668C37.5273 92.8668 37.6067 92.7875 37.6067 92.6896Z" fill="white"/>
<path d="M32.0844 94.2351C31.8421 94.2351 31.6793 94.0364 31.6793 93.7404C31.6793 93.4443 31.8421 93.2454 32.0844 93.2454C32.3267 93.2454 32.4896 93.4443 32.4896 93.7404C32.4896 94.0364 32.3267 94.2351 32.0844 94.2351ZM32.0844 93.1295C31.6706 93.1295 31.5238 93.4584 31.5238 93.7404C31.5238 94.0222 31.6706 94.3513 32.0844 94.3513C32.4983 94.3513 32.6451 94.0222 32.6451 93.7404C32.6451 93.4584 32.4983 93.1295 32.0844 93.1295Z" fill="white"/>
<path d="M32.9142 93.3439V93.1525H32.7823L32.7825 94.3191H32.9236V93.7428L32.9234 93.7353C32.9236 93.5204 32.9845 93.2635 33.2746 93.2635L33.3187 93.2656L33.3192 93.261L33.3263 93.125L33.3099 93.1248C33.1139 93.1248 32.9811 93.1987 32.9142 93.3439Z" fill="white"/>
<path d="M34.2899 94.2307C33.9628 94.2307 33.9275 93.8846 33.9275 93.7359C33.9275 93.587 33.9628 93.2409 34.2899 93.2409C34.5403 93.2409 34.6525 93.4895 34.6525 93.7359C34.6525 93.9822 34.5403 94.2307 34.2899 94.2307ZM34.788 92.5592L34.6525 92.6007V93.3219C34.6231 93.2727 34.5129 93.1218 34.2662 93.1248C33.8578 93.13 33.772 93.4599 33.772 93.7359C33.772 94.1127 33.9614 94.3469 34.2662 94.3469C34.4478 94.3469 34.5706 94.28 34.6525 94.1383V94.3191H34.7937V92.5575L34.788 92.5592Z" fill="white"/>
<path d="M33.6091 92.5593L33.4736 92.6006V94.3191H33.6148V92.5575L33.6091 92.5593Z" fill="white"/>
<path d="M29.8722 93.1525H29.7206L29.7225 93.1584C29.7298 93.1803 30.1025 94.3058 30.106 94.316L30.107 94.3191H30.2813C30.2813 94.3191 30.6092 93.3092 30.6112 93.3031H30.622C30.624 93.3092 30.9518 94.3191 30.9518 94.3191H31.1263L31.5221 93.1525H31.3814C31.3814 93.1525 31.0488 94.1624 31.0468 94.1685H31.0359C31.034 94.1624 30.7156 93.1525 30.7156 93.1525H30.5413C30.5413 93.1525 30.2063 94.1624 30.2042 94.1685H30.1935C30.1916 94.1623 29.8755 93.1525 29.8755 93.1525H29.8722Z" fill="white"/>
<path d="M36.9687 90.4865C36.9687 90.4865 37.5367 90.386 37.7226 89.9344C37.7226 89.9344 41.0294 90.6117 39.0773 92.3756C39.0773 92.3756 39.8017 91.6935 39.3972 91.148C39.3972 91.148 39.623 91.8253 38.7387 92.2815C38.7387 92.2815 40.6565 90.9193 36.9687 90.4865Z" fill="white"/>
<path d="M38.7806 90.2394C39.0118 90.3538 39.1737 90.4662 39.2684 90.5401C39.3099 89.3562 38.4611 88.6944 38.4611 88.6944C38.4364 88.7703 38.3623 88.8549 38.2565 88.8937C38.1506 88.9325 38.0871 89.0595 38.0871 89.0595C38.502 89.4045 38.7012 89.8258 38.7806 90.2394Z" fill="white"/>
<path d="M37.6348 90.0182C37.6849 89.9434 37.6989 89.8921 37.6989 89.8921C37.9175 89.9309 38.1136 89.9821 38.2883 90.0393C37.926 89.0064 37.2522 88.441 37.2522 88.441C37.2333 88.4951 37.0358 88.5938 36.9018 88.6527C36.7677 88.7115 36.8029 88.9607 36.8029 88.9607C37.1715 89.2652 37.4394 89.6379 37.6348 90.0182Z" fill="white"/>
<path d="M39.021 91.1626C38.9754 91.6723 38.6728 92.2133 38.6728 92.2133C38.8864 91.8883 39.0325 91.5831 39.1269 91.2988C39.1004 91.2507 39.0648 91.2054 39.021 91.1626Z" fill="white"/>
<path d="M38.9813 91.1264C38.9314 91.0835 38.8738 91.0433 38.8099 91.0059C38.7568 91.5542 38.5739 91.9664 38.5739 91.9664C38.6797 91.8464 38.7609 91.6524 38.7609 91.6524C38.7643 91.79 38.6515 92.0617 38.6515 92.0617C38.8457 91.7497 38.9386 91.3704 38.9813 91.1264Z" fill="white"/>
<path d="M37.8337 92.1941C37.716 92.1308 37.5456 92.0633 37.1951 91.792C37.4604 91.9917 37.9032 92.1193 37.9032 92.1193C36.9255 91.6229 36.7124 91.1731 36.7124 91.1731C36.6183 91.1701 36.5615 91.2298 36.5243 91.2502C36.487 91.2707 36.3853 91.2689 36.3853 91.2689C36.758 91.8697 37.8337 92.1941 37.8337 92.1941Z" fill="white"/>
<path d="M37.3962 90.5769C37.0714 90.5232 36.8328 90.5023 36.8328 90.5023C36.9627 90.4698 37.0731 90.4301 37.1676 90.3869C36.7104 90.054 36.2549 89.972 36.2549 89.972C36.2549 89.972 36.1703 90.0003 36.1585 90.1413C36.1468 90.2825 36.0386 90.3013 36.0386 90.3013C37.746 90.7575 38.0023 92.1639 38.0023 92.1639C37.886 91.5289 37.639 91.1233 37.639 91.1233C37.9 91.3913 38.08 92.0723 38.08 92.0723C38.0221 91.3684 37.7302 90.8939 37.3962 90.5769Z" fill="white"/>
<path d="M37.9072 90.6787C38.153 91.4372 38.1576 92.0793 38.1576 92.0793C38.3396 91.7266 38.2917 90.9151 38.2917 90.9151C38.4611 91.2468 38.4398 92.1498 38.4398 92.1498C38.5267 91.6753 38.5301 91.2413 38.4803 90.8507C38.3 90.7816 38.1017 90.7248 37.9072 90.6787Z" fill="white"/>
<path d="M29.9831 95.3H30.1514C30.2513 95.3015 30.342 95.28 30.4234 95.2354C30.5065 95.1908 30.5495 95.114 30.5526 95.0049C30.5526 94.9388 30.5418 94.8866 30.5203 94.8481C30.4987 94.8097 30.4696 94.7821 30.4327 94.7651C30.3958 94.7467 30.3527 94.7351 30.3036 94.7306C30.2544 94.7274 30.2022 94.7259 30.1468 94.7259H29.9831V95.3ZM29.824 94.5876H30.239C30.5464 94.583 30.7039 94.7221 30.7116 95.0049C30.7101 95.1094 30.6755 95.1932 30.6079 95.2562C30.5402 95.3208 30.4557 95.3607 30.3543 95.3761V95.3807C30.4157 95.3884 30.4603 95.4083 30.488 95.4406C30.5034 95.456 30.5164 95.4751 30.5272 95.4982C30.5395 95.5213 30.551 95.5466 30.5618 95.5743L30.8361 96.1967H30.6609L30.4281 95.6527C30.385 95.5528 30.3405 95.4906 30.2943 95.466C30.2713 95.4521 30.2451 95.4436 30.2159 95.4406C30.1867 95.439 30.1529 95.4383 30.1145 95.4383H29.9831V96.1967H29.824V94.5876Z" fill="white"/>
<path d="M31.8154 95.9201C31.8139 96.0093 31.8169 96.1015 31.8247 96.1967H31.684V95.9869H31.6794C31.6686 96.0131 31.654 96.0392 31.6356 96.0653C31.6171 96.093 31.5933 96.1192 31.5641 96.1437C31.5349 96.1667 31.4988 96.1852 31.4558 96.199C31.4127 96.2159 31.3604 96.2244 31.299 96.2244C31.1561 96.2228 31.0531 96.1798 30.9901 96.0953C30.927 96.0123 30.8963 95.9047 30.8978 95.7726V95.021H31.0431V95.7356C31.0431 95.8479 31.0654 95.9354 31.1099 95.9985C31.1529 96.0661 31.2237 96.0999 31.3221 96.0999C31.3881 96.0999 31.4442 96.0861 31.4904 96.0584C31.5364 96.0323 31.5718 95.9985 31.5964 95.957C31.6241 95.914 31.6433 95.8679 31.654 95.8187C31.6648 95.7695 31.6702 95.7203 31.6702 95.6711V95.021H31.8154V95.9201Z" fill="white"/>
<path d="M32.2812 96.0999C32.3534 96.0999 32.4149 96.0807 32.4656 96.0423C32.5148 96.0069 32.5401 95.9562 32.5417 95.8901C32.5401 95.821 32.5117 95.7665 32.4564 95.7265C32.4011 95.688 32.3357 95.6535 32.2604 95.6227C32.225 95.6058 32.1913 95.5882 32.159 95.5697C32.1267 95.5512 32.0959 95.5305 32.0668 95.5074C32.0406 95.4829 32.0191 95.4545 32.0022 95.4222C31.9853 95.3914 31.9768 95.3553 31.9768 95.3138C31.9783 95.197 32.0183 95.114 32.0967 95.0648C32.172 95.0172 32.2596 94.9934 32.3596 94.9934C32.3933 94.9934 32.4371 94.9965 32.4909 95.003C32.5448 95.0127 32.5977 95.0278 32.65 95.0487L32.6362 95.1732C32.5517 95.1379 32.4648 95.1193 32.3757 95.1178C32.3004 95.1178 32.2404 95.1316 32.1959 95.1591C32.1728 95.1728 32.1551 95.1919 32.1428 95.2163C32.129 95.2408 32.1221 95.2728 32.1221 95.3126C32.1221 95.3371 32.1305 95.3599 32.1474 95.3813C32.1643 95.4012 32.1866 95.4195 32.2143 95.4363C32.242 95.4516 32.2735 95.4676 32.3088 95.4844C32.3442 95.4998 32.3788 95.5168 32.4126 95.5352C32.4894 95.5677 32.5563 95.6108 32.6132 95.6648C32.67 95.7188 32.6992 95.7935 32.7008 95.8891C32.7008 95.9508 32.6884 96.0024 32.6639 96.044C32.6377 96.0872 32.6047 96.1219 32.5647 96.1481C32.4786 96.1989 32.3872 96.2244 32.2904 96.2244C32.1766 96.2244 32.0668 96.206 31.9607 96.1691L31.9745 96.0262C32.0636 96.0738 32.1659 96.0984 32.2812 96.0999Z" fill="white"/>
<path d="M33.0626 96.0999C33.1348 96.0999 33.1964 96.0807 33.2471 96.0423C33.2963 96.0069 33.3216 95.9562 33.3232 95.8901C33.3216 95.821 33.2932 95.7665 33.2379 95.7265C33.1825 95.688 33.1172 95.6535 33.0419 95.6227C33.0065 95.6058 32.9727 95.5882 32.9405 95.5697C32.9082 95.5512 32.8774 95.5305 32.8482 95.5074C32.8221 95.4829 32.8006 95.4545 32.7837 95.4222C32.7667 95.3914 32.7583 95.3553 32.7583 95.3138C32.7598 95.197 32.7998 95.114 32.8782 95.0648C32.9535 95.0172 33.0411 94.9934 33.141 94.9934C33.1748 94.9934 33.2186 94.9965 33.2725 95.003C33.3262 95.0127 33.3793 95.0278 33.4315 95.0487L33.4177 95.1732C33.3332 95.1379 33.2463 95.1193 33.1572 95.1178C33.0818 95.1178 33.0219 95.1316 32.9774 95.1591C32.9543 95.1728 32.9366 95.1919 32.9243 95.2163C32.9105 95.2408 32.9036 95.2728 32.9036 95.3126C32.9036 95.3371 32.912 95.3599 32.9289 95.3813C32.9458 95.4012 32.9681 95.4195 32.9958 95.4363C33.0234 95.4516 33.055 95.4676 33.0903 95.4844C33.1257 95.4998 33.1603 95.5168 33.1941 95.5352C33.2709 95.5677 33.3378 95.6108 33.3947 95.6648C33.4515 95.7188 33.4807 95.7935 33.4822 95.8891C33.4822 95.9508 33.47 96.0024 33.4454 96.044C33.4192 96.0872 33.3862 96.1219 33.3462 96.1481C33.2601 96.1989 33.1687 96.2244 33.0719 96.2244C32.9581 96.2244 32.8482 96.206 32.7422 96.1691L32.756 96.0262C32.8451 96.0738 32.9474 96.0984 33.0626 96.0999Z" fill="white"/>
<path d="M33.6275 95.021H33.7728V96.1967H33.6275V95.021ZM33.7728 94.7074H33.6275V94.5138H33.7728V94.7074Z" fill="white"/>
<path d="M34.6857 95.6043H34.6442C34.5812 95.6043 34.5182 95.6058 34.4552 95.6089C34.389 95.615 34.3291 95.6281 34.2753 95.6481C34.2215 95.6665 34.1785 95.695 34.1462 95.7333C34.1108 95.7718 34.0932 95.8232 34.0932 95.8878C34.0932 95.9631 34.1177 96.0169 34.167 96.0492C34.2131 96.083 34.2699 96.0999 34.3376 96.0999C34.4221 96.0999 34.4889 96.083 34.5381 96.0492C34.5858 96.0169 34.6204 95.9786 34.6419 95.9339C34.6649 95.8863 34.678 95.8394 34.6811 95.7933C34.6841 95.7457 34.6857 95.7065 34.6857 95.6757V95.6043ZM34.6996 96.0077H34.6949C34.6611 96.0769 34.6096 96.1299 34.5404 96.1668C34.4713 96.2037 34.3982 96.2228 34.3214 96.2244C34.24 96.2228 34.1739 96.2098 34.1232 96.1852C34.0709 96.1622 34.031 96.1329 34.0033 96.0976C33.9541 96.0208 33.931 95.9524 33.9341 95.8924C33.9341 95.7941 33.9579 95.7165 34.0056 95.6596C34.0517 95.6027 34.1108 95.562 34.1831 95.5374C34.2553 95.5113 34.3337 95.4944 34.4183 95.4867C34.5013 95.4821 34.5812 95.4798 34.658 95.4798H34.6857V95.4198C34.6903 95.2185 34.6012 95.1178 34.4183 95.1178C34.2968 95.1163 34.1816 95.1486 34.0724 95.2146V95.0763C34.1816 95.0242 34.2968 94.9965 34.4183 94.9934C34.6964 94.9903 34.834 95.1363 34.8309 95.4314V95.9501C34.8294 96.0392 34.8333 96.1215 34.8424 96.1967H34.6996V96.0077Z" fill="white"/>
<path d="M13.3003 92.8132C13.2188 91.2277 12.6895 89.6957 11.7333 88.4207L5.47384 80.0747C5.17167 80.697 4.95934 81.3594 4.86634 82.0559L3.80951 89.9827L13.3003 92.8132Z" fill="#EE1C28"/>
<path d="M2.76881 90.219C2.63264 90.6855 2.90048 91.1739 3.36681 91.3099L13.3333 94.2173V93.2204C13.3333 92.5906 13.2343 91.9736 13.0898 91.3683L4.11381 88.75C3.64748 88.614 3.15914 88.8816 3.02314 89.348L2.76881 90.219Z" fill="#EA3836"/>
<path d="M42.6997 92.8132C42.7812 91.2277 43.3105 89.6957 44.2667 88.4207L50.5262 80.0747C50.8284 80.697 51.0407 81.3594 51.1337 82.0559L52.1905 89.9827L42.6997 92.8132Z" fill="#EE1C28"/>
<path d="M53.2314 90.219C53.3675 90.6855 53.0997 91.1739 52.6334 91.3099L42.6667 94.2173V93.2204C42.6667 92.5906 42.7657 91.9736 42.9102 91.3683L51.8862 88.75C52.3525 88.614 52.8409 88.8816 52.9769 89.348L53.2314 90.219Z" fill="#EA3836"/>
<path d="M18.6666 53.2206C17.9333 53.2206 17.3333 52.6206 17.3333 51.8873V50.5539C17.3333 49.8206 17.9333 49.2206 18.6666 49.2206C19.3999 49.2206 19.9999 49.8206 19.9999 50.5539V51.8873C19.9999 52.6206 19.3999 53.2206 18.6666 53.2206Z" fill="#623F33"/>
<path d="M6.62185 40.05L6.66685 48.8963C19.2503 48.8963 29.6833 44.9644 36.5281 41.424C34.4013 43.7311 31.2019 46.8716 26.6666 50.5539C26.6666 50.5539 38.5383 45.8333 45.1886 39.9705V39.97C45.1886 31.2715 38.1371 24.22 29.4386 24.22H22.3715C13.6418 24.22 6.57735 31.3205 6.62185 40.05Z" fill="#E69F5F"/>
<path d="M34.2983 24.9854C32.7676 24.4892 31.1348 24.2202 29.4388 24.2202H22.3716C13.6418 24.2202 6.57752 31.3205 6.62185 40.0502L6.66685 48.8966C10.3362 48.8966 13.8212 48.5606 17.0892 47.9991C29.1343 38.7748 34.2788 25.0377 34.2983 24.9854Z" fill="#E09156"/>
<path d="M112.245 92.7298L110.089 75.2382C109.764 72.598 107.973 70.3819 105.485 69.5405L97.1741 66.7301C96.0329 66.3441 94.7809 66.59 93.9008 67.3507L91.453 66.5228C90.0625 66.0526 89.1245 64.7325 89.1245 63.2455V57.6745L96.4592 54.5742C100.266 52.965 102.746 49.1914 102.746 45.0075V43.2801C105.567 43.2801 107.854 40.9602 107.854 38.0982C107.854 36.6823 107.294 35.3995 106.387 34.4642L108.182 19.8917C109.021 13.0874 105.889 6.40832 100.157 2.77406C97.398 1.02537 94.2099 0.0978088 90.9564 0.0978088C90.9564 0.0978088 66.589 0.102775 66.4832 0.110764C62.9151 0.287165 59.83 2.32172 58.1426 5.27974H57.6648C52.6364 5.27974 48.4271 9.62004 48.9932 14.6884C48.9973 14.7249 49.0015 14.7614 49.006 14.7977L51.4294 34.4646C50.5221 35.3999 49.9617 36.6827 49.9617 38.0986C49.9617 40.9606 52.2486 43.2806 55.0698 43.2806V45.0079C55.0698 49.1917 57.5496 52.9652 61.3567 54.5746L68.6916 57.6749V63.2457C68.6916 64.7327 67.7536 66.0528 66.3631 66.5231L63.9153 67.3509C63.0352 66.5902 61.7832 66.3443 60.642 66.7303L52.3312 69.5407C49.8429 70.3821 48.0521 72.5982 47.7266 75.2384L45.5714 92.73C45.1902 95.823 47.5676 98.5547 50.6402 98.5547H50.6881H107.128H107.176C110.248 98.5545 112.626 95.8228 112.245 92.7298Z" fill="#FFD7A3"/>
<path d="M68.6914 63.2445C68.6914 63.2454 68.6914 63.2463 68.6914 63.2471C68.6914 63.3305 68.6878 63.4132 68.6817 63.495C68.6785 63.5384 68.6731 63.5814 68.6685 63.6245C68.6646 63.6587 68.6612 63.6928 68.6563 63.7267C68.6472 63.7932 68.6355 63.8586 68.6225 63.924C68.6223 63.9251 68.6221 63.9262 68.6218 63.9275C68.4331 64.8777 67.8584 65.7042 67.0415 66.203C81.2859 68.6994 89.1241 57.5299 89.1241 57.5299H68.6914V63.2445Z" fill="#FDC88E"/>
<path d="M100.157 2.77321C97.3979 1.02409 94.2098 0.0965271 90.9563 0.0965271H90.8269V36.37H106.151L108.182 19.8911C109.02 13.0868 105.889 6.40747 100.157 2.77321Z" fill="#734A3E"/>
<path d="M48.9929 14.6873C48.997 14.7237 49.0012 14.7602 49.0057 14.7965L51.6641 36.3702H61.8804V5.27859H57.6644C52.6361 5.27859 48.4268 9.61868 48.9929 14.6873Z" fill="#623F33"/>
<path d="M102.746 32.9155V29.4609C102.746 24.6912 98.9341 20.8244 94.2323 20.8244H63.5833C58.8812 20.8244 55.0697 24.6912 55.0697 29.4609V32.9155C52.2485 32.9155 49.9615 35.2358 49.9615 38.0975C49.9615 40.9594 52.2485 43.2794 55.0697 43.2794V45.0067C55.0697 49.1905 57.5495 52.964 61.3565 54.5734L72.3585 59.2238C74.4336 60.101 76.6595 60.5525 78.9076 60.5525C81.1556 60.5525 83.3812 60.1008 85.4564 59.2238L96.459 54.5732C100.266 52.964 102.746 49.1905 102.746 45.0065V43.2792C105.567 43.2792 107.854 40.9592 107.854 38.0973C107.854 35.2353 105.567 32.9155 102.746 32.9155Z" fill="#FFE1B2"/>
<path d="M66.9887 39.8248C66.0522 39.8248 65.286 39.0475 65.286 38.0975V36.3702C65.286 35.4202 66.0522 34.6429 66.9887 34.6429C67.9252 34.6429 68.6915 35.4202 68.6915 36.3702V38.0975C68.6915 39.0475 67.9252 39.8248 66.9887 39.8248Z" fill="#623F33"/>
<path d="M90.8269 39.8248C89.8904 39.8248 89.1241 39.0475 89.1241 38.0975V36.3702C89.1241 35.4202 89.8904 34.6429 90.8269 34.6429C91.7634 34.6429 92.5296 35.4202 92.5296 36.3702V38.0975C92.5296 39.0475 91.7634 39.8248 90.8269 39.8248Z" fill="#623F33"/>
<path d="M78.9078 51.9633C75.8806 51.9633 73.0489 51.2076 71.1391 49.8894C70.3618 49.3531 70.1596 48.2785 70.6894 47.49C71.2172 46.7023 72.2774 46.4972 73.0547 47.0338C74.3932 47.9572 76.5814 48.5089 78.9078 48.5089C81.2341 48.5089 83.4223 47.9572 84.7609 47.0338C85.5399 46.4957 86.5975 46.7015 87.1262 47.49C87.6557 48.2785 87.4538 49.3531 86.6765 49.8894C84.7666 51.2076 81.9348 51.9633 78.9078 51.9633Z" fill="#E4B07B"/>
<path d="M94.2323 20.8244H63.5833C62.9992 20.8244 62.4301 20.8863 61.8806 21.0016V20.9984C57.9947 21.7988 55.0697 25.2828 55.0697 29.4609V32.9156C52.2485 32.9156 49.9615 35.2355 49.9615 38.0975C49.9615 40.9594 52.2485 43.2794 55.0697 43.2794V45.0067C55.0697 49.1907 57.5495 52.9642 61.3565 54.5734L72.3583 59.2238C72.8967 59.4514 73.4463 59.6474 74.0029 59.8173C69.1408 56.2092 65.9043 53.0549 64.0079 50.9925C62.6283 49.4919 61.8806 47.5118 61.8806 45.4597V25.8811C71.3341 33.5335 91.7221 32.9151 102.746 32.9151V29.4609C102.746 24.6912 98.9342 20.8244 94.2323 20.8244Z" fill="#FFD7A3"/>
<path d="M90.8269 0.0966417H66.9888C61.3464 0.0966417 56.7725 4.73663 56.7725 10.4605C56.7725 20.4465 66.1368 26.493 73.7997 29.4609C73.7997 29.4609 72.9451 27.8785 71.7941 25.5397C78.5903 27.8461 89.0869 29.4609 103.385 29.4609C103.385 29.4609 103.385 25.7364 103.385 24.4949C103.385 -0.695115 90.8269 0.0966417 90.8269 0.0966417Z" fill="#734A3E"/>
<path d="M102.813 31.1806H94.1257C94.12 31.1806 94.1149 31.1821 94.1091 31.1823C93.1349 30.6365 92.0163 30.3245 90.8267 30.3245C87.6869 30.3245 85.0376 32.4918 84.2531 35.4287C83.2796 33.4302 81.2495 32.0518 78.9076 32.0518C76.5657 32.0518 74.5357 33.4302 73.5621 35.4287C72.7776 32.4918 70.1284 30.3245 66.9886 30.3245C65.8003 30.3245 64.6824 30.6356 63.7089 31.1806H55.0695C54.5989 31.1806 54.2181 31.5669 54.2181 32.0442C54.2181 32.5216 54.5989 32.9079 55.0695 32.9079H61.6833C60.7425 34.0928 60.1777 35.5973 60.1777 37.2337C60.1777 41.0435 63.2332 44.143 66.9886 44.143C70.1665 44.143 72.8427 41.9232 73.5907 38.9319C73.6577 38.9492 73.7269 38.9611 73.7995 38.9611C74.27 38.9611 74.6508 38.5748 74.6508 38.0974C74.6508 35.7165 76.5606 33.7791 78.9076 33.7791C81.2546 33.7791 83.1644 35.7165 83.1644 38.0974C83.1644 38.5748 83.5452 38.9611 84.0158 38.9611C84.0882 38.9611 84.1573 38.9492 84.2246 38.9319C84.9727 41.9232 87.6488 44.143 90.8267 44.143C94.5823 44.143 97.6376 41.0435 97.6376 37.2337C97.6376 35.5973 97.0727 34.0928 96.1319 32.9079H102.813C103.284 32.9079 103.665 32.5216 103.665 32.0442C103.665 31.5669 103.284 31.1806 102.813 31.1806ZM66.9888 42.4157C64.172 42.4157 61.8806 40.0911 61.8806 37.2337C61.8806 34.3763 64.172 32.0518 66.9888 32.0518C69.8055 32.0518 72.0969 34.3763 72.0969 37.2337C72.0969 40.0911 69.8055 42.4157 66.9888 42.4157ZM90.8269 42.4157C88.0102 42.4157 85.7187 40.0911 85.7187 37.2337C85.7187 34.3763 88.0102 32.0518 90.8269 32.0518C93.6436 32.0518 95.9351 34.3763 95.9351 37.2337C95.9351 40.0911 93.6436 42.4157 90.8269 42.4157Z" fill="#734A3E"/>
<path d="M78.9078 77.3937C85.8421 77.3937 91.8749 73.4816 94.9809 67.7147L91.4528 66.5218C91.1104 66.4061 90.7968 66.2368 90.5168 66.028C88.1221 69.9909 83.8259 72.6436 78.908 72.6436C73.9901 72.6436 69.694 69.9909 67.2993 66.028C67.019 66.2366 66.7055 66.4059 66.3632 66.5218L62.835 67.7147C65.9405 73.4816 71.9735 77.3937 78.9078 77.3937Z" fill="#0A5B3A"/>
<path d="M112.245 92.7288L110.089 75.2371C109.764 72.5969 107.973 70.3808 105.485 69.5394L97.1742 66.729C95.7269 66.2396 94.0986 66.7623 93.2811 68.069C90.2628 72.8932 84.9578 76.0982 78.908 76.0982C72.8582 76.0982 67.5532 72.8932 64.5349 68.069C63.7174 66.7623 62.0892 66.2396 60.6418 66.729L52.3311 69.5394C49.8427 70.3808 48.0519 72.5969 47.7267 75.2371L45.5715 92.7288C45.1903 95.8215 47.5677 98.5535 50.6403 98.5535H107.176C110.248 98.5535 112.626 95.8217 112.245 92.7288Z" fill="#00834E"/>
<path d="M49.1457 71.8164C48.3897 72.7874 47.8836 73.9605 47.7263 75.2372L45.5711 92.7288C45.1899 95.8217 45 98.5535 45 98.5535H60.1779V87.3115C60.1779 85.6496 59.5875 84.0436 58.515 82.7875L49.1457 71.8164Z" fill="#0A5B3A"/>
<path d="M108.67 71.8164C109.426 72.7874 109.932 73.9605 110.089 75.2372L112.244 92.7288C112.626 95.8217 113.127 98.5535 113.127 98.5535H97.6377V87.3115C97.6377 85.6496 98.2281 84.0436 99.3006 82.7875L108.67 71.8164Z" fill="#0A5B3A"/>
<path d="M87.3993 87.8426C87.2645 87.7981 87.1659 87.7723 87.0048 87.7723C86.8865 87.7723 86.7451 87.814 86.7451 87.9544C86.7451 88.2163 87.5111 88.0503 87.5111 88.6436C87.5111 89.0269 87.1594 89.1802 86.801 89.1802C86.6332 89.1802 86.4623 89.1516 86.3012 89.11L86.3275 88.7587C86.4655 88.8257 86.6102 88.8672 86.7613 88.8672C86.8733 88.8672 87.0508 88.8257 87.0508 88.6662C87.0508 88.3438 86.2848 88.564 86.2848 87.9704C86.2848 87.6161 86.6037 87.4595 86.9488 87.4595C87.156 87.4595 87.2909 87.4916 87.4289 87.5203L87.3993 87.8426Z" fill="white"/>
<path d="M89.4507 89.1438H89.8915V87.5H89.4507V89.1438Z" fill="white"/>
<path d="M92.647 87.8426C92.5123 87.7981 92.4135 87.7723 92.2525 87.7723C92.1339 87.7723 91.9927 87.814 91.9927 87.9544C91.9927 88.2163 92.7587 88.0503 92.7587 88.6436C92.7587 89.0269 92.407 89.1802 92.0487 89.1802C91.8809 89.1802 91.7101 89.1516 91.5489 89.11L91.5751 88.7587C91.7132 88.8257 91.858 88.8672 92.0091 88.8672C92.1209 88.8672 92.2985 88.8257 92.2985 88.6662C92.2985 88.3438 91.5324 88.564 91.5324 87.9704C91.5324 87.6161 91.8513 87.4595 92.1968 87.4595C92.4037 87.4595 92.5384 87.4916 92.6765 87.5203L92.647 87.8426Z" fill="white"/>
<path d="M88.5901 88.2368L89.2143 87.5H88.6948L88.1689 88.1575H88.1622V86.6154L87.7216 86.7499V89.1438H88.1622V88.3458H88.1689L88.7344 89.1438H89.2932L88.5901 88.2368Z" fill="white"/>
<path d="M90.1757 86.7499V89.1438H90.616V86.6154L90.1757 86.7499Z" fill="white"/>
<path d="M90.8701 86.7499H90.8698V89.1438H91.3104V86.6154L90.8701 86.7499Z" fill="white"/>
<path d="M89.9258 86.8862C89.9258 86.7506 89.8157 86.6408 89.6803 86.6408C89.545 86.6408 89.435 86.7506 89.435 86.8862C89.435 87.0218 89.545 87.1316 89.6803 87.1316C89.8157 87.1316 89.9258 87.0218 89.9258 86.8862Z" fill="white"/>
<path d="M82.2749 89.0274C81.9391 89.0274 81.7137 88.7521 81.7137 88.342C81.7137 87.9317 81.9391 87.6562 82.2749 87.6562C82.6106 87.6562 82.8363 87.9317 82.8363 88.342C82.8363 88.7521 82.6106 89.0274 82.2749 89.0274ZM82.2749 87.4956C81.7016 87.4956 81.4982 87.9513 81.4982 88.342C81.4982 88.7324 81.7016 89.1883 82.2749 89.1883C82.8483 89.1883 83.0517 88.7324 83.0517 88.342C83.0517 87.9513 82.8483 87.4956 82.2749 87.4956Z" fill="white"/>
<path d="M83.4246 87.7927V87.5276H83.2418L83.2421 89.1438H83.4376V88.3454L83.4373 88.335C83.4376 88.0372 83.522 87.6813 83.9239 87.6813L83.985 87.6842L83.9857 87.6778L83.9955 87.4894L83.9728 87.4892C83.7013 87.4892 83.5173 87.5916 83.4246 87.7927Z" fill="white"/>
<path d="M85.3306 89.0213C84.8774 89.0213 84.8284 88.5418 84.8284 88.3357C84.8284 88.1295 84.8774 87.65 85.3306 87.65C85.6775 87.65 85.8329 87.9943 85.8329 88.3357C85.8329 88.677 85.6775 89.0213 85.3306 89.0213ZM86.0206 86.7056L85.8329 86.763V87.7622C85.7921 87.694 85.6395 87.485 85.2976 87.4891C84.7318 87.4963 84.613 87.9533 84.613 88.3357C84.613 88.8578 84.8754 89.1822 85.2977 89.1822C85.5493 89.1822 85.7194 89.0895 85.8329 88.8933V89.1438H86.0285V86.7031L86.0206 86.7056Z" fill="white"/>
<path d="M84.3873 86.7057L84.1995 86.7629V89.1438H84.3952V86.7031L84.3873 86.7057Z" fill="white"/>
<path d="M79.2101 87.5275H79L79.0026 87.5356C79.0127 87.5661 79.5291 89.1253 79.534 89.1395L79.5354 89.1438H79.7769C79.7769 89.1438 80.2312 87.7446 80.2339 87.7361H80.2488C80.2516 87.7446 80.7058 89.1438 80.7058 89.1438H80.9475L81.4959 87.5275H81.3009C81.3009 87.5275 80.8401 88.9267 80.8374 88.9351H80.8223C80.8197 88.9267 80.3786 87.5275 80.3786 87.5275H80.137C80.137 87.5275 79.6729 88.9267 79.67 88.9351H79.6551C79.6525 88.9265 79.2146 87.5275 79.2146 87.5275H79.2101Z" fill="white"/>
<path d="M89.0418 83.8339C89.0418 83.8339 89.8287 83.6946 90.0863 83.0691C90.0863 83.0691 94.6677 84.0074 91.9631 86.4512C91.9631 86.4512 92.9668 85.5062 92.4063 84.7504C92.4063 84.7504 92.7191 85.6887 91.494 86.3208C91.494 86.3208 94.151 84.4335 89.0418 83.8339Z" fill="white"/>
<path d="M91.552 83.4916C91.8724 83.6501 92.0966 83.8059 92.2278 83.9082C92.2854 82.268 91.1094 81.3511 91.1094 81.3511C91.0752 81.4562 90.9725 81.5735 90.8259 81.6272C90.6793 81.681 90.5912 81.8569 90.5912 81.8569C91.166 82.335 91.4421 82.9185 91.552 83.4916Z" fill="white"/>
<path d="M89.9646 83.1851C90.034 83.0815 90.0535 83.0104 90.0535 83.0104C90.3563 83.0642 90.628 83.1351 90.8701 83.2144C90.3681 81.7833 89.4346 81 89.4346 81C89.4084 81.075 89.1348 81.2118 88.9491 81.2933C88.7634 81.3747 88.8122 81.7201 88.8122 81.7201C89.3228 82.1419 89.694 82.6583 89.9646 83.1851Z" fill="white"/>
<path d="M91.8852 84.7706C91.822 85.4767 91.4027 86.2263 91.4027 86.2263C91.6987 85.7761 91.9011 85.3532 92.0318 84.9594C91.9951 84.8927 91.9458 84.8299 91.8852 84.7706Z" fill="white"/>
<path d="M91.8301 84.7204C91.761 84.6611 91.6812 84.6054 91.5926 84.5535C91.5191 85.3132 91.2657 85.8842 91.2657 85.8842C91.4123 85.718 91.5248 85.4492 91.5248 85.4492C91.5295 85.6399 91.3732 86.0162 91.3732 86.0162C91.6423 85.584 91.7711 85.0586 91.8301 84.7204Z" fill="white"/>
<path d="M90.2402 86.1997C90.0772 86.112 89.841 86.0185 89.3555 85.6426C89.723 85.9192 90.3366 86.096 90.3366 86.096C88.982 85.4084 88.6867 84.7853 88.6867 84.7853C88.5563 84.781 88.4777 84.8637 88.4261 84.892C88.3745 84.9204 88.2336 84.9179 88.2336 84.9179C88.7499 85.7503 90.2402 86.1997 90.2402 86.1997Z" fill="white"/>
<path d="M89.6341 83.9592C89.184 83.8847 88.8535 83.8559 88.8535 83.8559C89.0335 83.8107 89.1864 83.7558 89.3174 83.696C88.684 83.2348 88.0529 83.1212 88.0529 83.1212C88.0529 83.1212 87.9356 83.1603 87.9193 83.3557C87.9031 83.5513 87.7532 83.5774 87.7532 83.5774C90.1188 84.2094 90.4739 86.1579 90.4739 86.1579C90.3126 85.2781 89.9705 84.7162 89.9705 84.7162C90.3321 85.0875 90.5814 86.0309 90.5814 86.0309C90.5012 85.0558 90.0968 84.3984 89.6341 83.9592Z" fill="white"/>
<path d="M90.342 84.1002C90.6826 85.151 90.689 86.0406 90.689 86.0406C90.941 85.552 90.8747 84.4277 90.8747 84.4277C91.1094 84.8872 91.08 86.1384 91.08 86.1384C91.2004 85.4809 91.205 84.8796 91.136 84.3385C90.8862 84.2428 90.6115 84.1641 90.342 84.1002Z" fill="white"/>
<path d="M79.3637 90.5027H79.5969C79.7352 90.5049 79.8609 90.475 79.9737 90.4133C80.0888 90.3515 80.1483 90.245 80.1526 90.0939C80.1526 90.0024 80.1377 89.9299 80.1079 89.8767C80.0781 89.8235 80.0377 89.7852 79.9865 89.7617C79.9354 89.7362 79.8758 89.7201 79.8077 89.7138C79.7395 89.7095 79.6672 89.7074 79.5905 89.7074H79.3637V90.5027ZM79.1433 89.5157H79.7182C80.1441 89.5093 80.3624 89.7021 80.373 90.0939C80.3709 90.2387 80.323 90.3547 80.2293 90.4421C80.1356 90.5315 80.0185 90.5868 79.878 90.6081V90.6145C79.9631 90.6252 80.0248 90.6528 80.0632 90.6975C80.0845 90.7189 80.1025 90.7454 80.1175 90.7773C80.1345 90.8093 80.1504 90.8444 80.1654 90.8828L80.5455 91.7451H80.3027L79.9802 90.9914C79.9205 90.8529 79.8588 90.7668 79.7949 90.7327C79.7629 90.7135 79.7267 90.7017 79.6863 90.6975C79.6458 90.6953 79.599 90.6943 79.5457 90.6943H79.3637V91.7451H79.1433V89.5157Z" fill="white"/>
<path d="M81.9023 91.3618C81.9001 91.4854 81.9044 91.6131 81.9151 91.7451H81.7202V91.4544H81.7138C81.6989 91.4906 81.6787 91.5268 81.6532 91.563C81.6276 91.6014 81.5945 91.6376 81.5541 91.6716C81.5136 91.7035 81.4636 91.7291 81.404 91.7483C81.3444 91.7717 81.2719 91.7834 81.1868 91.7834C80.9888 91.7812 80.8461 91.7217 80.7588 91.6046C80.6714 91.4896 80.6289 91.3405 80.631 91.1574V90.1162H80.8322V91.1063C80.8322 91.2617 80.8631 91.3831 80.9249 91.4704C80.9845 91.5641 81.0825 91.6109 81.2187 91.6109C81.3103 91.6109 81.388 91.5918 81.4519 91.5534C81.5158 91.5173 81.5647 91.4704 81.5988 91.4129C81.6372 91.3533 81.6637 91.2895 81.6787 91.2213C81.6936 91.1531 81.701 91.085 81.701 91.0168V90.1162H81.9023V91.3618Z" fill="white"/>
<path d="M82.5475 91.611C82.6476 91.611 82.7327 91.5844 82.803 91.5311C82.8711 91.4821 82.9063 91.4119 82.9084 91.3203C82.9063 91.2245 82.8669 91.149 82.7902 91.0936C82.7136 91.0403 82.6231 90.9925 82.5188 90.9498C82.4697 90.9264 82.4229 90.9019 82.3782 90.8764C82.3335 90.8508 82.2909 90.822 82.2505 90.7901C82.2142 90.7561 82.1844 90.7167 82.161 90.672C82.1376 90.6294 82.1259 90.5793 82.1259 90.5219C82.128 90.3601 82.1834 90.245 82.292 90.1769C82.3962 90.111 82.5177 90.0779 82.6561 90.0779C82.7029 90.0779 82.7636 90.0823 82.8381 90.0912C82.9127 90.1046 82.9861 90.1256 83.0585 90.1545L83.0394 90.327C82.9223 90.2781 82.8019 90.2524 82.6785 90.2503C82.5741 90.2503 82.491 90.2695 82.4293 90.3075C82.3973 90.3265 82.3729 90.353 82.3559 90.3868C82.3367 90.4206 82.3271 90.4651 82.3271 90.5201C82.3271 90.5541 82.3388 90.5858 82.3622 90.6153C82.3856 90.6429 82.4165 90.6683 82.4549 90.6915C82.4932 90.7127 82.5368 90.7349 82.5859 90.7582C82.6348 90.7795 82.6827 90.803 82.7296 90.8286C82.836 90.8736 82.9286 90.9333 83.0075 91.0081C83.0862 91.0829 83.1267 91.1864 83.1288 91.3189C83.1288 91.4043 83.1118 91.4759 83.0777 91.5335C83.0415 91.5933 82.9957 91.6415 82.9403 91.6777C82.8211 91.7481 82.6944 91.7834 82.5603 91.7834C82.4027 91.7834 82.2505 91.7579 82.1035 91.7068L82.1227 91.5088C82.2462 91.5748 82.3878 91.6089 82.5475 91.611Z" fill="white"/>
<path d="M83.6302 91.611C83.7302 91.611 83.8155 91.5844 83.8857 91.5311C83.9539 91.4821 83.989 91.4119 83.9911 91.3203C83.989 91.2245 83.9496 91.149 83.8729 91.0936C83.7963 91.0403 83.7057 90.9925 83.6015 90.9498C83.5524 90.9264 83.5056 90.9019 83.4609 90.8764C83.4162 90.8508 83.3736 90.822 83.3332 90.7901C83.2969 90.7561 83.2671 90.7167 83.2437 90.672C83.2202 90.6294 83.2086 90.5793 83.2086 90.5219C83.2107 90.3601 83.266 90.245 83.3747 90.1769C83.479 90.111 83.6004 90.0779 83.7388 90.0779C83.7856 90.0779 83.8463 90.0823 83.9209 90.0912C83.9953 90.1046 84.0689 90.1256 84.1412 90.1545L84.1221 90.327C84.005 90.2781 83.8846 90.2524 83.7611 90.2503C83.6568 90.2503 83.5737 90.2695 83.512 90.3075C83.4801 90.3265 83.4556 90.353 83.4385 90.3868C83.4194 90.4206 83.4098 90.4651 83.4098 90.5201C83.4098 90.5541 83.4215 90.5858 83.4449 90.6153C83.4683 90.6429 83.4992 90.6683 83.5376 90.6915C83.5759 90.7127 83.6195 90.7349 83.6685 90.7582C83.7175 90.7795 83.7654 90.803 83.8123 90.8286C83.9187 90.8736 84.0113 90.9333 84.0902 91.0081C84.1689 91.0829 84.2094 91.1864 84.2115 91.3189C84.2115 91.4043 84.1945 91.4759 84.1604 91.5335C84.1242 91.5933 84.0784 91.6415 84.0231 91.6777C83.9038 91.7481 83.7771 91.7834 83.643 91.7834C83.4854 91.7834 83.3332 91.7579 83.1862 91.7068L83.2053 91.5088C83.3288 91.5748 83.4705 91.6089 83.6302 91.611Z" fill="white"/>
<path d="M84.4128 90.1162H84.614V91.7451H84.4128V90.1162ZM84.614 89.6818H84.4128V89.4135H84.614V89.6818Z" fill="white"/>
<path d="M85.8789 90.9243H85.8214C85.7341 90.9243 85.6468 90.9264 85.5595 90.9307C85.4679 90.9392 85.3848 90.9573 85.3103 90.985C85.2357 91.0105 85.1762 91.0499 85.1315 91.1031C85.0824 91.1564 85.058 91.2277 85.058 91.3171C85.058 91.4214 85.092 91.496 85.1602 91.5406C85.2241 91.5875 85.3028 91.611 85.3966 91.611C85.5136 91.611 85.6063 91.5875 85.6744 91.5406C85.7404 91.496 85.7884 91.4428 85.8182 91.381C85.8501 91.3151 85.8682 91.25 85.8725 91.1862C85.8767 91.1202 85.8789 91.066 85.8789 91.0233V90.9243ZM85.8981 91.4832H85.8917C85.8448 91.579 85.7735 91.6525 85.6776 91.7036C85.5818 91.7547 85.4806 91.7813 85.3742 91.7834C85.2613 91.7813 85.1698 91.7632 85.0995 91.7292C85.0271 91.6972 84.9718 91.6567 84.9334 91.6077C84.8652 91.5014 84.8333 91.4066 84.8376 91.3235C84.8376 91.1873 84.8706 91.0798 84.9366 91.0009C85.0005 90.9222 85.0824 90.8658 85.1826 90.8316C85.2826 90.7955 85.3913 90.772 85.5084 90.7614C85.6234 90.755 85.7341 90.7518 85.8405 90.7518H85.8789V90.6688C85.8852 90.3898 85.7618 90.2503 85.5084 90.2503C85.3401 90.2483 85.1804 90.293 85.0292 90.3845V90.1928C85.1804 90.1206 85.3401 90.0823 85.5084 90.0779C85.8938 90.0736 86.0843 90.2759 86.0801 90.6847V91.4034C86.078 91.5268 86.0833 91.6408 86.096 91.7451H85.8981V91.4832Z" fill="white"/>
</svg>
