<svg width="185" height="185" viewBox="0 0 185 185" fill="none" xmlns="http://www.w3.org/2000/svg">
<g clip-path="url(#clip0)">
<g clip-path="url(#clip1)">
<path d="M96.4918 99.9181V86.541H116.557V99.9181" fill="#BC8F6F"/>
<path d="M96.4918 99.9181V86.541H109.869V99.9181" fill="#CB9E78"/>
<path d="M150 227C157.387 227 163.377 221.01 163.377 213.623V210.346C163.377 208.108 162.815 205.904 161.746 203.941L123.246 133.361V99.918H89.8327V133.361L51.3377 203.941C50.2681 205.907 49.7048 208.108 49.7048 210.346V213.623C49.7048 221.01 55.6944 227 63.0818 227H150Z" fill="#BAB8B9"/>
<path d="M153.344 213.623V210.346C153.344 208.108 152.783 205.904 151.713 203.941L113.213 133.361V99.918H89.8327V133.361L51.3377 203.941C50.2681 205.907 49.7048 208.108 49.7048 210.346V213.623C49.7048 221.01 55.6944 227 63.0818 227H139.967C147.355 227 153.344 221.01 153.344 213.623Z" fill="#D9D7D8"/>
<path d="M163.377 213.623V210.346C163.377 208.109 162.815 205.904 161.746 203.941L137.839 160.115H132.704C130.93 160.115 129.229 160.82 127.975 162.074L125.205 164.844C123.951 166.098 122.25 166.803 120.476 166.803H119.33C117.557 166.803 115.855 166.098 114.601 164.844L111.832 162.074C110.574 160.82 108.873 160.115 107.099 160.115H105.953C104.18 160.115 102.478 160.82 101.224 162.074L98.4546 164.844C97.1972 166.098 95.4957 166.803 93.7223 166.803H92.576C90.8026 166.803 89.1011 166.098 87.847 164.844L85.0775 162.074C83.8202 160.82 82.1186 160.115 80.3453 160.115H75.2423L51.3377 203.941C50.2681 205.907 49.7048 208.109 49.7048 210.346V213.623C49.7048 221.01 55.6944 227 63.0818 227H150C157.387 227 163.377 221.01 163.377 213.623Z" fill="#599072"/>
<path d="M156.688 140.049V168.552C145.006 172.688 136.623 183.802 136.623 196.902C136.623 213.527 150.096 227 166.721 227C183.346 227 196.82 213.527 196.82 196.902C196.82 183.802 188.436 172.688 176.754 168.552V140.049" fill="#BAB8B9"/>
<path d="M136.623 196.902C136.623 212.392 148.331 225.137 163.377 226.802C178.423 225.137 190.131 212.392 190.131 196.902C190.131 183.802 181.748 172.688 170.066 168.552V140.049H156.688V168.552C145.006 172.688 136.623 183.802 136.623 196.902Z" fill="#D9D7D8"/>
<path d="M126.59 186.869C126.59 190.563 123.595 193.557 119.902 193.557C116.208 193.557 113.213 190.563 113.213 186.869C113.213 183.175 116.208 180.18 119.902 180.18C123.595 180.18 126.59 183.175 126.59 186.869Z" fill="#70B48F"/>
<path d="M76.4262 39.7213C76.4262 47.1087 70.4366 53.0983 63.0492 53.0983C55.6617 53.0983 49.6721 47.1087 49.6721 39.7213C49.6721 32.3339 55.6617 26.3442 63.0492 26.3442C70.4366 26.3442 76.4262 32.3339 76.4262 39.7213Z" fill="#599072"/>
<path d="M83.1148 73.1639C83.1148 76.8576 80.12 79.8524 76.4263 79.8524C72.7325 79.8524 69.7377 76.8576 69.7377 73.1639C69.7377 69.4702 72.7325 66.4753 76.4263 66.4753C80.12 66.4753 83.1148 69.4702 83.1148 73.1639Z" fill="#85B6CF"/>
<path d="M69.7377 103.262C69.7377 108.803 65.2455 113.295 59.7049 113.295C54.1643 113.295 49.6721 108.803 49.6721 103.262C49.6721 97.7217 54.1643 93.2295 59.7049 93.2295C65.2455 93.2295 69.7377 97.7217 69.7377 103.262Z" fill="#CB9E78"/>
<path d="M146.656 136.705H186.787V143.393H146.656V136.705Z" fill="black"/>
<path d="M146.656 136.705H186.787V143.393H146.656V136.705Z" fill="#BC8F6F"/>
<path d="M146.656 136.705H176.754V143.393H146.656V136.705Z" fill="#CB9E78"/>
<path d="M156.688 150.082H176.754V156.771H156.688V150.082Z" fill="#BC8F6F"/>
<path d="M156.688 150.082H170.066V156.771H156.688V150.082Z" fill="#CB9E78"/>
<path d="M79.7705 109.951H133.279V116.639H79.7705V109.951Z" fill="#BC8F6F"/>
<path d="M79.7705 109.951H113.213V116.639H79.7705V109.951Z" fill="#CB9E78"/>
<path d="M83.1147 180.18H89.8033V186.869H83.1147V180.18Z" fill="#70B48F"/>
<path d="M119.902 76.5082H113.213V33.0328C113.213 27.502 117.715 23 123.246 23H236.951C242.482 23 246.984 27.502 246.984 33.0328V63.1311H240.295V33.0328C240.295 31.1908 238.796 29.6885 236.951 29.6885H123.246C121.401 29.6885 119.902 31.1908 119.902 33.0328V76.5082Z" fill="#ED7775"/>
<path d="M180.098 130.016H173.41V59.7869C173.41 57.945 171.911 56.4427 170.066 56.4427H103.18C101.335 56.4427 99.836 57.945 99.836 59.7869V76.5082H93.1475V59.7869C93.1475 54.2562 97.6495 49.7542 103.18 49.7542H170.066C175.596 49.7542 180.098 54.2562 180.098 59.7869V130.016Z" fill="#599072"/>
<path d="M160.033 130.016H153.344V46.4097C153.344 40.879 157.846 36.377 163.377 36.377H203.508C209.039 36.377 213.541 40.879 213.541 46.4097V63.1311H206.852V46.4097C206.852 44.5678 205.353 43.0655 203.508 43.0655H163.377C161.532 43.0655 160.033 44.5678 160.033 46.4097V130.016Z" fill="#94CCE7"/>
</g>
</g>
<defs>
<clipPath id="clip0">
<rect width="185" height="185" fill="white"/>
</clipPath>
<clipPath id="clip1">
<rect width="204" height="204" fill="white" transform="translate(48 23)"/>
</clipPath>
</defs>
</svg>
