<svg width="185" height="185" viewBox="0 0 185 185" fill="none" xmlns="http://www.w3.org/2000/svg">
<g clip-path="url(#clip0)">
<g clip-path="url(#clip1)">
<path d="M129.756 27.5281C115.459 27.5281 103.87 39.1176 103.87 53.4141V63.8809C105.6 62.2774 108.061 61.4055 110.464 61.7266V60.4367C110.464 59.4113 111.339 58.6012 112.354 58.6781C122.363 59.3973 132.548 56.2168 140.249 51.1859C140.969 50.716 141.921 50.8328 142.505 51.4609C149.089 58.5383 149.049 58.2641 149.049 59.1883V61.7211C151.682 61.3262 154.018 62.1403 155.641 63.6492V53.4145C155.642 39.1176 144.053 27.5281 129.756 27.5281Z" fill="#707487"/>
<path d="M112.01 53.4145C112.01 40.5027 121.463 29.8023 133.826 27.8492C132.5 27.6398 131.142 27.5281 129.756 27.5281C115.46 27.5281 103.87 39.1176 103.87 53.4141V63.8809C105.601 62.277 108.062 61.4055 110.464 61.7266V60.4367C110.464 59.5297 111.15 58.7942 112.01 58.6887V53.4145Z" fill="#5B5D6E"/>
<path d="M149.015 60.7841V75.0196C149.015 75.1739 149.007 75.3263 149.003 75.4802C154.04 76.2431 157.986 72.6032 157.986 68.1329C157.986 63.6536 154.037 60.0313 149.015 60.7841Z" fill="#F0A479"/>
<path d="M155.654 62.7384C154.024 61.2111 151.669 60.3861 149.015 60.7841V75.0197C149.015 75.174 149.007 75.3263 149.003 75.4802C151.666 75.8833 154.023 75.056 155.654 73.5263V62.7384Z" fill="#E59770"/>
<path d="M110.522 75.0368V60.7708C106.125 60.1837 101.527 63.5579 101.527 68.1325C101.527 72.6083 105.474 76.2642 110.533 75.4985C110.529 75.3446 110.522 75.1911 110.522 75.0368Z" fill="#F0A479"/>
<path d="M110.522 72.8235C109.467 71.5341 108.852 69.8981 108.852 68.1325C108.852 66.4266 109.492 64.8876 110.522 63.6587V60.7708C106.125 60.1837 101.527 63.5583 101.527 68.1325C101.527 72.6083 105.474 76.2642 110.533 75.4985C110.529 75.3446 110.521 75.1911 110.521 75.0372V72.8235H110.522Z" fill="#E59770"/>
<path d="M130.032 93.1013C125.85 93.1013 122.174 91.9533 119.169 90.0326V100.638L129.985 113.989L140.802 100.638V89.7458C137.738 91.8595 134.028 93.1013 130.032 93.1013Z" fill="#F0A479"/>
<path d="M127.217 92.9194C124.188 92.5269 121.48 91.5093 119.169 90.0327V100.638L127.217 110.573V92.9194Z" fill="#E59770"/>
<path d="M169.417 110.811L140.802 99.7288L129.985 113.08L119.169 99.7288L90.5837 110.811C90.5837 110.811 80.0001 115.162 80.0001 127.227C80.0001 138.144 80.0001 165.739 80.0001 174.559C80.0001 176.506 81.5794 178.085 83.5267 178.085C85.0106 178.085 174.966 178.085 176.473 178.085C178.421 178.085 180 176.506 180 174.559C180 165.739 180 138.144 180 127.227C180 115.162 169.417 110.811 169.417 110.811Z" fill="#E4EAF8"/>
<path d="M88.0489 174.558C88.0489 165.739 88.0489 134.119 88.0489 123.202C88.0489 116.048 91.7696 111.607 94.7989 109.176L90.5837 110.811C90.5837 110.811 80.0001 115.161 80.0001 127.227C80.0001 138.144 80.0001 165.739 80.0001 174.559C80.0001 176.506 81.5794 178.085 83.5267 178.085C83.788 178.085 86.7946 178.085 91.5755 178.085C89.6282 178.085 88.0489 176.506 88.0489 174.558Z" fill="#D8DCE5"/>
<path d="M142.505 50.5523C141.921 49.9242 140.969 49.8074 140.25 50.2773C132.549 55.3082 122.363 58.4887 112.355 57.7695C111.34 57.6926 110.464 58.5027 110.464 59.5281V74.9926C110.464 84.9317 118.252 94.0098 130.032 94.0098C140.519 94.0098 149.05 85.4785 149.05 74.9926V58.2797C149.049 57.3554 149.089 57.6293 142.505 50.5523Z" fill="#F0A479"/>
<path d="M118.526 74.9931V57.7341C116.477 57.8982 114.412 57.9173 112.355 57.7697C111.34 57.6927 110.464 58.5029 110.464 59.5283V74.9931C110.464 84.9322 118.252 94.0104 130.032 94.0104C131.318 94.0104 132.573 93.8807 133.788 93.6361C125.094 91.8873 118.526 84.1936 118.526 74.9931Z" fill="#E59770"/>
<path d="M143.046 119.941L151.134 103.73L140.802 99.7288L129.985 113.08L140.531 120.57C141.385 121.176 142.578 120.878 143.046 119.941Z" fill="#D8DCE5"/>
<path d="M116.94 119.941L108.852 103.73L119.184 99.7288L130 113.08L119.455 120.57C118.601 121.176 117.408 120.878 116.94 119.941Z" fill="#D8DCE5"/>
<path d="M140.986 164.99L134.044 123.907H129.999H129.986H125.942L118.999 164.99C118.926 165.519 119.082 166.057 119.413 166.422L128.997 176.982C129.531 177.571 130.454 177.571 130.988 176.982L140.573 166.422C140.904 166.057 141.059 165.519 140.986 164.99Z" fill="#FF5050"/>
<path d="M127.475 166.421C127.144 166.056 126.988 165.518 127.061 164.989L134.004 123.906H129.999H129.986H125.942L118.999 164.989C118.926 165.518 119.082 166.056 119.413 166.421L128.997 176.981C129.531 177.57 130.454 177.57 130.988 176.981L134.024 173.637L127.475 166.421Z" fill="#ED3A3A"/>
<path d="M129.999 113.089V113.08L129.993 113.085L129.986 113.08V113.089L122.316 118.537L125.942 123.994H129.986H129.999H134.044L137.67 118.537L129.999 113.089Z" fill="#ED3A3A"/>
<path d="M134.017 115.943L129.999 113.089V113.08L129.993 113.085L129.986 113.08V113.089L122.316 118.537L125.942 123.994H129.986H129.999H133.99L130.878 119.309C130.592 118.879 130.699 118.299 131.121 118L134.017 115.943Z" fill="#DB2A2A"/>
<path d="M179.756 63.9153C165.459 63.9153 153.87 75.5048 153.87 89.8013V100.268C155.6 98.6646 158.062 97.7927 160.464 98.1138V96.8239C160.464 95.7985 161.339 94.9884 162.355 95.0653C172.363 95.7845 182.548 92.604 190.25 87.5731C190.969 87.1032 191.921 87.22 192.505 87.8481C199.089 94.9255 199.049 94.6513 199.049 95.5755V98.1083C201.682 97.7134 204.018 98.5275 205.641 100.036V89.8013C205.642 75.5044 194.053 63.9153 179.756 63.9153Z" fill="#707487"/>
<path d="M162.01 89.8012C162.01 76.8894 171.464 66.189 183.826 64.2359C182.5 64.0265 181.142 63.9148 179.757 63.9148C165.46 63.9148 153.871 75.5043 153.871 89.8012V100.268C155.601 98.6641 158.062 97.7926 160.464 98.1137V96.8238C160.464 95.9168 161.15 95.1813 162.01 95.0758V89.8012Z" fill="#5B5D6E"/>
<path d="M160.522 111.424V97.158C156.125 96.5709 151.528 99.9451 151.528 104.52C151.528 108.995 155.474 112.651 160.533 111.886C160.529 111.731 160.522 111.578 160.522 111.424Z" fill="#F0A479"/>
<path d="M160.522 109.21C159.467 107.921 158.852 106.285 158.852 104.519C158.852 102.813 159.492 101.274 160.522 100.045V97.1575C156.125 96.5704 151.527 99.9446 151.527 104.519C151.527 108.995 155.474 112.651 160.533 111.885C160.529 111.731 160.521 111.578 160.521 111.424L160.522 109.21Z" fill="#E59770"/>
<path d="M180.032 129.488C175.85 129.488 172.175 128.34 169.169 126.419V137.024L179.985 150.376L190.802 137.024V126.133C187.738 128.246 184.028 129.488 180.032 129.488Z" fill="#F0A479"/>
<path d="M177.217 129.306C174.189 128.913 171.48 127.896 169.169 126.419V137.024L177.217 146.959V129.306Z" fill="#E59770"/>
<path d="M219.417 147.198L190.802 136.115L179.985 149.467L169.169 136.115L140.584 147.198C140.584 147.198 130 151.549 130 163.614C130 174.531 130 202.126 130 210.945C130 212.893 131.58 214.472 133.527 214.472C135.011 214.472 224.966 214.472 226.473 214.472C228.421 214.472 230 212.893 230 210.945C230 202.126 230 174.53 230 163.614C230 151.548 219.417 147.198 219.417 147.198Z" fill="#E4EAF8"/>
<path d="M138.049 210.945C138.049 202.126 138.049 170.506 138.049 159.589C138.049 152.435 141.77 147.994 144.799 145.563L140.584 147.197C140.584 147.197 130 151.548 130 163.613C130 174.531 130 202.126 130 210.946C130 212.893 131.58 214.472 133.527 214.472C133.788 214.472 136.795 214.472 141.576 214.472C139.628 214.472 138.049 212.893 138.049 210.945Z" fill="#D8DCE5"/>
<path d="M192.505 86.9393C191.921 86.3111 190.969 86.1944 190.25 86.6643C182.549 91.6951 172.363 94.8756 162.355 94.1565C161.34 94.0795 160.464 94.8897 160.464 95.9151V111.38C160.464 121.319 168.252 130.397 180.032 130.397C190.519 130.397 199.05 121.866 199.05 111.38V94.6666C199.049 93.7428 199.089 94.0162 192.505 86.9393Z" fill="#F0A479"/>
<path d="M168.526 111.38V94.1213C166.477 94.2854 164.412 94.3045 162.355 94.1569C161.34 94.0799 160.464 94.8901 160.464 95.9155V111.38C160.464 121.319 168.252 130.398 180.032 130.398C181.318 130.398 182.573 130.268 183.788 130.023C175.094 128.274 168.526 120.58 168.526 111.38Z" fill="#E59770"/>
<path d="M193.046 156.328L201.134 140.117L190.802 136.115L179.985 149.467L190.531 156.957C191.385 157.563 192.578 157.264 193.046 156.328Z" fill="#D8DCE5"/>
<path d="M166.94 156.328L158.852 140.117L169.184 136.115L180 149.467L169.455 156.957C168.601 157.563 167.408 157.264 166.94 156.328Z" fill="#D8DCE5"/>
<path d="M190.986 201.377L184.044 160.294H179.999H179.987H175.942L168.999 201.377C168.926 201.906 169.082 202.443 169.413 202.808L178.997 213.369C179.531 213.957 180.455 213.957 180.989 213.369L190.573 202.808C190.904 202.443 191.059 201.906 190.986 201.377Z" fill="#FF5050"/>
<path d="M177.475 202.808C177.144 202.443 176.989 201.906 177.062 201.377L184.004 160.294H179.999H179.987H175.942L168.999 201.377C168.926 201.906 169.082 202.443 169.413 202.808L178.997 213.369C179.531 213.957 180.455 213.957 180.989 213.369L184.024 210.024L177.475 202.808Z" fill="#ED3A3A"/>
<path d="M179.999 149.476V149.467L179.993 149.472L179.986 149.467V149.476L172.316 154.924L175.942 160.381H179.986H179.999H184.044L187.669 154.924L179.999 149.476Z" fill="#ED3A3A"/>
<path d="M184.017 152.33L179.999 149.476V149.467L179.992 149.472L179.986 149.467V149.476L172.315 154.924L175.941 160.381H179.986H179.999H183.99L180.877 155.696C180.591 155.266 180.699 154.686 181.12 154.387L184.017 152.33Z" fill="#DB2A2A"/>
<path d="M150.592 214.472V169.076C150.592 167.41 149.241 166.058 147.574 166.058C145.906 166.058 144.555 167.409 144.555 169.076V214.472C146.397 214.472 148.423 214.472 150.592 214.472Z" fill="#D8DCE5"/>
<path d="M79.756 63.9153C65.4591 63.9153 53.87 75.5048 53.87 89.8013V100.268C55.6 98.6646 58.0614 97.7927 60.4637 98.1138V96.8239C60.4637 95.7985 61.3391 94.9884 62.3544 95.0653C72.3626 95.7845 82.5482 92.604 90.2493 87.5731C90.9685 87.1032 91.9204 87.22 92.5044 87.8481C99.0884 94.9255 99.0486 94.6513 99.0486 95.5755V98.1083C101.682 97.7134 104.018 98.5275 105.641 100.036V89.8013C105.642 75.5044 94.0529 63.9153 79.756 63.9153Z" fill="#707487"/>
<path d="M62.0102 89.8012C62.0102 76.8894 71.4634 66.189 83.8263 64.2359C82.5001 64.0265 81.1415 63.9148 79.7563 63.9148C65.4594 63.9148 53.8704 75.5043 53.8704 89.8012V100.268C55.6004 98.6641 58.0618 97.7926 60.4641 98.1137V96.8238C60.4641 95.9168 61.1497 95.1813 62.0102 95.0758V89.8012Z" fill="#5B5D6E"/>
<path d="M99.0146 97.1708V111.406C99.0146 111.561 99.0064 111.713 99.0029 111.867C104.04 112.63 107.986 108.99 107.986 104.52C107.986 100.04 104.037 96.4181 99.0146 97.1708Z" fill="#F0A479"/>
<path d="M105.654 99.1251C104.024 97.5978 101.669 96.7728 99.0146 97.1708V111.406C99.0146 111.561 99.0064 111.713 99.0029 111.867C101.666 112.27 104.023 111.443 105.654 109.913V99.1251Z" fill="#E59770"/>
<path d="M60.5215 111.424V97.158C56.1246 96.5709 51.527 99.9451 51.527 104.52C51.527 108.995 55.4739 112.651 60.5325 111.886C60.5289 111.731 60.5215 111.578 60.5215 111.424Z" fill="#F0A479"/>
<path d="M60.5215 109.21C59.4672 107.921 58.8516 106.285 58.8516 104.519C58.8516 102.813 59.4914 101.274 60.5215 100.045V97.1575C56.1246 96.5704 51.527 99.9446 51.527 104.519C51.527 108.995 55.4739 112.651 60.5325 111.885C60.5289 111.731 60.5211 111.578 60.5211 111.424L60.5215 109.21Z" fill="#E59770"/>
<path d="M80.0318 129.488C75.8497 129.488 72.1743 128.34 69.1685 126.419V137.024L79.9853 150.376L90.8017 137.024V126.133C87.7376 128.246 84.0275 129.488 80.0318 129.488Z" fill="#F0A479"/>
<path d="M77.2173 129.306C74.1884 128.913 71.4798 127.896 69.1685 126.419V137.024L77.2173 146.959C77.2173 146.959 77.2173 129.306 77.2173 129.306Z" fill="#E59770"/>
<path d="M119.417 147.198L90.8017 136.115L79.9853 149.467L69.1684 136.115L40.5836 147.198C40.5836 147.198 30 151.549 30 163.614C30 174.531 30 202.126 30 210.945C30 212.893 31.5793 214.472 33.5266 214.472C35.0106 214.472 124.966 214.472 126.473 214.472C128.421 214.472 130 212.893 130 210.945C130 202.126 130 174.53 130 163.614C130 151.548 119.417 147.198 119.417 147.198Z" fill="#E4EAF8"/>
<path d="M38.0488 210.945C38.0488 202.126 38.0488 170.506 38.0488 159.589C38.0488 152.435 41.7696 147.994 44.7989 145.563L40.5836 147.197C40.5836 147.197 30 151.548 30 163.613C30 174.531 30 202.126 30 210.946C30 212.893 31.5793 214.472 33.5266 214.472C33.7879 214.472 36.7945 214.472 41.5754 214.472C39.6281 214.472 38.0488 212.893 38.0488 210.945Z" fill="#D8DCE5"/>
<path d="M92.5048 86.9393C91.9204 86.3111 90.9685 86.1944 90.2497 86.6643C82.5485 91.6951 72.363 94.8756 62.3547 94.1565C61.3395 94.0795 60.4641 94.8897 60.4641 95.9151V111.38C60.4641 121.319 68.252 130.397 80.0321 130.397C90.5185 130.397 99.0497 121.866 99.0497 111.38V94.6666C99.0493 93.7428 99.0888 94.0162 92.5048 86.9393Z" fill="#F0A479"/>
<path d="M68.5258 111.38V94.1213C66.4766 94.2854 64.4122 94.3045 62.3547 94.1569C61.3395 94.0799 60.4641 94.8901 60.4641 95.9155V111.38C60.4641 121.319 68.252 130.398 80.0321 130.398C81.3177 130.398 82.5731 130.268 83.788 130.023C75.0942 128.274 68.5258 120.58 68.5258 111.38Z" fill="#E59770"/>
<path d="M93.0454 156.328L101.134 140.117L90.8017 136.115L79.9853 149.467L90.531 156.957C91.3845 157.563 92.5779 157.264 93.0454 156.328Z" fill="#D8DCE5"/>
<path d="M66.9399 156.328L58.8516 140.117L69.1837 136.115L80.0001 149.467L69.4544 156.957C68.6009 157.563 67.4075 157.264 66.9399 156.328Z" fill="#D8DCE5"/>
<path d="M90.9861 201.377L84.0439 160.294H79.9993H79.9864H75.9415L68.9993 201.377C68.9263 201.906 69.0817 202.443 69.4126 202.808L78.997 213.369C79.531 213.957 80.4544 213.957 80.9884 213.369L90.5728 202.808C90.9036 202.443 91.0591 201.906 90.9861 201.377Z" fill="#FF5050"/>
<path d="M77.4747 202.808C77.1439 202.443 76.9884 201.906 77.0614 201.377L84.0036 160.294H79.9993H79.9864H75.9415L68.9993 201.377C68.9263 201.906 69.0817 202.443 69.4126 202.808L78.997 213.369C79.531 213.957 80.4544 213.957 80.9884 213.369L84.0236 210.024L77.4747 202.808Z" fill="#ED3A3A"/>
<path d="M79.9993 149.476V149.467L79.9927 149.472L79.9861 149.467V149.476L72.3157 154.924L75.9415 160.381H79.9861H79.9993H84.0439L87.6693 154.924L79.9993 149.476Z" fill="#ED3A3A"/>
<path d="M84.0169 152.33L79.9989 149.476V149.467L79.9923 149.472L79.9856 149.467V149.476L72.3153 154.924L75.9411 160.381H79.9856H79.9985H83.9896L80.877 155.696C80.5911 155.266 80.6985 154.686 81.12 154.387L84.0169 152.33Z" fill="#DB2A2A"/>
<path d="M50.5918 214.472V169.076C50.5918 167.41 49.2407 166.058 47.5735 166.058C45.9063 166.058 44.5551 167.409 44.5551 169.076V214.472C46.3973 214.472 48.4227 214.472 50.5918 214.472Z" fill="#D8DCE5"/>
<path d="M114.956 214.472V169.076C114.956 167.41 113.605 166.058 111.938 166.058C110.271 166.058 108.92 167.409 108.92 169.076V214.472C111.083 214.472 113.106 214.472 114.956 214.472Z" fill="#D8DCE5"/>
</g>
</g>
<defs>
<clipPath id="clip0">
<rect width="185" height="185" fill="white"/>
</clipPath>
<clipPath id="clip1">
<rect width="200" height="200" fill="white" transform="translate(30 21)"/>
</clipPath>
</defs>
</svg>
