<svg width="185" height="185" viewBox="0 0 185 185" fill="none" xmlns="http://www.w3.org/2000/svg">
<g clip-path="url(#clip0)">
<g clip-path="url(#clip1)">
<path d="M151.263 187.959C150.115 187.959 149.066 187.192 148.758 186.03C148.39 184.646 149.214 183.225 150.599 182.858C176.668 175.938 194.875 152.246 194.875 125.242C194.875 114.576 192.023 104.11 186.627 94.9755C185.898 93.7424 186.308 92.1521 187.541 91.4235C188.775 90.6953 190.365 91.1043 191.093 92.3374C196.96 102.27 200.062 113.649 200.062 125.242C200.062 154.595 180.269 180.349 151.93 187.872C151.707 187.931 151.483 187.959 151.263 187.959Z" fill="#FFA035"/>
<path d="M189.742 75.9208C185.084 67.9706 174.816 65.6302 174.381 65.5345C173.058 65.2433 171.734 66.0189 171.342 67.315C171.212 67.741 168.232 77.8424 172.889 85.7926C177.546 93.7428 187.815 96.0832 188.249 96.179C188.437 96.2201 188.624 96.2402 188.809 96.2402C189.929 96.2402 190.952 95.5109 191.289 94.3985C191.418 93.9725 194.399 83.871 189.742 75.9208Z" fill="#FFDF65"/>
<path d="M174.381 65.5345C173.72 65.3889 173.058 65.5099 172.513 65.8294L190.114 95.8775C190.66 95.558 191.093 95.0462 191.289 94.3982C191.418 93.9721 194.398 83.8707 189.742 75.9205C185.084 67.9706 174.816 65.6303 174.381 65.5345Z" fill="#FFC41F"/>
<path d="M200.885 186.311C200.725 185.896 196.883 176.089 188.329 172.667C179.774 169.245 170.229 173.695 169.826 173.886C168.603 174.467 168.033 175.892 168.518 177.157C168.677 177.572 172.52 187.378 181.074 190.801C183.436 191.746 185.873 192.09 188.173 192.09C194.202 192.09 199.285 189.72 199.576 189.582C200.799 189 201.369 187.576 200.885 186.311Z" fill="#FFDF65"/>
<path d="M188.173 192.09C194.202 192.09 199.285 189.72 199.576 189.582C200.188 189.291 200.636 188.79 200.871 188.203L168.532 175.265C168.297 175.852 168.276 176.525 168.518 177.157C168.678 177.573 172.52 187.379 181.075 190.801C183.436 191.746 185.873 192.09 188.173 192.09Z" fill="#FFC41F"/>
<path d="M148.267 139.057H148.212V75.9585C148.212 71.478 145.538 67.4736 141.398 65.7567C137.259 64.0413 132.536 64.9773 129.366 68.1417L112.883 84.5944C108.573 88.8964 108.566 95.9026 112.868 100.213C116.451 103.802 121.91 104.406 126.124 102.023V139.057H124.395C118.305 139.057 113.351 144.011 113.351 150.101C113.351 156.19 118.305 161.145 124.395 161.145H148.268C154.357 161.145 159.312 156.191 159.312 150.101C159.311 144.012 154.357 139.057 148.267 139.057Z" fill="#FFDF65"/>
<path d="M148.267 139.057H148.212V75.9585C148.212 71.478 145.538 67.4737 141.398 65.7568C138.49 64.5513 135.294 64.6603 132.55 65.9269C136.475 67.7251 138.993 71.6146 138.993 75.9585V139.057H139.049C145.138 139.057 150.093 144.012 150.093 150.102C150.093 156.191 145.139 161.146 139.049 161.146H148.268C154.357 161.146 159.312 156.191 159.312 150.102C159.311 144.012 154.357 139.057 148.267 139.057Z" fill="#FFCD2C"/>
<path d="M117.737 187.959C117.517 187.959 117.293 187.931 117.07 187.872C88.7308 180.349 68.9381 154.595 68.9381 125.242C68.9381 113.649 72.0396 102.271 77.907 92.3375C78.6356 91.1044 80.226 90.6946 81.4591 91.4236C82.6922 92.1522 83.1013 93.7425 82.373 94.9756C76.9772 104.11 74.1251 114.576 74.1251 125.242C74.1251 152.246 92.332 175.938 118.401 182.858C119.785 183.226 120.61 184.646 120.242 186.03C119.934 187.192 118.884 187.959 117.737 187.959Z" fill="#FFA035"/>
<path d="M97.6583 67.3153C97.2651 66.0189 95.9417 65.2433 94.6184 65.5348C94.1837 65.6306 83.9153 67.971 79.2581 75.9212C74.6012 83.8714 77.5813 93.9728 77.7106 94.3988C78.0481 95.5116 79.0713 96.2406 80.191 96.2406C80.3757 96.2406 80.5631 96.2205 80.7505 96.1794C81.1852 96.0836 91.4536 93.7432 96.1108 85.793C100.768 77.8428 97.7876 67.7414 97.6583 67.3153Z" fill="#FFDF65"/>
<path d="M74.4494 118.505C74.4217 118.061 73.6956 107.554 66.56 101.725C59.4245 95.8961 48.9842 97.28 48.543 97.3422C47.202 97.53 46.231 98.7185 46.3143 100.07C46.342 100.515 47.0681 111.021 54.2037 116.85C58.9722 120.746 65.2163 121.419 68.9657 121.419C70.8272 121.419 72.0738 121.253 72.2204 121.233C73.5621 121.045 74.5327 119.857 74.4494 118.505Z" fill="#FFDF65"/>
<path d="M72.2208 121.233C72.8913 121.139 73.4695 120.795 73.8692 120.306L46.8946 98.27C46.4949 98.7597 46.2729 99.3945 46.3147 100.07C46.3424 100.515 47.0686 111.021 54.2041 116.85C58.9726 120.746 65.2167 121.419 68.9661 121.419C70.8276 121.42 72.0745 121.254 72.2208 121.233Z" fill="#FFC41F"/>
<path d="M79.8954 150.889C79.6609 150.511 74.0535 141.596 65.0102 139.833C55.9662 138.069 47.4216 144.226 47.0619 144.488C45.9689 145.288 45.6753 146.794 46.388 147.946C46.6221 148.325 52.2295 157.24 61.2732 159.003C62.4032 159.223 63.5247 159.32 64.6239 159.32C72.3238 159.319 78.9067 154.577 79.2214 154.347C80.3145 153.547 80.6081 152.041 79.8954 150.889Z" fill="#FFDF65"/>
<path d="M64.6239 159.32C72.3238 159.319 78.9067 154.577 79.2214 154.347C79.7677 153.947 80.1146 153.371 80.2356 152.75L46.048 146.085C45.927 146.706 46.0318 147.37 46.388 147.946C46.6221 148.325 52.2295 157.24 61.2731 159.003C62.4032 159.223 63.5246 159.32 64.6239 159.32Z" fill="#FFC41F"/>
<path d="M99.1736 173.886C98.7714 173.695 89.2257 169.245 80.6713 172.667C72.1167 176.089 68.2745 185.895 68.1151 186.311C67.6303 187.576 68.2002 189.001 69.4236 189.582C69.7148 189.72 74.7969 192.09 80.827 192.09C83.1265 192.09 85.5644 191.745 87.9258 190.801C96.4805 187.378 100.323 177.573 100.482 177.157C100.967 175.892 100.397 174.467 99.1736 173.886Z" fill="#FFDF65"/>
<path d="M96.4127 65.7903L78.8463 95.8535C79.2463 96.0977 79.7076 96.2401 80.1911 96.2401C80.3757 96.2401 80.5631 96.2201 80.7506 96.1789C81.1852 96.0831 91.4537 93.7428 96.1109 85.7926C100.768 77.8423 97.7876 67.7409 97.6583 67.3149C97.4532 66.6382 96.993 66.1057 96.4127 65.7903Z" fill="#FFC41F"/>
<path d="M100.482 177.157C100.724 176.524 100.703 175.852 100.469 175.265L68.1293 188.203C68.3641 188.79 68.8122 189.291 69.4239 189.582C69.7151 189.72 74.7973 192.09 80.8273 192.09C83.1268 192.09 85.5647 191.746 87.9261 190.801C96.4805 187.378 100.323 177.573 100.482 177.157Z" fill="#FFC41F"/>
</g>
</g>
<defs>
<clipPath id="clip0">
<rect width="185" height="185" fill="white"/>
</clipPath>
<clipPath id="clip1">
<rect width="177" height="177" fill="white" transform="translate(46 40)"/>
</clipPath>
</defs>
</svg>
