<svg width="185" height="185" viewBox="0 0 185 185" fill="none" xmlns="http://www.w3.org/2000/svg">
<g clip-path="url(#clip0)">
<g clip-path="url(#clip1)">
<path d="M129 242C180.27 242 221.832 200.438 221.832 149.168C221.832 97.8983 180.27 56.3359 129 56.3359C77.7303 56.3359 36.168 97.8983 36.168 149.168C36.168 200.438 77.7303 242 129 242Z" fill="#94C2ED"/>
<path d="M202.938 115.824C203.878 113.63 204.399 111.217 204.399 108.683C204.399 103.166 189.241 54.6271 187.513 48.9757C187.336 48.3963 186.801 48 186.194 48C185.587 48 185.053 48.3963 184.875 48.9757C183.148 54.6271 167.989 100.96 167.989 108.683C167.989 111.217 168.511 113.63 169.45 115.824H202.938Z" fill="#0F9390"/>
<path d="M188.663 52.7037C188.12 50.9471 187.72 49.6517 187.513 48.9757C187.336 48.3963 186.801 48 186.194 48C185.587 48 185.053 48.3963 184.875 48.9757C183.148 54.6271 167.989 100.96 167.989 108.683C167.989 111.217 168.511 113.63 169.45 115.824H174.414C173.475 113.63 172.953 111.217 172.953 108.683C172.953 101.899 184.647 65.3293 188.663 52.7037Z" fill="#057C76"/>
<path d="M189.254 115.824V99.2571C189.254 97.5668 187.884 96.197 186.195 96.197C184.504 96.197 183.135 97.5668 183.135 99.2571V115.824H189.254Z" fill="#A53535"/>
<path d="M164.842 115.824C160.269 99.8817 154.117 80.1524 153.053 76.6737C152.876 76.0943 152.341 75.698 151.734 75.698C151.127 75.698 150.593 76.0943 150.415 76.6737C149.33 80.2237 142.946 99.8233 138.348 115.824H164.842Z" fill="#D9ED69"/>
<path d="M153.053 76.6737C152.876 76.0943 152.341 75.698 151.734 75.698C151.127 75.698 150.593 76.0943 150.415 76.6737C149.33 80.2237 142.946 99.8233 138.348 115.824H144.565C147.96 104.008 152.329 90.2298 154.82 82.4012C153.961 79.6163 153.332 77.5857 153.053 76.6737Z" fill="#37C47A"/>
<path d="M125.931 123.136C125.513 123.136 125.173 122.796 125.173 122.379V116.316C125.173 115.898 125.513 115.558 125.931 115.558H129.697V62.7773H58.9023V169.629H206.259V123.136H125.931Z" fill="#EEF6FF"/>
<path d="M66.8594 62.7773H58.9023V169.629H66.8594V62.7773Z" fill="#D9EAFC"/>
<path d="M211.185 122.378C211.185 123.004 210.673 123.515 210.048 123.515H125.931C125.306 123.515 124.794 123.004 124.794 122.378V116.316C124.794 115.691 125.306 115.179 125.931 115.179H210.048C210.673 115.179 211.185 115.691 211.185 116.316V122.378Z" fill="#2E4C89"/>
<path d="M113.783 169.629V129.252C113.783 128.627 113.272 128.115 112.646 128.115H81.5761C80.9509 128.115 80.4394 128.627 80.4394 129.252V169.629H113.783Z" fill="#C3DDF4"/>
<path d="M89.2148 128.115H81.5761C80.9509 128.115 80.4394 128.627 80.4394 129.252V169.629H88.0781V129.252C88.0781 128.626 88.5897 128.115 89.2148 128.115Z" fill="#94C2ED"/>
<path d="M155.864 131.093H145.255C144.63 131.093 144.118 131.605 144.118 132.23V157.383C144.436 157.346 144.756 157.327 145.077 157.327C147.383 157.327 149.472 158.267 150.983 159.784H155.864C156.49 159.784 157.001 159.273 157.001 158.648V132.23C157.001 131.605 156.49 131.093 155.864 131.093Z" fill="#C3DDF4"/>
<path d="M176.704 158.648C176.704 159.273 176.193 159.784 175.568 159.784H164.958C164.333 159.784 163.821 159.273 163.821 158.648V132.23C163.821 131.605 164.333 131.093 164.958 131.093H175.568C176.193 131.093 176.704 131.605 176.704 132.23V158.648Z" fill="#C3DDF4"/>
<path d="M196.407 158.648C196.407 159.273 195.896 159.784 195.271 159.784H184.661C184.036 159.784 183.525 159.273 183.525 158.648V132.23C183.525 131.605 184.036 131.093 184.661 131.093H195.271C195.896 131.093 196.407 131.605 196.407 132.23V158.648Z" fill="#C3DDF4"/>
<path d="M167.648 158.648V132.23C167.648 131.605 168.16 131.093 168.785 131.093H164.958C164.333 131.093 163.821 131.605 163.821 132.23V158.648C163.821 159.273 164.333 159.784 164.958 159.784H168.785C168.16 159.784 167.648 159.273 167.648 158.648Z" fill="#94C2ED"/>
<path d="M187.352 158.648V132.23C187.352 131.605 187.863 131.093 188.488 131.093H184.661C184.036 131.093 183.525 131.605 183.525 132.23V158.648C183.525 159.273 184.036 159.784 184.661 159.784H188.488C187.863 159.784 187.352 159.273 187.352 158.648Z" fill="#94C2ED"/>
<path d="M145.077 156.948C143.572 156.948 142.155 157.33 140.919 158.002C141.829 159.707 142.346 161.653 142.346 163.721C142.346 166.174 141.618 168.13 140.37 169.629H152.595C153.358 168.594 153.797 167.28 153.797 165.668C153.797 160.852 149.894 156.948 145.077 156.948Z" fill="#60D882"/>
<path d="M140.872 169.629C142.12 168.13 142.847 166.174 142.847 163.721C142.847 157.002 137.4 151.554 130.68 151.554C123.961 151.554 118.513 157.002 118.513 163.721C118.513 166.174 119.241 168.13 120.489 169.629H140.872Z" fill="#37C47A"/>
<path d="M132.661 151.717C132.016 151.612 131.355 151.554 130.68 151.554C123.96 151.554 118.513 157.002 118.513 163.721C118.513 166.174 119.241 168.13 120.489 169.629H124.45C123.202 168.13 122.474 166.174 122.474 163.721C122.474 157.676 126.883 152.664 132.661 151.717Z" fill="#02AF8E"/>
<path d="M136.199 62.1323C136.199 62.7575 135.688 63.269 135.062 63.269H53.9766C53.3514 63.269 52.8398 62.7575 52.8398 62.1323V53.7964C52.8398 53.1712 53.3514 52.6597 53.9766 52.6597H135.062C135.688 52.6597 136.199 53.1712 136.199 53.7964V62.1323Z" fill="#2E4C89"/>
<path d="M132.751 122.378V116.316C132.751 115.691 133.263 115.179 133.888 115.179H125.931C125.306 115.179 124.794 115.691 124.794 116.316V122.378C124.794 123.004 125.306 123.515 125.931 123.515H133.888C133.263 123.515 132.751 123.004 132.751 122.378Z" fill="#293D7C"/>
<path d="M60.7969 62.1323V53.7964C60.7969 53.1712 61.3084 52.6597 61.9336 52.6597H53.9766C53.3514 52.6597 52.8398 53.1712 52.8398 53.7964V62.1323C52.8398 62.7575 53.3514 63.269 53.9766 63.269H61.9336C61.3084 63.269 60.7969 62.7575 60.7969 62.1323Z" fill="#293D7C"/>
<path d="M114.745 89.9752C114.018 89.9752 113.29 89.6978 112.736 89.1431C104.12 80.5275 90.1022 80.5275 81.4863 89.1431C80.3769 90.2525 78.5771 90.2525 77.468 89.1431C76.3578 88.0329 76.3578 86.2339 77.468 85.1241C88.2986 74.2923 105.923 74.293 116.755 85.1241C117.865 86.2342 117.865 88.0333 116.755 89.1431C116.199 89.6978 115.473 89.9752 114.745 89.9752Z" fill="#C3DDF4"/>
<path d="M85.2587 95.7568C84.532 95.7568 83.8044 95.4795 83.2493 94.9248C82.1392 93.8146 82.1392 92.0155 83.2493 90.9057C90.8926 83.262 103.329 83.2624 110.973 90.9057C112.083 92.0159 112.083 93.815 110.973 94.9244C109.863 96.0346 108.064 96.0342 106.954 94.9248C101.527 89.4973 92.6962 89.4973 87.2688 94.9248C86.7133 95.4795 85.9858 95.7568 85.2587 95.7568Z" fill="#69CDFF"/>
<path d="M103.182 101.539C102.454 101.539 101.727 101.261 101.172 100.707C98.933 98.4677 95.2891 98.4673 93.0494 100.707C91.9399 101.816 90.1401 101.816 89.0311 100.707C87.9209 99.5964 87.9209 97.7974 89.0311 96.6876C93.4863 92.2324 100.736 92.2324 105.191 96.6876C106.301 97.7978 106.301 99.5968 105.191 100.707C104.637 101.261 103.909 101.539 103.182 101.539Z" fill="#1E99D6"/>
<path d="M109.676 155.46C109.676 156.085 109.164 156.597 108.539 156.597H105.129C104.504 156.597 103.992 156.085 103.992 155.46V144.617C103.992 143.992 104.504 143.481 105.129 143.481H108.539C109.164 143.481 109.676 143.992 109.676 144.617V155.46Z" fill="#EEF6FF"/>
<path d="M129 242C173.41 242 210.529 210.813 219.669 169.148H38.3308C47.4711 210.813 84.5907 242 129 242Z" fill="#02AF8E"/>
<path d="M63.7588 178.344H58.4541C56.8843 178.344 55.6123 179.616 55.6123 181.186C55.6123 182.755 56.8843 184.027 58.4541 184.027H63.7588C65.3286 184.027 66.6006 182.755 66.6006 181.186C66.6006 179.616 65.3286 178.344 63.7588 178.344Z" fill="#0F9390"/>
<path d="M171.632 174.971C173.927 174.971 175.804 176.849 175.804 179.142V220.019C175.804 222.315 173.927 224.191 171.632 224.191H88.8814C86.5871 224.191 84.7104 222.315 84.7104 220.019V179.141C84.7104 176.848 86.5871 174.971 88.8814 174.971H171.632V174.971Z" fill="#2E4C89"/>
<path d="M162.041 174.971H90.8896V224.191H162.041V174.971Z" fill="#C3DDF4"/>
<path d="M150.571 217.162C152.655 217.162 154.36 215.456 154.36 213.373V185.79C154.36 183.706 152.655 182.001 150.571 182.001H143.127C141.043 182.001 139.338 183.706 139.338 185.79V213.373C139.338 215.456 141.043 217.162 143.127 217.162H150.571Z" fill="#94C2ED"/>
<path d="M143.153 213.373V185.79C143.153 183.706 144.858 182.001 146.942 182.001H143.127C141.043 182.001 139.338 183.706 139.338 185.79V213.373C139.338 215.456 141.043 217.162 143.127 217.162H146.942C144.858 217.162 143.153 215.456 143.153 213.373Z" fill="#6A8AC4"/>
<path d="M147.945 132.23C147.945 131.605 148.457 131.093 149.082 131.093H145.255C144.63 131.093 144.118 131.605 144.118 132.23V157.383C144.436 157.346 144.756 157.327 145.077 157.327C146.084 157.327 147.05 157.507 147.945 157.836V132.23H147.945Z" fill="#94C2ED"/>
</g>
</g>
<defs>
<clipPath id="clip0">
<rect width="185" height="185" fill="white"/>
</clipPath>
<clipPath id="clip1">
<rect width="194" height="194" fill="white" transform="translate(32 48)"/>
</clipPath>
</defs>
</svg>
