<svg width="185" height="185" viewBox="0 0 185 185" fill="none" xmlns="http://www.w3.org/2000/svg">
<g clip-path="url(#clip0)">
<g clip-path="url(#clip1)">
<path d="M78.9522 69.3037L84.8114 89.8114H78.9522C78.9522 97.9001 72.3928 104.46 64.3041 104.46C56.2153 104.46 49.6559 97.9001 49.6559 89.8114V69.3037C49.6559 64.4493 53.5905 60.5148 58.4449 60.5148H70.1636C75.0177 60.5148 78.9522 64.4493 78.9522 69.3037Z" fill="#F2BB80"/>
<path d="M146.334 19.4998H93.6003C88.7459 19.4998 84.8113 23.4343 84.8113 28.2887V45.8666C84.8113 50.721 88.7459 54.6555 93.6003 54.6555V63.4445L108.248 54.6555H146.334C151.188 54.6555 155.123 50.721 155.123 45.8666V28.2887C155.123 23.4343 151.189 19.4998 146.334 19.4998Z" fill="#4398D1"/>
<path d="M193.209 142.545H158.053V116.178C158.053 109.706 163.3 104.459 169.771 104.459H181.49C187.962 104.459 193.209 109.706 193.209 116.178V142.545H193.209Z" fill="#87CED9"/>
<path d="M46.7258 142.545H81.8816V116.178C81.8816 109.706 76.6347 104.459 70.1629 104.459H58.4445C51.9728 104.459 46.7258 109.706 46.7258 116.178C46.7258 116.178 46.7258 142.545 46.7258 142.545Z" fill="#4398D1"/>
<path d="M67.2451 83.9522C68.8632 83.9522 70.1749 82.6405 70.1749 81.0224C70.1749 79.4044 68.8632 78.0927 67.2451 78.0927C65.6271 78.0927 64.3154 79.4044 64.3154 81.0224C64.3154 82.6405 65.6271 83.9522 67.2451 83.9522Z" fill="#6B402A"/>
<path d="M46.7258 142.545C46.7258 150.634 53.2852 157.193 61.374 157.193H81.8816V192.349H102.389L96.5301 183.56V154.263C96.5301 147.792 91.2831 142.545 84.8114 142.545H46.7258V142.545Z" fill="#126099"/>
<path d="M71.1006 186.637L55.5148 181.451V168.912H49.6556V181.451L34.0697 186.637C32.4936 187.155 31.6322 188.854 32.1509 190.431C32.6696 192.007 34.3688 192.868 35.9448 192.349L52.5853 186.637L69.2258 192.349C69.5362 192.39 69.8528 192.39 70.1632 192.349C71.4231 192.352 72.542 191.549 72.9466 190.357C73.468 188.825 72.6478 187.161 71.1154 186.642C71.1123 186.639 71.1065 186.637 71.1006 186.637Z" fill="#D1D1D1"/>
<path d="M67.2452 104.46H61.386V133.756H67.2452V104.46Z" fill="#126099"/>
<path d="M70.1632 72.2335H58.4445L49.6556 83.9522V69.3041C49.6556 64.4497 53.5901 60.5151 58.4445 60.5151H81.8816C81.8816 66.9865 76.6377 72.2335 70.1632 72.2335Z" fill="#6B402A"/>
<path d="M160.982 69.3037L155.123 89.8114H160.982C160.982 97.9001 167.542 104.46 175.631 104.46C183.719 104.46 190.279 97.9001 190.279 89.8114V69.3037H160.982Z" fill="#F2BB80"/>
<path d="M190.279 69.3037C190.279 64.4493 186.345 60.5148 181.49 60.5148H159.518C157.092 60.5148 155.123 62.4834 155.123 64.9092C155.123 67.3351 157.092 69.3037 159.518 69.3037H178.56L190.279 83.9519V69.3037Z" fill="#6B402A"/>
<path d="M146.346 28.2887H93.6121V34.1479H146.346V28.2887Z" fill="#3582BD"/>
<path d="M105.331 40.0074H93.6121V45.8666H105.331V40.0074Z" fill="#3582BD"/>
<path d="M146.346 40.0074H111.19V45.8666H146.346V40.0074Z" fill="#3582BD"/>
<path d="M137.545 54.6555C142.399 54.6555 146.334 58.5901 146.334 63.4445V69.3036C146.334 74.1581 142.399 78.0926 137.545 78.0926H131.686V86.8815L117.038 78.0926H108.249C103.394 78.0926 99.4598 74.1581 99.4598 69.3036V63.4445C99.4598 58.5901 103.394 54.6555 108.249 54.6555C108.249 54.6555 137.545 54.6555 137.545 54.6555Z" fill="#87CED9"/>
<path d="M158.065 127.897H81.8936V136.686H158.065V127.897Z" fill="#6B402A"/>
<path d="M205.865 186.637L190.279 181.451V168.912H184.42V181.451L168.834 186.637C167.296 187.155 166.469 188.819 166.988 190.357C167.506 191.895 169.171 192.722 170.709 192.203L187.349 186.637L203.99 192.349C204.3 192.39 204.617 192.39 204.927 192.349C206.24 192.417 207.438 191.602 207.857 190.357C208.355 188.816 207.511 187.167 205.97 186.669C205.938 186.657 205.903 186.645 205.865 186.637Z" fill="#D1D1D1"/>
<path d="M178.572 104.46H172.713V133.756H178.572V104.46Z" fill="#4398D1"/>
<path d="M46.7258 157.194H64.3037C67.5411 157.194 70.1629 159.816 70.1629 163.053C70.1629 166.29 67.5408 168.912 64.3037 168.912H43.7964C38.942 168.912 35.0074 164.977 35.0074 160.123V119.108C35.0074 115.871 37.6296 113.249 40.8666 113.249C44.1041 113.249 46.7258 115.871 46.7258 119.108V157.194Z" fill="#6B402A"/>
<path d="M193.209 157.194H175.631C172.393 157.194 169.771 159.816 169.771 163.053C169.771 166.29 172.394 168.912 175.631 168.912H196.138C200.993 168.912 204.927 164.977 204.927 160.123V119.108C204.927 115.871 202.305 113.249 199.068 113.249C195.831 113.249 193.209 115.871 193.209 119.108V157.194H193.209Z" fill="#6B402A"/>
<path d="M108.249 127.897H81.882V122.038H106.227L114.284 100.505L119.792 102.555L111.003 125.993C110.575 127.141 109.476 127.9 108.249 127.897Z" fill="#D1D1D1"/>
<path d="M193.208 142.545C193.208 150.634 186.649 157.193 178.56 157.193H158.053V192.349H137.545L143.404 183.56V154.263C143.404 147.792 148.651 142.545 155.123 142.545H193.208V142.545Z" fill="#126099"/>
<path d="M122.897 186.49V136.686H117.038V186.49H102.389V192.349H137.545V186.49H122.897Z" fill="#D1D1D1"/>
<path d="M125.838 63.4445H108.26V69.3036H125.838V63.4445Z" fill="#539FBD"/>
<path d="M137.557 63.4445H131.698V69.3036H137.557V63.4445Z" fill="#539FBD"/>
<path d="M169.783 83.9522C171.401 83.9522 172.713 82.6405 172.713 81.0224C172.713 79.4044 171.401 78.0927 169.783 78.0927C168.165 78.0927 166.853 79.4044 166.853 81.0224C166.853 82.6405 168.165 83.9522 169.783 83.9522Z" fill="#6B402A"/>
</g>
</g>
<defs>
<clipPath id="clip0">
<rect width="185" height="185" fill="white"/>
</clipPath>
<clipPath id="clip1">
<rect width="176" height="176" fill="white" transform="translate(32 18)"/>
</clipPath>
</defs>
</svg>
