<svg width="185" height="185" viewBox="0 0 185 185" fill="none" xmlns="http://www.w3.org/2000/svg">
<g clip-path="url(#clip0)">
<g clip-path="url(#clip1)">
<path d="M101.155 153.323L157.542 122.076C160.559 120.405 161.649 116.604 159.977 113.587L144.451 85.5698C142.778 82.5537 138.978 81.4634 135.962 83.1346L79.5752 114.382C76.5594 116.053 75.4692 119.854 77.14 122.871L92.6661 150.888C94.3385 153.904 98.1392 154.994 101.155 153.323Z" fill="#FCE68D"/>
<path d="M101.155 153.323C98.1389 154.996 94.3382 153.905 92.6662 150.888L77.14 122.871C75.4692 119.854 76.5595 116.053 79.5752 114.382L89.6766 108.784C99.2837 131.953 106.918 139.021 118.2 143.878L101.155 153.323Z" fill="#F0D87C"/>
<path d="M109.701 148.587L148.996 126.811L179.487 190.382C181.151 193.851 179.823 198.017 176.456 199.882L157.102 210.607C153.737 212.473 149.501 211.391 147.441 208.141L109.701 148.587Z" fill="#7397DA"/>
<path d="M148.996 126.811L152.407 133.925L125.641 148.757C139.266 177.219 153.105 196.528 165.362 206.03L157.102 210.607C153.737 212.473 149.501 211.391 147.441 208.141L109.701 148.587L148.996 126.811Z" fill="#6988C4"/>
<path d="M70.6163 54.4654L89.9059 43.7758C96.589 40.0722 104.77 40.365 111.171 44.5358C121.491 51.2618 127.809 62.6636 128.042 74.9796L128.275 87.3935L87.2626 110.122L76.8594 103.342C66.5392 96.6172 60.2207 85.2154 59.9894 72.8997C59.8446 65.2611 63.9332 58.169 70.6163 54.4654Z" fill="#495059"/>
<path d="M104.321 100.669L87.2625 110.122L76.859 103.343C66.5391 96.6171 60.2206 85.2154 59.9893 72.8996C59.8615 66.1158 63.0751 59.7634 68.4767 55.8332C70.8164 76.3099 88.5399 94.0994 104.321 100.669Z" fill="#41464F"/>
<path d="M112.177 72.8845C111.8 74.1969 112.559 75.5661 113.87 75.9422C115.183 76.3186 116.552 75.5599 116.928 74.2475C117.305 72.9352 116.546 71.5672 115.233 71.1908C113.922 70.8146 112.553 71.5722 112.177 72.8845Z" fill="#41464F"/>
<path d="M82.6098 94.8886C82.2334 96.2009 82.9921 97.5701 84.3045 97.9466C85.6156 98.3227 86.9848 97.5639 87.3613 96.2516C87.7377 94.9392 86.9786 93.5712 85.6675 93.1951C84.3552 92.8187 82.9863 93.5762 82.6098 94.8886Z" fill="#495059"/>
<path d="M68.1302 78.7108C67.7541 80.0219 68.5129 81.3911 69.824 81.7673C71.1363 82.1437 72.5056 81.385 72.8817 80.0738C73.2581 78.7615 72.4994 77.3923 71.187 77.0158C69.8759 76.6397 68.5067 77.3985 68.1302 78.7108Z" fill="#495059"/>
<path d="M106.607 83.7363C106.23 85.0487 106.989 86.4179 108.3 86.794C109.612 87.1705 110.982 86.4117 111.358 85.0994C111.735 83.787 110.975 82.419 109.663 82.0426C108.352 81.6664 106.983 82.424 106.607 83.7363Z" fill="#41464F"/>
<path d="M100.966 72.2405C100.59 73.5516 101.349 74.9208 102.661 75.2973C103.973 75.6737 105.341 74.9146 105.718 73.6035C106.094 72.2912 105.336 70.9223 104.024 70.5458C102.712 70.1694 101.343 70.9281 100.966 72.2405Z" fill="#41464F"/>
<path d="M98.1061 49.8345C97.73 51.1456 98.4876 52.5145 99.7999 52.8909C101.112 53.2674 102.481 52.5086 102.858 51.1975C103.234 49.8852 102.475 48.5159 101.163 48.1395C99.8506 47.763 98.4826 48.5221 98.1061 49.8345Z" fill="#41464F"/>
<path d="M94.7719 120.937C92.7988 127.815 96.7746 134.991 103.653 136.964C110.531 138.937 117.708 134.96 119.681 128.082C121.654 121.204 117.676 114.029 110.798 112.055C103.92 110.082 96.745 114.058 94.7719 120.937Z" fill="#EB8D9A"/>
<path d="M95.8928 130.789C94.045 127.457 93.8239 123.662 94.9661 120.319C99.1709 128.47 103.182 133.724 107.558 137.461C102.888 137.576 98.3141 135.159 95.8928 130.789Z" fill="#D67C88"/>
<path d="M129.517 120.276C130.116 120.448 130.779 120.392 131.366 120.066L144.719 112.667C145.893 112.016 146.318 110.536 145.667 109.361C145.016 108.186 143.537 107.761 142.362 108.413L129.01 115.812C127.835 116.463 127.41 117.943 128.061 119.118C128.386 119.705 128.919 120.105 129.517 120.276Z" fill="#495059"/>
<path d="M124.298 110.859C124.896 111.031 125.56 110.975 126.148 110.648L132.824 106.949C133.998 106.298 134.423 104.818 133.772 103.643C133.121 102.468 131.64 102.044 130.467 102.695L123.79 106.395C122.615 107.046 122.19 108.526 122.843 109.7C123.167 110.287 123.701 110.688 124.298 110.859Z" fill="#495059"/>
<path d="M133.547 186.215L127.264 176.301L163.185 156.395L168.261 166.978L133.547 186.215Z" fill="#80BBE6"/>
<path d="M133.547 186.215L127.264 176.301L137.253 170.764C139.327 174.304 141.394 177.626 143.448 180.729L133.547 186.215Z" fill="#76ACD4"/>
</g>
</g>
<defs>
<clipPath id="clip0">
<rect width="185" height="185" fill="white"/>
</clipPath>
<clipPath id="clip1">
<rect width="166" height="166" fill="white" transform="matrix(-0.961231 -0.275743 -0.275743 0.961231 230.338 77.7733)"/>
</clipPath>
</defs>
</svg>
