<svg width="185" height="185" viewBox="0 0 185 185" fill="none" xmlns="http://www.w3.org/2000/svg">
<g clip-path="url(#clip0)">
<path d="M68.6648 97.4077H106.384V191.563H68.6648V97.4077Z" fill="#5AAAE0"/>
<path d="M164.538 97.4077H202.563V191.563H164.538V97.4077Z" fill="#5AAAE0"/>
<path d="M106.384 58.4375H164.538V191.562H106.384V58.4375Z" fill="#7DC7FF"/>
<path d="M140.242 161.756C141.519 160.984 142.577 159.896 143.313 158.597C144.049 157.298 144.438 155.831 144.444 154.338C144.413 152.005 143.464 149.778 141.803 148.138C140.142 146.499 137.902 145.58 135.569 145.58C133.235 145.58 130.995 146.499 129.334 148.138C127.673 149.778 126.725 152.005 126.694 154.338C126.699 155.831 127.089 157.298 127.825 158.597C128.56 159.896 129.618 160.984 130.896 161.756C128.372 162.676 126.191 164.347 124.646 166.544C123.102 168.741 122.268 171.359 122.256 174.045V191.562H148.881V174.045C148.87 171.359 148.036 168.741 146.491 166.544C144.946 164.347 142.765 162.676 140.242 161.756Z" fill="#F73445"/>
<path d="M115.33 106.166H119.804V110.546H115.33V106.166Z" fill="#359ED8"/>
<path d="M115.33 114.925H119.804V119.304H115.33V114.925Z" fill="#359ED8"/>
<path d="M115.33 123.684H119.804V128.063H115.33V123.684Z" fill="#359ED8"/>
<path d="M115.33 132.442H119.804V136.821H115.33V132.442Z" fill="#359ED8"/>
<path d="M124.277 106.166H128.751V110.546H124.277V106.166Z" fill="#359ED8"/>
<path d="M124.277 114.925H128.751V119.304H124.277V114.925Z" fill="#359ED8"/>
<path d="M124.277 123.684H128.751V128.063H124.277V123.684Z" fill="#359ED8"/>
<path d="M124.277 132.442H128.751V136.821H124.277V132.442Z" fill="#359ED8"/>
<path d="M133.224 106.166H137.698V110.546H133.224V106.166Z" fill="#359ED8"/>
<path d="M133.224 114.925H137.698V119.304H133.224V114.925Z" fill="#359ED8"/>
<path d="M133.224 123.684H137.698V128.063H133.224V123.684Z" fill="#359ED8"/>
<path d="M133.224 132.442H137.698V136.821H133.224V132.442Z" fill="#359ED8"/>
<path d="M142.171 106.166H146.644V110.546H142.171V106.166Z" fill="#359ED8"/>
<path d="M124.277 97.4077H128.751V101.787H124.277V97.4077Z" fill="#359ED8"/>
<path d="M133.224 97.4077H137.698V101.787H133.224V97.4077Z" fill="#359ED8"/>
<path d="M142.171 97.4077H146.644V101.787H142.171V97.4077Z" fill="#359ED8"/>
<path d="M142.171 114.925H146.644V119.304H142.171V114.925Z" fill="#359ED8"/>
<path d="M142.171 123.684H146.644V128.063H142.171V123.684Z" fill="#359ED8"/>
<path d="M142.171 132.442H146.644V136.821H142.171V132.442Z" fill="#359ED8"/>
<path d="M151.118 106.166H155.591V110.546H151.118V106.166Z" fill="#359ED8"/>
<path d="M151.118 114.925H155.591V119.304H151.118V114.925Z" fill="#359ED8"/>
<path d="M151.118 123.684H155.591V128.063H151.118V123.684Z" fill="#359ED8"/>
<path d="M151.118 132.442H155.591V136.821H151.118V132.442Z" fill="#359ED8"/>
<path d="M94.8862 170.45C95.6859 169.847 96.3354 169.067 96.784 168.171C97.2327 167.276 97.4683 166.288 97.4726 165.287C97.4496 163.537 96.7381 161.866 95.4923 160.636C94.2466 159.407 92.5667 158.718 90.8163 158.718C89.066 158.718 87.3861 159.407 86.1403 160.636C84.8946 161.866 84.1831 163.537 84.1601 165.287C84.1644 166.288 84.4 167.276 84.8487 168.171C85.2973 169.067 85.9468 169.847 86.7465 170.45C84.6877 171.239 82.9153 172.632 81.6619 174.445C80.4084 176.259 79.7325 178.41 79.7226 180.614V191.562H101.91V180.614C101.9 178.41 101.224 176.259 99.9708 174.445C98.7173 172.632 96.945 171.239 94.8862 170.45Z" fill="#F7F769"/>
<path d="M115.017 163.881C115.816 163.278 116.466 162.498 116.914 161.603C117.363 160.707 117.599 159.72 117.603 158.718C117.58 156.968 116.869 155.297 115.623 154.068C114.377 152.838 112.697 152.149 110.947 152.149C109.196 152.149 107.517 152.838 106.271 154.068C105.025 155.297 104.314 156.968 104.291 158.718C104.295 159.72 104.53 160.707 104.979 161.603C105.428 162.498 106.077 163.278 106.877 163.881C104.818 164.67 103.046 166.063 101.792 167.877C100.539 169.69 99.8629 171.841 99.853 174.045V191.563H122.041V174.045C122.031 171.841 121.355 169.69 120.101 167.877C118.848 166.063 117.075 164.67 115.017 163.881Z" fill="#FFC943"/>
<path d="M184.355 170.45C185.155 169.847 185.804 169.067 186.253 168.171C186.701 167.276 186.937 166.288 186.941 165.287C186.918 163.537 186.207 161.866 184.961 160.636C183.715 159.407 182.035 158.718 180.285 158.718C178.535 158.718 176.855 159.407 175.609 160.636C174.363 161.866 173.652 163.537 173.629 165.287C173.633 166.288 173.869 167.276 174.317 168.171C174.766 169.067 175.416 169.847 176.215 170.45C174.156 171.239 172.384 172.632 171.131 174.445C169.877 176.259 169.201 178.41 169.191 180.614V191.562H191.379V180.614C191.369 178.41 190.693 176.259 189.44 174.445C188.186 172.632 186.414 171.239 184.355 170.45Z" fill="#F7F769"/>
<path d="M164.225 163.881C165.024 163.278 165.674 162.498 166.122 161.603C166.571 160.707 166.807 159.72 166.811 158.718C166.788 156.968 166.076 155.297 164.831 154.068C163.585 152.838 161.905 152.149 160.155 152.149C158.404 152.149 156.724 152.838 155.479 154.068C154.233 155.297 153.521 156.968 153.498 158.718C153.503 159.72 153.738 160.707 154.187 161.603C154.636 162.498 155.285 163.278 156.085 163.881C154.026 164.67 152.254 166.063 151 167.877C149.747 169.69 149.071 171.841 149.061 174.045V191.563H171.248V174.045C171.239 171.841 170.563 169.69 169.309 167.877C168.056 166.063 166.283 164.67 164.225 163.881Z" fill="#FFC943"/>
<path d="M175.722 112.735H180.195V147.769H175.722V112.735Z" fill="#005889"/>
<path d="M77.3062 112.735H81.7796V147.769H77.3062V112.735Z" fill="#005889"/>
<path d="M90.7264 112.735H95.1999V147.769H90.7264V112.735Z" fill="#005889"/>
<path d="M117.567 64.563H153.355V86.4595H117.567V64.563Z" fill="#359ED8"/>
</g>
<defs>
<clipPath id="clip0">
<rect width="185" height="185" fill="white"/>
</clipPath>
</defs>
</svg>
