<svg width="185" height="185" viewBox="0 0 185 185" fill="none" xmlns="http://www.w3.org/2000/svg">
<g clip-path="url(#clip0)">
<g clip-path="url(#clip1)">
<path d="M115.688 178.232H94.8027C71.0089 178.232 51.7205 158.944 51.7205 135.15V85.5246C51.7205 55.964 75.6842 32 105.245 32C134.806 32 158.77 55.964 158.77 85.5246V135.15C158.77 158.944 139.481 178.232 115.688 178.232Z" fill="#606572"/>
<path d="M105.245 32C103.838 32 102.444 32.0551 101.064 32.1615C128.671 34.2942 150.408 57.3708 150.408 85.5246V135.15C150.408 158.944 131.12 178.232 107.326 178.232H115.688C139.481 178.232 158.77 158.944 158.77 135.15V85.525C158.77 55.9637 134.806 32 105.245 32Z" fill="#3B4254"/>
<path d="M151.089 185.455H59.2476L60.0221 173.167C60.5976 164.048 67.0197 156.357 75.8917 154.166L89.2378 150.868C89.8982 150.705 90.3593 150.115 90.3593 149.437V119.564H120.128V149.473C120.128 150.152 120.593 150.742 121.25 150.904L134.445 154.166C143.317 156.357 149.739 164.048 150.315 173.167L151.089 185.455Z" fill="#F9C295"/>
<path d="M150.314 173.167C149.739 164.048 143.317 156.357 134.445 154.166L121.25 150.905C120.593 150.743 120.128 150.152 120.128 149.474V119.564H112.557V149.474C112.557 150.152 113.022 150.743 113.679 150.905L126.874 154.166C135.746 156.357 142.168 164.048 142.744 173.167L143.518 185.454H151.089L150.314 173.167Z" fill="#E8A26A"/>
<path d="M90.3596 144.535C95.3661 147.238 100.539 148.65 105.245 148.65C109.951 148.65 115.123 147.238 120.129 144.536V119.564H90.3596V144.535Z" fill="#E8A26A"/>
<path d="M143.632 103.656C139.012 127.339 119.873 140.968 105.245 140.968C91.4674 140.968 73.6821 128.877 67.8073 107.678C93.9908 103.949 116.063 79.6722 121.587 65.5842C121.587 65.5846 121.587 96.6077 143.632 103.656Z" fill="#F9C295"/>
<path d="M133.628 97.7278C132.386 123.632 116.033 139.322 102.839 140.844C103.651 140.923 104.455 140.968 105.245 140.968C119.873 140.968 139.013 127.339 143.632 103.656C139.606 102.369 136.318 100.28 133.628 97.7278Z" fill="#E8A26A"/>
<path d="M149.725 43.4727C147.907 50.1685 145.378 52.6971 138.682 54.5156C137.294 54.8927 137.294 56.8662 138.682 57.2433C145.378 59.0618 147.907 61.5904 149.725 68.2859C150.102 69.6738 152.076 69.6738 152.453 68.2859C154.272 61.5901 156.8 59.0615 163.496 57.2433C164.884 56.8662 164.884 54.8927 163.496 54.5156C156.8 52.6971 154.272 50.1685 152.453 43.4727C152.076 42.0851 150.102 42.0851 149.725 43.4727Z" fill="#FEE9A1"/>
<path d="M161.828 148.758L144.356 132.611C141.009 129.518 142.123 123.978 146.406 122.418L167.942 114.58C172.226 113.021 176.64 116.548 176.064 121.07L173.059 144.67L161.828 148.758Z" fill="#FEE9A1"/>
<path d="M167.942 114.58L162.484 116.566C165.909 115.32 169.77 119.049 169.587 123.427L168.632 146.281L173.059 144.669L176.064 121.07C176.64 116.548 172.225 113.021 167.942 114.58Z" fill="#FDCA67"/>
<path d="M168.885 122.934C168.451 120.443 167.386 117.541 165.989 115.291L161.289 117.002C162.261 118.263 163.589 120.875 164.094 123.77L165.196 130.079C165.427 131.402 166.686 132.288 168.009 132.057C169.332 131.826 170.218 130.566 169.987 129.243L168.885 122.934Z" fill="#DDA84A"/>
<path d="M151.053 129.424L154.265 134.965C154.716 135.743 155.532 136.178 156.371 136.178C156.785 136.178 157.204 136.072 157.588 135.849C158.75 135.176 159.146 133.688 158.473 132.526L155.261 126.985C153.787 124.442 153.125 121.588 153.059 119.996L148.361 121.706C148.738 124.329 149.785 127.236 151.053 129.424Z" fill="#DDA84A"/>
<path d="M160.941 150.433L170.637 177.074C172.032 180.905 176.268 182.881 180.1 181.486C183.931 180.092 185.906 175.855 184.512 172.024L174.815 145.383C174.349 144.102 172.932 143.441 171.651 143.907L162.416 147.268C161.135 147.735 160.474 149.152 160.941 150.433Z" fill="#FD7BA2"/>
<path d="M184.512 172.024L174.816 145.383C174.349 144.102 172.932 143.441 171.651 143.907L166.835 145.66C167.582 145.388 168.566 146.207 169.032 147.488L178.729 174.129C179.895 177.332 179.605 180.483 178.174 181.907C178.817 181.854 179.464 181.717 180.099 181.486C183.931 180.092 185.907 175.855 184.512 172.024Z" fill="#E9488E"/>
<path d="M178.596 155.771L176.933 151.2H176.932L163.058 156.25H163.058L164.721 160.821L178.596 155.771Z" fill="#606572"/>
<path d="M176.933 151.2L171.15 153.305L172.813 157.876L178.596 155.771L176.933 151.2H176.933Z" fill="#3B4254"/>
<path d="M68.4077 137.854V161.801H46.3456V127.697C46.3456 127.284 46.4386 126.904 46.6286 126.573C47.9997 124.202 53.9177 125.06 59.8519 128.486C64.9531 131.431 68.4077 135.314 68.4077 137.854Z" fill="#FF7870"/>
<path d="M61.0139 129.192V161.801H68.4077V137.854C68.4077 135.512 65.4697 132.029 61.0139 129.192Z" fill="#D7352E"/>
<path d="M68.4294 161.801H46.3239C44.5108 161.801 43.0408 163.271 43.0408 165.084V194.717C43.0408 196.53 44.5105 198 46.3239 198H68.4294C70.2425 198 71.7125 196.53 71.7125 194.717V165.084C71.7125 163.271 70.2425 161.801 68.4294 161.801Z" fill="#78BAF6"/>
<path d="M68.4294 161.801H61.0356C62.8486 161.801 64.3186 163.271 64.3186 165.084V194.717C64.3186 196.53 62.8489 198 61.0356 198H68.4294C70.2424 198 71.7124 196.53 71.7124 194.717V165.084C71.7124 163.271 70.2424 161.801 68.4294 161.801Z" fill="#1885DA"/>
<path d="M68.4077 137.854C68.4077 138.271 68.3146 138.651 68.1204 138.983C66.7532 141.353 60.831 140.496 54.8972 137.07C49.7962 134.125 46.3459 130.237 46.3459 127.697C46.3459 127.284 46.4389 126.904 46.6289 126.573C48.0001 124.202 53.918 125.06 59.8522 128.486C64.9531 131.431 68.4077 135.314 68.4077 137.854Z" fill="#FF9794"/>
<path d="M71.7125 169.273H43.0408V174.136H71.7125V169.273Z" fill="#606572"/>
<path d="M71.7125 169.273H64.3187V174.136H71.7125V169.273Z" fill="#3B4254"/>
</g>
</g>
<defs>
<clipPath id="clip0">
<rect width="185" height="185" fill="white"/>
</clipPath>
<clipPath id="clip1">
<rect width="166" height="166" fill="white" transform="translate(31 32)"/>
</clipPath>
</defs>
</svg>
