<svg width="177" height="177" viewBox="0 0 177 177" fill="none" xmlns="http://www.w3.org/2000/svg">
<g clip-path="url(#clip0)">
<path d="M151.52 76.6882L141.38 42.2333C140.871 40.5153 139.746 39.0458 138.22 38.1071C136.694 37.1684 134.875 36.8267 133.112 37.1476L112.897 40.8118L92.2903 37.0652C90.6029 36.7584 88.8615 37.0583 87.374 37.912C85.8866 38.7656 84.749 40.1179 84.1627 41.7296L74.3351 76.6736L151.52 76.6882Z" fill="#D6B676"/>
<path d="M78.2003 65.3396L67.7333 61.4139C67.367 61.2765 66.9729 61.23 66.5846 61.2782C66.1964 61.3265 65.8257 61.4681 65.5041 61.6909C65.1825 61.9137 64.9197 62.211 64.7381 62.5576C64.5566 62.9041 64.4616 63.2894 64.4615 63.6806V79.5603L78.9922 77.1385L78.2003 65.3396Z" fill="#F9A419"/>
<path d="M78.2003 65.3396L75.9432 64.4919C74.7779 66.1211 74.1505 68.0736 74.1487 70.0766V73.3073C74.161 74.8613 74.5534 76.3886 75.2917 77.7561L78.9922 77.1385L78.2003 65.3396Z" fill="#F09E18"/>
<path d="M151.52 76.6882L148.786 67.311C142.562 65.4063 136.241 63.8364 129.85 62.6079C121.023 61.2387 112.037 61.2387 103.21 62.6079L105.632 72.295L103.21 62.6079L101.738 56.7229C101.638 56.3223 101.437 55.954 101.154 55.6529C100.872 55.3517 100.517 55.1278 100.124 55.0023C99.7305 54.8769 99.3117 54.8541 98.907 54.9361C98.5024 55.0181 98.1254 55.2022 97.8119 55.4708L87.9698 63.9084C88.9354 64.575 89.7249 65.4661 90.2703 66.505C90.8157 67.544 91.1008 68.6998 91.1012 69.8732V72.295C91.0975 72.7422 91.0529 73.188 90.968 73.627C98.2433 72.732 105.567 72.2871 112.897 72.295C125.901 72.2015 138.869 73.6766 151.52 76.6882Z" fill="#F9A419"/>
<path d="M90.968 73.6269C91.0529 73.1879 91.0975 72.7421 91.1012 72.295V69.8732C91.1012 67.9463 90.3357 66.0983 88.9732 64.7358C87.6107 63.3732 85.7627 62.6078 83.8358 62.6078C81.9089 62.6078 80.0609 63.3732 78.6984 64.7358C77.3359 66.0983 76.5704 67.9463 76.5704 69.8732V72.295C76.5769 73.5684 76.9221 74.8172 77.5706 75.9131" fill="#F9A419"/>
<path d="M151.52 76.6881C138.869 73.6765 125.901 72.2015 112.897 72.295C105.567 72.287 98.2434 72.7319 90.968 73.6269C62.9237 77.1216 42.6654 87.1284 42.6654 98.9346C42.6654 108.46 55.8593 121.876 75.6792 130.161L81.414 103.778V96.5128H144.381V103.778L150.115 130.161C169.935 121.876 183.129 108.46 183.129 98.9346C183.129 89.635 170.56 81.4542 151.52 76.6881Z" fill="#D6B676"/>
<path d="M90.968 73.627C91.8035 73.5229 92.6632 73.4429 93.5181 73.3509V73.3073V70.0767C93.5146 68.5925 93.1683 67.1293 92.5062 65.801C91.8442 64.4727 90.8843 63.3152 89.7014 62.4189L87.9649 63.9083C88.9315 64.5745 89.7218 65.4653 90.2681 66.5043C90.8144 67.5433 91.1003 68.6994 91.1012 69.8732V72.295C91.0975 72.7421 91.0529 73.188 90.968 73.627Z" fill="#F09E18"/>
<path d="M103.21 62.6078L105.632 72.295H108.054L103.21 62.6078Z" fill="#F09E18"/>
<path d="M144.381 103.778V111.472C144.379 116.936 143.057 122.319 140.527 127.162C137.997 132.005 134.334 136.164 129.85 139.287V159.479H156.49L144.381 103.778Z" fill="#BF792C"/>
<path d="M69.3051 159.479H95.9448V139.287C91.4608 136.164 87.7978 132.005 85.2678 127.162C82.7377 122.319 81.4156 116.936 81.414 111.472V103.778L69.3051 159.479Z" fill="#BF792C"/>
<path d="M149.224 176.432H183.129C183.129 171.936 181.343 167.624 178.164 164.445C174.985 161.265 170.673 159.479 166.177 159.479H149.224V176.432Z" fill="#FFF2D9"/>
<path d="M129.85 159.479V139.286C129.324 139.652 128.794 140.013 128.244 140.347L120.514 145.106C118.223 146.516 115.587 147.262 112.897 147.262C110.208 147.262 107.571 146.516 105.281 145.106L97.5504 140.347C97.0007 140.011 96.4703 139.652 95.9448 139.286V159.479H86.2576V176.432H139.537V159.479H129.85Z" fill="#FFF2D9"/>
<path d="M59.6179 159.479C55.1218 159.479 50.8099 161.265 47.6307 164.445C44.4514 167.624 42.6654 171.936 42.6654 176.432H76.5704V159.479H59.6179Z" fill="#FFF2D9"/>
<path d="M129.85 132.84V133.152C129.85 137.688 128.145 142.059 125.074 145.397C122.002 148.736 117.788 150.798 113.268 151.175L109.49 151.49C106.776 151.716 104.149 152.552 101.804 153.935C99.4582 155.319 97.4554 157.214 95.9448 159.479V132.84H129.85Z" fill="#F5E8D0"/>
<path d="M76.5704 159.479H86.2576V176.432H76.5704V159.479Z" fill="#F9A419"/>
<path d="M139.537 159.479H149.224V176.432H139.537V159.479Z" fill="#F9A419"/>
<path d="M81.414 96.5128V111.472C81.4156 116.936 82.7377 122.319 85.2678 127.162C87.7978 132.005 91.4608 136.164 95.9447 139.287C96.4703 139.652 97.0006 140.013 97.5504 140.347L105.281 145.106C107.571 146.516 110.208 147.262 112.897 147.262C115.587 147.262 118.223 146.516 120.514 145.106L128.244 140.347C128.794 140.011 129.324 139.652 129.85 139.287C134.334 136.164 137.997 132.005 140.527 127.162C143.057 122.319 144.379 116.936 144.381 111.472V96.5128L112.897 86.8257L81.414 96.5128Z" fill="#FFF2D9"/>
<path d="M137.035 111.165C137.225 110.88 137.351 110.557 137.406 110.219C137.461 109.881 137.442 109.535 137.352 109.205C137.261 108.875 137.101 108.568 136.882 108.305C136.663 108.042 136.39 107.828 136.081 107.68C133.712 106.552 131.135 105.926 128.513 105.843C125.89 105.759 123.279 106.22 120.843 107.195L119.044 107.922C118.46 108.156 117.993 108.613 117.745 109.191C117.498 109.77 117.49 110.423 117.724 111.007L117.758 111.097C117.993 111.681 118.449 112.147 119.028 112.395C119.606 112.642 120.259 112.65 120.843 112.417L122.64 111.69C124.46 110.961 126.412 110.618 128.371 110.683C130.33 110.748 132.255 111.22 134.023 112.068C134.532 112.308 135.111 112.356 135.652 112.203C136.194 112.05 136.663 111.708 136.972 111.237L137.035 111.165Z" fill="#73674F"/>
<path d="M112.897 131.825L108.427 130.931C108.121 130.87 107.806 130.869 107.5 130.93C107.195 130.99 106.904 131.11 106.644 131.282C106.384 131.455 106.162 131.677 105.988 131.936C105.814 132.195 105.693 132.486 105.632 132.791V132.886C105.509 133.503 105.635 134.145 105.985 134.669C106.334 135.193 106.877 135.557 107.494 135.681L111.965 136.574C113.495 136.88 115.076 136.804 116.57 136.354C118.064 135.905 119.424 135.094 120.531 133.995C120.786 133.726 120.974 133.401 121.079 133.046C121.185 132.691 121.205 132.316 121.139 131.952C121.072 131.588 120.921 131.244 120.696 130.949C120.472 130.655 120.181 130.417 119.848 130.256C119.413 130.02 118.917 129.924 118.426 129.981C117.935 130.037 117.473 130.244 117.104 130.573C116.558 131.109 115.889 131.503 115.156 131.721C114.423 131.939 113.647 131.975 112.897 131.825Z" fill="#FCBCAD"/>
<path d="M112.897 86.8257L81.414 96.5128V111.472C81.4156 116.936 82.7377 122.319 85.2678 127.162C87.7978 132.005 91.4608 136.164 95.9447 139.287L91.755 121.835C91.0891 119.054 91.0471 116.16 91.632 113.361C92.2169 110.561 93.4142 107.926 95.138 105.645C96.8618 103.363 99.0694 101.491 101.602 100.163C104.135 98.8358 106.93 98.0853 109.788 97.9659L144.381 96.5128L112.897 86.8257Z" fill="#F5E8D0"/>
<path d="M108.071 111C108.187 110.711 108.245 110.401 108.241 110.09C108.238 109.778 108.173 109.47 108.05 109.184C107.928 108.897 107.75 108.637 107.527 108.42C107.304 108.202 107.04 108.03 106.751 107.915L104.951 107.188C102.515 106.215 99.9041 105.755 97.2818 105.838C94.6596 105.922 92.0829 106.546 89.7135 107.672C89.4053 107.821 89.1325 108.035 88.9136 108.298C88.6947 108.561 88.5346 108.868 88.4442 109.198C88.3538 109.528 88.3352 109.874 88.3895 110.212C88.4439 110.55 88.57 110.872 88.7593 111.157L88.8102 111.235C89.1196 111.704 89.588 112.047 90.1293 112.199C90.6707 112.351 91.2488 112.303 91.7575 112.063C93.5254 111.216 95.4497 110.745 97.4088 110.68C99.368 110.614 101.319 110.956 103.14 111.683L104.939 112.409C105.524 112.643 106.176 112.635 106.755 112.387C107.333 112.14 107.79 111.673 108.025 111.09L108.071 111Z" fill="#73674F"/>
</g>
<defs>
<clipPath id="clip0">
<rect width="177" height="177" fill="white"/>
</clipPath>
</defs>
</svg>
