<svg width="185" height="185" viewBox="0 0 185 185" fill="none" xmlns="http://www.w3.org/2000/svg">
<g clip-path="url(#clip0)">
<path d="M147.349 193.9C146.529 193.9 145.738 193.452 145.339 192.672L133.027 168.634C132.46 167.525 132.898 166.166 134.007 165.598C135.116 165.031 136.475 165.468 137.043 166.577L149.355 190.615C149.923 191.724 149.484 193.083 148.375 193.651C148.046 193.82 147.695 193.9 147.349 193.9Z" fill="#1B3D66"/>
<path d="M95.0218 193.9C94.6756 193.9 94.3243 193.82 93.9953 193.651C92.8863 193.083 92.4477 191.724 93.0159 190.615L105.328 166.577C105.896 165.468 107.256 165.03 108.364 165.598C109.473 166.166 109.911 167.525 109.343 168.634L97.0314 192.672C96.6319 193.452 95.8415 193.9 95.0218 193.9Z" fill="#1B3D66"/>
<path d="M78.1913 164.732V157.512H164.179V164.732C164.179 166.319 162.893 167.606 161.306 167.606H81.0647C79.4777 167.606 78.1913 166.319 78.1913 164.732Z" fill="#F2DF33"/>
<path d="M156.885 157.512V164.732C156.885 166.319 155.599 167.606 154.012 167.606H161.306C162.893 167.606 164.179 166.319 164.179 164.732V157.512H156.885Z" fill="#FCAB29"/>
<path d="M110.921 56.194V49.504C110.921 47.6242 112.445 46.1001 114.325 46.1001H128.046C129.926 46.1001 131.45 47.6242 131.45 49.504V56.1937H110.921V56.194Z" fill="#F2DF33"/>
<path d="M128.046 46.1006H120.7C122.58 46.1006 124.104 47.6246 124.104 49.5045V56.1942H131.45V49.5045C131.45 47.6243 129.926 46.1006 128.046 46.1006Z" fill="#FCAB29"/>
<path d="M181.989 53.9382H60.3811C56.8625 53.9382 54 56.8008 54 60.3193V153.387C54 156.905 56.8625 159.768 60.3811 159.768H181.989C185.508 159.768 188.37 156.905 188.37 153.387V60.3193C188.371 56.8008 185.508 53.9382 181.989 53.9382Z" fill="#EBEEF2"/>
<path d="M181.989 53.9382H174.438C177.957 53.9382 180.82 56.8008 180.82 60.3193V153.387C180.82 156.905 177.957 159.768 174.438 159.768H181.989C185.508 159.768 188.37 156.905 188.37 153.387V60.3193C188.371 56.8008 185.508 53.9382 181.989 53.9382Z" fill="#D1D6DE"/>
<path d="M94.7063 102.957C93.9207 102.957 93.1576 102.546 92.7422 101.814C92.1274 100.73 92.5073 99.3534 93.591 98.7383L105.143 92.1831C106.227 91.5683 107.604 91.9485 108.219 93.0319C108.833 94.1156 108.454 95.4923 107.37 96.1074L95.8174 102.663C95.4661 102.862 95.0838 102.957 94.7063 102.957Z" fill="#1B3D66"/>
<path d="M126.959 102.957C126.582 102.957 126.2 102.862 125.848 102.663L114.296 96.1073C113.212 95.4922 112.832 94.1155 113.447 93.0318C114.062 91.9477 115.439 91.5682 116.522 92.183L128.075 98.7382C129.158 99.3533 129.538 100.73 128.924 101.814C128.508 102.546 127.745 102.957 126.959 102.957Z" fill="#1B3D66"/>
<path d="M134.599 101.279C134.145 101.279 133.686 101.142 133.288 100.858C132.275 100.133 132.041 98.7235 132.767 97.7105L147.344 77.3394C148.069 76.3261 149.478 76.0924 150.491 76.8176C151.504 77.5428 151.738 78.9519 151.013 79.965L136.436 100.336C135.995 100.951 135.302 101.279 134.599 101.279Z" fill="#1B3D66"/>
<path d="M85.5526 125.512V143.641C85.5526 144.14 85.9566 144.544 86.455 144.544H93.8022C94.3005 144.544 94.7045 144.14 94.7045 143.641V125.512C94.7045 125.014 94.3005 124.61 93.8022 124.61H86.455C85.9566 124.61 85.5526 125.014 85.5526 125.512Z" fill="#48CFB7"/>
<path d="M106.257 113.984V143.641C106.257 144.139 106.661 144.543 107.16 144.543H114.507C115.005 144.543 115.409 144.139 115.409 143.641V113.984C115.409 113.485 115.005 113.082 114.507 113.082H107.16C106.661 113.082 106.257 113.486 106.257 113.984Z" fill="#48CFB7"/>
<path d="M126.962 125.512V143.641C126.962 144.14 127.365 144.544 127.864 144.544H135.211C135.71 144.544 136.113 144.14 136.113 143.641V125.512C136.113 125.014 135.71 124.61 135.211 124.61H127.864C127.365 124.61 126.962 125.014 126.962 125.512Z" fill="#48CFB7"/>
<path d="M147.666 104.994V143.641C147.666 144.14 148.07 144.544 148.568 144.544H155.916C156.414 144.544 156.818 144.14 156.818 143.641V104.994C156.818 104.496 156.414 104.092 155.916 104.092H148.568C148.07 104.092 147.666 104.496 147.666 104.994Z" fill="#48CFB7"/>
<path d="M177.697 136.215L195.498 167.047C197.348 170.252 201.445 171.349 204.649 169.499C207.854 167.65 208.951 163.552 207.101 160.348L189.301 129.516L177.697 136.215Z" fill="#ED5575"/>
<path d="M189.301 129.516L177.697 136.215L184.636 148.234C186.72 147.5 188.766 146.566 190.748 145.422C192.731 144.277 194.562 142.972 196.239 141.535L189.301 129.516Z" fill="#CC3A60"/>
<path d="M172.622 142.89C188.563 142.89 201.485 129.967 201.485 114.027C201.485 98.086 188.563 85.1636 172.622 85.1636C156.682 85.1636 143.759 98.086 143.759 114.027C143.759 129.967 156.682 142.89 172.622 142.89Z" fill="#F2DF33"/>
<path d="M172.622 134.338C183.84 134.338 192.934 125.245 192.934 114.027C192.934 102.809 183.84 93.7148 172.622 93.7148C161.404 93.7148 152.311 102.809 152.311 114.027C152.311 125.245 161.404 134.338 172.622 134.338Z" fill="#5C9CEE"/>
<path d="M110.833 84.0254C106.687 84.0254 103.313 87.3987 103.313 91.5449C103.313 95.6912 106.687 99.0648 110.833 99.0648C114.979 99.0648 118.353 95.6912 118.353 91.5449C118.353 87.3987 114.979 84.0254 110.833 84.0254Z" fill="#F2DF33"/>
<path d="M90.1284 95.781C85.9821 95.781 82.6089 99.1546 82.6089 103.301C82.6089 107.447 85.9821 110.821 90.1284 110.821C94.2747 110.821 97.648 107.447 97.648 103.301C97.648 99.1546 94.2747 95.781 90.1284 95.781Z" fill="#5C9CEE"/>
<path d="M131.538 95.781C127.391 95.781 124.018 99.1546 124.018 103.301C124.018 107.447 127.391 110.821 131.538 110.821C135.684 110.821 139.057 107.447 139.057 103.301C139.057 99.1546 135.684 95.781 131.538 95.781Z" fill="#ED5575"/>
<path d="M152.242 66.8552C148.096 66.8552 144.723 70.2288 144.723 74.3751C144.723 78.5214 148.096 81.8946 152.242 81.8946C156.389 81.8946 159.762 78.5214 159.762 74.3751C159.762 70.2288 156.389 66.8552 152.242 66.8552Z" fill="#9FD479"/>
</g>
<defs>
<clipPath id="clip0">
<rect width="185" height="185" fill="white"/>
</clipPath>
</defs>
</svg>
