<svg width="185" height="185" viewBox="0 0 185 185" fill="none" xmlns="http://www.w3.org/2000/svg">
<g clip-path="url(#clip0)">
<g clip-path="url(#clip1)">
<path d="M131.9 72.4627C131.9 97.6501 120.663 115.088 106.713 115.088C92.7627 115.088 81.5254 97.6501 81.5254 72.4627C81.5254 54.6376 92.7627 49.6003 106.713 49.6003C120.663 49.6003 131.9 54.6376 131.9 72.4627Z" fill="#415A6B"/>
<path d="M90.0501 99.2001L89.6625 113.538C89.6625 113.538 86.5626 128.263 91.2126 137.95C108.263 134.463 126.475 132.138 121.05 113.538V99.2001H90.0501Z" fill="#F7B64C"/>
<path d="M122.987 186L138.488 133.688H99.7374L81.525 128.65L82.2999 186H122.987Z" fill="#CED6E0"/>
<path d="M115.625 186L110.2 147.637H100.9L95.475 186H115.625Z" fill="#F3705A"/>
<path d="M110.2 147.637L114.85 142.988L105.55 133.688L96.2499 142.988L100.9 147.637H110.2Z" fill="#F05540"/>
<path d="M89.6625 113.537C89.6625 113.537 88.5 117.8 89.6625 120.512C90.825 123.225 105.55 133.3 105.55 133.3L91.9875 147.25L83.0751 129.425L85.7877 119.35C86.1753 117.8 86.9502 116.25 87.7251 115.087C88.5 114.7 89.2749 113.925 89.6625 113.537Z" fill="#F3F3F3"/>
<path d="M90.825 186L81.9126 145.313L82.3002 125.938L55.5627 138.337C48.9754 141.437 44.3254 147.637 43.9377 155L42 186H90.825Z" fill="#344A5E"/>
<path d="M82.6875 186H95.0874L86.175 118.963L71.8374 144.925L79.2 144.538L69.9 152.675L82.6875 186Z" fill="#415A6B"/>
<path d="M121.438 113.537C121.438 113.537 122.6 117.8 121.438 120.512C120.275 123.225 105.55 133.3 105.55 133.3L119.113 146.862L128.025 129.037L125.312 118.963C124.925 117.412 124.15 115.863 123.375 114.7C122.6 114.7 121.825 113.925 121.438 113.537Z" fill="#F3F3F3"/>
<path d="M169.1 186L166.775 155C166.387 147.637 161.737 141.438 155.15 138.337L128.413 125.938L128.8 145.313L120.275 186H169.1Z" fill="#344A5E"/>
<path d="M116.012 186H128.413L141.2 152.675L131.9 144.538L139.262 144.925L124.925 118.963L116.012 186Z" fill="#415A6B"/>
<path d="M80.0399 93.387C80.683 98.0508 82.9228 101.595 85.0427 101.302C87.1625 101.01 88.3597 96.9923 87.7165 92.3284C87.0734 87.6646 84.8336 84.1208 82.7137 84.4131C80.5939 84.7054 79.3967 88.7232 80.0399 93.387Z" fill="#FFD15C"/>
<path d="M133.422 93.165C134.065 88.5011 132.868 84.4834 130.748 84.1911C128.628 83.8987 126.388 87.4426 125.745 92.1064C125.102 96.7702 126.299 100.788 128.419 101.08C130.539 101.373 132.778 97.8288 133.422 93.165Z" fill="#FFD15C"/>
<path d="M109.813 62.0001C105.938 71.6877 97.4127 79.05 83.85 79.4376C83.0751 82.5375 82.6875 86.025 82.6875 89.5125C82.6875 108.5 92.7624 123.613 105.163 123.613C117.563 123.613 127.638 108.113 127.638 89.5125C127.638 82.9251 126.475 77.1126 124.538 72.075C118.337 70.5249 113.3 66.6501 109.813 62.0001Z" fill="#FFD15C"/>
<path d="M228 42.6249C228 66.2625 207.463 85.2498 182.275 85.2498C179.175 85.2498 176.075 84.8621 173.362 84.4749L150.887 101.912V73.6248C141.975 65.8749 136.55 55.0248 136.55 42.6249C136.55 18.9876 157.087 0 182.275 0C207.462 0 228 18.9876 228 42.6249Z" fill="#8AD7F8"/>
</g>
</g>
<defs>
<clipPath id="clip0">
<rect width="185" height="185" fill="white"/>
</clipPath>
<clipPath id="clip1">
<rect width="186" height="186" fill="white" transform="translate(42)"/>
</clipPath>
</defs>
</svg>
