<svg width="30" height="30" viewBox="0 0 30 30" fill="none" xmlns="http://www.w3.org/2000/svg">
<g clip-path="url(#clip0)">
<path d="M15 30C23.2843 30 30 23.2843 30 15C30 6.71573 23.2843 0 15 0C6.71573 0 0 6.71573 0 15C0 23.2843 6.71573 30 15 30Z" fill="#7AA5DA"/>
<path d="M29.9956 14.6529L23.3369 8.00537L12.4907 21.2259L20.3003 29.0355C25.9686 26.8938 30 21.4181 30 15C30 14.8839 29.9982 14.7683 29.9956 14.6529Z" fill="#5786B5"/>
<path d="M22.4834 7.82344C23.0814 7.59012 23.6996 8.11336 23.5683 8.7416L20.8864 21.5608C20.7612 22.1618 20.0551 22.4325 19.5602 22.0689L15.5117 19.0972L13.4481 21.2043C13.0854 21.574 12.4602 21.4235 12.3046 20.9305L10.8158 16.2042L6.82482 15.0254C6.30058 14.8709 6.27029 14.1416 6.77836 13.9426L22.4834 7.82344ZM20.5147 10.6679C20.6895 10.5133 20.4864 10.2406 20.2884 10.3638L11.6743 15.7062C11.5228 15.8002 11.4531 15.985 11.5066 16.1557L12.6813 21.3143C12.7046 21.3931 12.8177 21.382 12.8278 21.3002L13.0904 17.3689C13.1005 17.2719 13.147 17.183 13.2197 17.1184L20.5147 10.6679Z" fill="white"/>
<path d="M20.2885 10.3638C20.4865 10.2406 20.6895 10.5133 20.5148 10.6679L13.2199 17.1184C13.1472 17.183 13.1007 17.2719 13.0905 17.3689L12.8279 21.3002C12.8179 21.382 12.7047 21.3931 12.6814 21.3143L11.5067 16.1557C11.4531 15.985 11.5229 15.8002 11.6744 15.7062L20.2885 10.3638Z" fill="#9EC2E5"/>
<path d="M12.7239 21.3679C12.534 21.3002 12.3734 21.1487 12.3047 20.9305L10.8158 16.2042L6.82488 15.0254C6.30064 14.8708 6.27035 14.1415 6.77842 13.9426L22.4834 7.82344C22.8693 7.67291 23.2642 7.83756 23.4592 8.14266C23.4228 8.08711 23.3794 8.03561 23.3309 7.99014L12.6763 16.6881V17.0689L12.6178 17.0265L12.6763 19.4245V21.3477C12.6915 21.3548 12.7076 21.3608 12.7238 21.3659V21.3679H12.7239Z" fill="white"/>
<path d="M23.5854 8.52645C23.5885 8.59512 23.5834 8.66784 23.5683 8.74161L20.8864 21.5608C20.7612 22.1618 20.0551 22.4325 19.5602 22.0689L15.5117 19.0972L12.6763 17.0689V16.6881L23.3309 7.99008C23.3794 8.03555 23.4228 8.08705 23.4592 8.1426C23.4662 8.15473 23.4733 8.1658 23.4804 8.17694C23.4864 8.18907 23.4935 8.2012 23.4996 8.21227C23.5056 8.2244 23.5117 8.23653 23.5168 8.24866C23.5228 8.26178 23.5279 8.27391 23.5329 8.28704C23.537 8.29817 23.542 8.31024 23.5461 8.32342C23.5592 8.3628 23.5693 8.40323 23.5763 8.44565C23.5804 8.4719 23.5834 8.49821 23.5854 8.52645Z" fill="#D1D1D1"/>
<path d="M15.5117 19.0972L13.4481 21.2043C13.4309 21.2214 13.4127 21.2386 13.3945 21.2538C13.3764 21.2689 13.3581 21.2821 13.339 21.2952C13.338 21.2962 13.338 21.2962 13.338 21.2962C13.2996 21.3214 13.2602 21.3427 13.2188 21.3598C13.1976 21.3679 13.1774 21.376 13.1562 21.381C13.0683 21.4073 12.9784 21.4144 12.8895 21.4053C12.8663 21.4033 12.843 21.3993 12.8208 21.3952C12.8178 21.3952 12.8148 21.3942 12.8117 21.3932C12.7895 21.3872 12.7673 21.3811 12.7451 21.374C12.738 21.372 12.7309 21.37 12.7239 21.3659L12.6764 19.4245V17.0689L15.5117 19.0972Z" fill="#D1D1D1"/>
<path d="M13.3945 21.2537C13.3763 21.2689 13.3581 21.283 13.339 21.2961V21.2951C13.3582 21.282 13.3763 21.2689 13.3945 21.2537Z" fill="#DADDE0"/>
<path d="M13.3399 21.2951V21.2971C13.3399 21.2971 13.3399 21.2951 13.338 21.2971C13.338 21.2971 13.338 21.2971 13.3399 21.2951Z" fill="#DADDE0"/>
<path d="M13.2188 21.3598C13.2602 21.3427 13.2996 21.3214 13.338 21.2962C13.2996 21.3214 13.2592 21.3426 13.2188 21.3598Z" fill="#DADDE0"/>
<path d="M12.8895 21.4052C12.9784 21.4143 13.0683 21.4072 13.1562 21.381C13.0925 21.4012 13.0268 21.4103 12.9612 21.4103C12.941 21.4103 12.9208 21.4093 12.9016 21.4072C12.8976 21.4073 12.8935 21.4073 12.8895 21.4052Z" fill="#DADDE0"/>
<path d="M12.9612 21.4103C12.941 21.4103 12.9208 21.4093 12.9016 21.4072C12.9208 21.4093 12.941 21.4103 12.9612 21.4103Z" fill="white"/>
<path d="M12.8895 21.4052C12.8936 21.4072 12.8976 21.4072 12.9017 21.4072C12.8804 21.4062 12.8612 21.4032 12.8411 21.3991C12.8572 21.4022 12.8733 21.4042 12.8895 21.4052Z" fill="white"/>
<path d="M12.8895 21.4052C12.8734 21.4042 12.8572 21.4022 12.8411 21.3992C12.834 21.3982 12.827 21.3972 12.8209 21.3952C12.8431 21.3992 12.8663 21.4032 12.8895 21.4052Z" fill="#DADDE0"/>
<path d="M12.7451 21.3739C12.7673 21.381 12.7896 21.3871 12.8118 21.3932C12.8027 21.3912 12.7936 21.3891 12.7845 21.3871C12.7805 21.3861 12.7764 21.3851 12.7734 21.3831C12.7642 21.381 12.7542 21.378 12.7451 21.3739Z" fill="#DADDE0"/>
<path d="M12.7845 21.3871C12.7937 21.3891 12.8029 21.3912 12.8122 21.3932C12.8029 21.3922 12.7937 21.3902 12.7845 21.3871Z" fill="white"/>
<path d="M12.7451 21.3739C12.7542 21.378 12.7643 21.381 12.7734 21.383C12.7582 21.38 12.7431 21.3749 12.7279 21.3689C12.7339 21.3709 12.739 21.373 12.7451 21.3739Z" fill="white"/>
<path d="M12.7455 21.3741C12.7393 21.3731 12.7341 21.371 12.728 21.369C12.727 21.37 12.7249 21.369 12.7239 21.3679V21.3659C12.731 21.37 12.7382 21.372 12.7455 21.3741Z" fill="#DADDE0"/>
<path d="M12.6763 19.4245L12.7238 21.3659C12.7076 21.3608 12.6914 21.3547 12.6763 21.3477V19.4245Z" fill="#D1D1D1"/>
<path d="M12.6763 17.0689V19.4245L12.6177 17.0265L12.6763 17.0689Z" fill="#DADDE0"/>
<path d="M20.5147 10.6679L13.2198 17.1184C13.1471 17.183 13.1006 17.2719 13.0905 17.3689L12.8283 21.3005C12.8183 21.3823 12.7051 21.3935 12.6809 21.3146L11.5066 16.1558C11.4531 15.9851 11.5228 15.8002 11.6743 15.7063L20.2885 10.3639C20.4865 10.2406 20.6895 10.5134 20.5147 10.6679Z" fill="#ADBCC9"/>
</g>
<defs>
<clipPath id="clip0">
<rect width="30" height="30" fill="white"/>
</clipPath>
</defs>
</svg>
