<svg width="30" height="30" viewBox="0 0 30 30" fill="none" xmlns="http://www.w3.org/2000/svg">
<g clip-path="url(#clip0)">
<path d="M15 30C23.2843 30 30 23.2843 30 15C30 6.71573 23.2843 0 15 0C6.71573 0 0 6.71573 0 15C0 23.2843 6.71573 30 15 30Z" fill="#75B73B"/>
<path d="M21.1079 8.89606C20.2382 8.67856 18.9592 7.92738 18.1313 7.62627C14.899 6.61617 10.5555 7.42424 9.34341 11.1616C9.24239 11.2627 9.04036 11.2627 8.93934 11.2627C6.51509 14.0909 8.13128 17.5253 7.92925 20.6566C7.86028 21.7604 7.27985 22.7365 6.5329 23.5621L12.819 29.8416C13.5311 29.9453 14.2591 30 15 30C22.4083 30 28.5616 24.629 29.7801 17.5687L21.1079 8.89606Z" fill="#52891D"/>
<path d="M14.5803 6.35431C10.0083 6.57181 6.40036 10.3795 6.41413 14.9565C6.41835 16.3506 6.75491 17.6664 7.3487 18.8293L6.43716 23.2539C6.38788 23.4933 6.60374 23.7029 6.84151 23.6466L11.1772 22.6194C12.2911 23.1743 13.5422 23.4947 14.8663 23.515C19.5394 23.5864 23.4357 19.876 23.5816 15.2047C23.7375 10.1974 19.6049 6.11496 14.5803 6.35431ZM19.7537 19.6837C18.484 20.9534 16.7957 21.6527 15 21.6527C13.9486 21.6527 12.9418 21.4168 12.0078 20.9516L11.4042 20.6508L8.74581 21.2805L9.30532 18.5643L9.00796 17.9817C8.52304 17.0321 8.27718 16.0055 8.27718 14.9299C8.27718 13.1341 8.97649 11.446 10.2462 10.1762C11.5045 8.91773 13.2203 8.20723 15.0001 8.20723C16.7957 8.20723 18.484 8.90654 19.7536 10.1762C21.0233 11.4459 21.7226 13.1342 21.7226 14.9297C21.7227 16.7096 21.0121 18.4253 19.7537 19.6837Z" fill="white"/>
<path d="M19.1669 16.7919L17.5037 16.3144C17.2853 16.2518 17.0497 16.3138 16.8904 16.4761L16.4836 16.8904C16.3122 17.0652 16.052 17.1213 15.825 17.0295C15.0383 16.7111 13.3833 15.2396 12.9609 14.5038C12.8388 14.2914 12.859 14.0261 13.0088 13.8322L13.3637 13.3728C13.5028 13.193 13.5321 12.9511 13.4402 12.7431L12.7405 11.1606C12.573 10.7817 12.0886 10.6713 11.7722 10.9389C11.308 11.3316 10.7573 11.928 10.6905 12.5889C10.5724 13.7542 11.0722 15.2229 12.9617 16.9867C15.1447 19.0244 16.893 19.2934 18.0314 19.0178C18.677 18.8615 19.193 18.2347 19.5184 17.7213C19.7406 17.3711 19.565 16.9063 19.1669 16.7919Z" fill="white"/>
<path d="M20.8596 8.65476L19.5575 9.98941C19.6238 10.0506 19.6897 10.1122 19.7538 10.1764C21.0236 11.4461 21.7228 13.1344 21.7228 14.9299C21.7228 16.7097 21.0122 18.4254 19.7538 19.6839C18.4842 20.9535 16.7958 21.6528 15.0001 21.6528C13.9487 21.6528 12.942 21.4169 12.008 20.9517L11.4043 20.6509L8.74595 21.2806L8.80091 21.0138L6.44696 23.4262C6.49887 23.5823 6.66405 23.6884 6.84153 23.6464L11.1772 22.6193C12.2911 23.1742 13.5423 23.4946 14.8664 23.5148C19.5394 23.5863 23.4359 19.8759 23.5816 15.2045C23.6622 12.6186 22.5988 10.2794 20.8596 8.65476Z" fill="#D1D1D1"/>
<path d="M19.1669 16.7919L17.5038 16.3144C17.2853 16.2518 17.0497 16.3138 16.8904 16.4761L16.4837 16.8904C16.3122 17.0652 16.0521 17.1213 15.8251 17.0295C15.3706 16.8456 14.6268 16.2769 13.9978 15.6875L12.8416 16.8725C12.8813 16.9105 12.9209 16.9484 12.9618 16.9867C15.1448 19.0244 16.893 19.2935 18.0315 19.0178C18.6771 18.8615 19.1931 18.2347 19.5185 17.7213C19.7406 17.3711 19.565 16.9063 19.1669 16.7919Z" fill="#D1D1D1"/>
</g>
<defs>
<clipPath id="clip0">
<rect width="30" height="30" fill="white"/>
</clipPath>
</defs>
</svg>
